<?xml version="1.0" encoding="UTF-8"?>
<svg width="343px" height="201px" viewBox="0 0 343 201" version="1.1" xmlns="http://www.w3.org/2000/svg" xmlns:xlink="http://www.w3.org/1999/xlink">
    <!-- Generator: Sketch 53.1 (72631) - https://sketchapp.com -->
    <title>logo</title>
    <desc>Created with Sketch.</desc>
    <g id="Page-1" stroke="none" stroke-width="1" fill="none" fill-rule="evenodd">
        <g id="logo" transform="translate(4.000000, 5.000000)">
            <g id="Group-2">
                <polygon id="Path" stroke="#979797" fill="#FF004A" points="0.25 88.83195 0 192 181.788379 143.232552 335 109.738144 334.601 73.7529 333.343 0.267742"></polygon>
                <polygon id="Path-3" stroke="#161B24" stroke-width="7" points="1.764 89.456361 0.25 191.189 169.145 146.455322 334.601 108.803454 333.343 80.931344 333.343 21.3488 333.343 0.267742 146.915 49.79223"></polygon>
            </g>
            <path d="M27.204525,161.957765 L26.336432,145.997577 C25.797781,143.818537 25.180547,141.457924 24.484713,138.916023 C23.788878,136.375527 23.058306,133.831291 22.292975,131.283348 C21.527644,128.736956 20.784246,126.280484 20.062759,123.913718 C19.341272,121.548312 18.709769,119.456408 18.168231,117.637514 C17.626693,115.819406 17.175982,114.367088 16.816082,113.280161 L16.276235,111.650364 L25.418191,104.429936 L28.66887,117.541227 C28.994566,118.856759 29.303455,120.149855 29.595546,121.420517 C29.887638,122.691475 30.171473,123.884196 30.447062,124.998677 L31.142294,127.811278 C31.264404,125.956647 31.402225,123.668552 31.555762,120.94681 C31.709298,118.224735 31.828929,115.591192 31.914657,113.046224 C32.026637,110.064977 32.122113,106.926472 32.201088,103.630659 L42.659817,103.84892 C41.924437,108.669419 41.22496,113.451262 40.561364,118.194825 C40.308213,120.250211 40.028569,122.378916 39.722424,124.58091 L38.803993,131.183647 C38.497848,133.383499 38.197127,135.514204 37.90182,137.575864 C37.606514,139.637039 37.343127,141.555679 37.111653,143.331957 C37.226572,144.704351 37.320112,146.216364 37.392276,147.868018 C37.46444,149.519767 37.528352,151.092754 37.584014,152.587005 C37.617999,154.355418 37.630906,156.128669 37.622735,157.906766 L27.204525,161.957765 Z M70.341678,109.477536 C71.361702,113.663619 71.958843,117.700193 72.13312,121.585268 C72.307398,125.470873 72.167982,129.108013 71.714868,132.495494 C71.261755,135.881771 70.530312,138.981279 69.52052,141.793334 C68.510727,144.603149 67.34112,147.069716 66.011663,149.193105 C64.682205,151.314251 63.232467,153.029138 61.662406,154.338258 C60.092344,155.645719 58.496613,156.485873 56.875165,156.859593 C55.503171,157.175408 54.178178,157.143798 52.900146,156.765307 C51.622115,156.387168 50.414979,155.670768 49.278705,154.616514 C48.14243,153.563183 47.095792,152.114545 46.13876,150.270898 C45.181727,148.428632 44.367362,146.139197 43.695639,143.402575 C42.999038,140.566128 42.556155,137.510661 42.366975,134.235281 C42.177796,130.960392 42.202715,127.661372 42.441731,124.337281 C42.680747,121.012559 43.185739,117.782965 43.956722,114.647435 C44.727705,111.509987 45.721933,108.650361 46.939437,106.068041 C48.156941,103.483228 49.607993,101.307087 51.292638,99.539654 C52.977283,97.769867 54.900542,96.609802 57.062471,96.060491 C58.933372,95.584372 60.597101,95.659298 62.053708,96.286335 C63.510315,96.914092 64.765077,97.891055 65.818034,99.217536 C66.870991,100.545115 67.773097,102.114776 68.524381,103.926544 C69.275664,105.739379 69.881424,107.589788 70.341678,109.477536 Z M50.507747,138.798066 C50.592109,139.345618 50.767631,139.90538 51.034313,140.477429 C51.300983,141.049612 51.621633,141.537689 51.996276,141.941662 C52.370908,142.345752 52.812355,142.676572 53.320632,142.934107 C53.828901,143.191727 54.345005,143.282588 54.868969,143.20659 C56.833875,142.921128 58.461842,141.892612 59.752982,140.120305 C61.044269,138.346315 62.020061,136.259776 62.680334,133.861243 C63.340682,131.461847 63.748773,128.946506 63.904553,126.315906 C64.06032,123.685459 63.977405,121.322016 63.655764,119.225999 C63.563853,118.627286 63.4315,117.983864 63.258698,117.295755 C63.085885,116.607768 62.855166,115.980017 62.566533,115.412498 C62.277888,114.845121 61.893377,114.382227 61.412989,114.023788 C60.93259,113.665474 60.34272,113.541211 59.643377,113.650832 C58.244714,113.869793 57.01675,114.469222 55.959477,115.448808 C54.902275,116.427577 54.005632,117.647887 53.269515,119.109842 C52.533461,120.57107 51.944503,122.187151 51.5026,123.958373 C51.060734,125.729189 50.721035,127.509647 50.483475,129.300019 C50.245924,131.090277 50.144578,132.822048 50.17941,134.495648 C50.214221,136.169483 50.323666,137.603601 50.507747,138.798066 Z M98.923518,131.158855 C99.033036,134.227947 98.793769,136.920201 98.20571,139.234709 C97.617652,141.548158 96.75235,143.547114 95.609778,145.231299 C94.467206,146.913972 93.142837,148.258961 91.63663,149.266528 C90.130424,150.272882 88.550203,150.970918 86.89592,151.36116 C85.920317,151.591046 84.877247,151.634062 83.766679,151.490429 C82.656111,151.346901 81.605329,150.987121 80.6143,150.411323 C79.623272,149.835954 78.720755,149.024624 77.906723,147.977479 C77.092691,146.93099 76.494419,145.618739 76.111888,144.040547 L75.963813,143.429763 C75.914454,143.226183 75.886304,143.017571 75.879363,142.803914 C75.543105,140.677288 75.208009,138.093574 74.874064,135.052871 C74.540118,132.012961 74.196538,128.841758 73.843312,125.539255 C73.490086,122.237664 73.176197,118.913879 72.901636,115.567656 C72.627075,112.222153 72.370449,109.181995 72.131751,106.446938 C71.893053,103.712391 71.709308,101.434658 71.580511,99.613425 C71.451714,97.792375 71.380375,96.668781 71.366493,96.242473 C72.232581,95.913481 73.262154,95.515515 74.455243,95.048403 C75.648331,94.580856 76.762738,94.160021 77.798497,93.785987 C79.07642,93.295393 80.333117,92.809789 81.568623,92.329179 C81.958871,98.75693 82.33446,104.569692 82.695401,109.767269 C82.831911,111.999806 82.979023,114.229899 83.136742,116.457641 C83.29446,118.685657 83.430197,120.7304 83.543955,122.591851 C83.657713,124.453467 83.755274,126.062729 83.83664,127.419627 C83.918006,128.776611 83.983175,129.881124 84.032149,130.733159 C84.081123,131.585226 84.161331,132.65923 84.272774,133.955264 C84.384218,135.25141 84.563335,136.409802 84.810129,137.430538 C85.007564,138.247268 85.34073,138.882917 85.809637,139.337533 C86.278544,139.792313 86.767495,139.958647 87.276505,139.836377 C87.997603,139.663074 88.508148,139.17519 88.808154,138.372649 C89.108161,137.56992 89.3,136.644355 89.383677,135.596018 C89.467354,134.547612 89.463111,133.506987 89.370948,132.474217 C89.278785,131.441521 89.228462,130.628655 89.219978,130.035541 C89.116632,128.491728 89.004996,126.774264 88.885068,124.883138 C88.76514,122.992188 88.626705,121.024886 88.469757,118.981228 C88.31281,116.93782 88.146611,114.856442 87.971154,112.737063 C87.795697,110.617974 87.621978,108.552841 87.449992,106.541587 C87.085196,101.876439 86.662179,97.06548 86.180927,92.108966 L95.666977,88.83195 L95.830093,90.904996 C95.938837,92.28718 96.088841,94.119906 96.280108,96.403395 C96.471375,98.687223 96.704864,101.286119 96.980581,104.200373 C97.256298,107.11525 97.506754,110.159228 97.731957,113.332344 C97.957159,116.506015 98.180622,119.62633 98.402354,122.693361 C98.624085,125.760919 98.797805,128.582791 98.923518,131.158855 Z M141.63849,104.658011 C142.603049,110.035009 142.86072,114.865396 142.411511,119.145253 C141.962302,123.423642 141.079877,127.133635 139.764211,130.274066 C138.448544,133.41133 136.82632,135.905415 134.89749,137.756694 C132.96866,139.605201 131.000769,140.773894 128.99376,141.264283 C127.44669,141.641742 125.874208,141.586373 124.276267,141.098956 C122.678326,140.612105 121.166876,139.653324 119.741871,138.223317 C118.316867,136.794853 117.009709,134.888364 115.820359,132.504263 C114.631009,130.12233 113.629592,127.232294 112.816079,123.834034 C111.22603,117.198119 110.612903,111.221457 110.976681,105.896656 C111.340458,100.57036 112.309111,95.957825 113.882667,92.056486 C115.456223,88.150418 117.400379,85.043063 119.715193,82.73481 C122.030007,80.422469 124.358135,78.951674 126.699646,78.324624 C128.372154,77.876062 129.911404,77.84706 131.317442,78.238364 C132.72348,78.6301 133.968531,79.326669 135.052633,80.328393 C136.136734,81.330954 137.050609,82.600078 137.794285,84.135831 C138.53796,85.67246 139.125494,87.347864 139.556902,89.161887 L131.445146,93.448545 C130.575793,91.480168 129.722764,90.140156 128.886032,89.427829 C128.0493,88.71596 127.233726,88.46516 126.439284,88.674984 C125.393967,88.950876 124.462917,90.168907 123.646108,92.328261 C122.829299,94.486263 122.222465,97.149262 121.825589,100.317629 C121.428712,103.485029 121.266882,106.892062 121.340093,110.53971 C121.413304,114.187563 121.808684,117.699526 122.526246,121.076946 C123.290456,124.280272 124.222633,126.471221 125.322806,127.64919 C126.422979,128.828144 127.579332,129.267306 128.7919,128.965731 C129.628154,128.757577 130.434126,128.282263 131.209839,127.539543 C131.985553,126.796377 132.614793,125.855866 133.097578,124.717998 C133.580364,123.579709 133.911182,122.314328 134.090042,120.921991 C134.268902,119.529463 134.200513,118.075718 133.884873,116.561129 L127.46979,119.503554 L126.831049,111.521235 C128.722291,110.70875 130.571691,109.905803 132.379307,109.112432 C133.90656,108.445065 135.515541,107.70084 137.206299,106.879522 C138.897057,106.057136 140.374439,105.316532 141.63849,104.658011 Z M171.341678,82.303706 C172.361702,86.644643 172.958843,90.834553 173.13312,94.871455 C173.307398,98.908886 173.167982,102.691419 172.714868,106.217865 C172.261755,109.743107 171.530312,112.97335 170.52052,115.907915 C169.510727,118.840241 168.34112,121.417588 167.011663,123.640032 C165.682205,125.860232 164.232467,127.659491 162.662406,129.038302 C161.092344,130.415455 159.496613,131.307071 157.875165,131.714026 C156.503171,132.057962 155.178178,132.040114 153.900146,131.661026 C152.622115,131.28229 151.414979,130.55098 150.278705,129.467502 C149.14243,128.384948 148.095792,126.890245 147.13876,124.983693 C146.181727,123.078521 145.367362,120.706646 144.695639,117.868048 C143.999038,114.925847 143.556155,111.752998 143.366975,108.348603 C143.177796,104.944699 143.202715,101.513349 143.441731,98.05361 C143.680747,94.59324 144.185739,91.228979 144.956722,87.959758 C145.727705,84.688618 146.721933,81.704123 147.939437,79.005753 C149.156941,76.30489 150.607993,74.026666 152.292638,72.171118 C153.977283,70.313215 155.900542,69.086937 158.062471,68.493313 C159.933372,67.978847 161.597101,68.039498 163.053708,68.676332 C164.510315,69.313886 165.765077,70.316572 166.818034,71.684702 C167.870991,73.053929 168.773097,74.676368 169.524381,76.552044 C170.275664,78.428787 170.881424,80.346085 171.341678,82.303706 Z M153.664992,113.091053 C153.854395,113.632551 154.135524,114.167796 154.508393,114.696863 C154.881277,115.226064 155.290674,115.658343 155.736597,115.9937 C156.182532,116.329174 156.679671,116.57615 157.228027,116.734613 C157.776392,116.89316 158.299935,116.879918 158.798662,116.694784 C160.668837,116.000059 162.063969,114.616293 162.984023,112.54274 C163.903901,110.467506 164.453654,108.138152 164.633363,105.555222 C164.812982,102.971431 164.722764,100.321096 164.362787,97.604895 C164.002826,94.888847 163.460958,92.494165 162.737219,90.421267 C162.530452,89.829159 162.275333,89.199713 161.971857,88.532952 C161.668395,87.866311 161.319914,87.272997 160.926408,86.753005 C160.532916,86.233155 160.065823,85.839558 159.525113,85.572189 C158.984417,85.304944 158.382037,85.298966 157.717938,85.554089 C156.389711,86.064054 155.302949,86.927348 154.457585,88.143668 C154.162867,88.567384 153.892993,89.017062 153.647963,89.492705 C153.190082,90.381528 152.818954,91.361022 152.534576,92.431218 C152.097939,94.073392 151.83566,95.843483 151.747757,97.741784 C151.659811,99.639679 151.673883,101.526479 151.789997,103.402456 C151.906099,105.27832 152.144299,107.066552 152.50463,108.767468 C152.864986,110.46862 153.251769,111.909793 153.664992,113.091053 Z M182.145116,125.913948 C181.745268,119.833705 181.322198,113.84571 180.875892,107.949894 C180.695223,105.469087 180.489812,102.882833 180.259654,100.191151 C180.029496,97.499934 179.798173,94.851657 179.56568,92.246231 C179.333186,89.641261 179.077468,87.127273 178.798517,84.704231 C178.519566,82.281698 178.255674,80.066092 178.006835,78.057247 C177.00861,78.161458 176.024699,78.373858 175.05507,78.694337 C174.085441,79.014586 173.076785,79.121148 172.029071,79.014265 C171.872902,78.160842 171.66491,77.181694 171.405092,76.076878 C171.145273,74.972278 170.906351,73.862188 170.68832,72.746548 C170.445544,71.525961 170.184213,70.226787 169.90432,68.849037 C171.015534,68.654402 172.120545,68.433325 173.219386,68.185769 C174.318228,67.938018 175.410867,67.663754 176.497336,67.362937 C178.628487,66.772188 180.671014,66.134929 182.624979,65.451095 C184.578944,64.766292 186.38044,64.094935 188.029522,63.43714 C189.678604,62.778559 191.287041,62.088285 192.854884,61.366273 L193.16755,65.850472 C193.243177,67.127627 193.335436,68.428432 193.444329,69.752952 C193.553222,71.07758 193.629257,72.2138 193.672438,73.161589 C192.827352,73.733773 191.95018,74.215714 191.040897,74.607499 C190.131614,74.999022 189.242071,75.427121 188.37224,75.891781 C188.500388,77.772321 188.654036,79.857345 188.83319,82.14701 C189.012343,84.436983 189.220498,86.803911 189.457662,89.247961 C189.694826,91.692445 189.951712,94.174317 190.228328,96.693717 C190.504944,99.21364 190.756811,101.627829 190.983938,103.936262 C191.540201,109.37363 192.181546,114.988475 192.90799,120.781627 L182.145116,125.913948 Z M217.145116,116.552284 C216.745268,110.393615 216.322198,104.328467 215.875892,98.356771 C215.695223,95.844002 215.489812,93.224484 215.259654,90.498236 C215.029496,87.772454 214.798173,85.090173 214.56568,82.451306 C214.333186,79.812895 214.077468,77.266739 213.798517,74.812802 C213.519566,72.359374 213.255674,70.115537 213.006835,68.081125 C212.00861,68.190205 211.024699,68.408851 210.05507,68.736952 C209.085441,69.064823 208.076785,69.17633 207.029071,69.071712 C206.872902,68.207578 206.66491,67.216239 206.405092,66.097753 C206.145273,64.979484 205.906351,63.855576 205.68832,62.725969 C205.445544,61.490114 205.184213,60.174696 204.90432,58.779725 C206.015534,58.578679 207.120545,58.350866 208.219386,58.096248 C209.318228,57.841435 210.410867,57.559784 211.497336,57.251254 C213.628487,56.645376 215.671014,55.992694 217.624979,55.293142 C219.578944,54.592621 221.38044,53.906259 223.029522,53.234172 C224.678604,52.561298 226.287041,51.856467 227.854884,51.11963 L228.16755,55.66145 C228.243177,56.95506 228.335436,58.272571 228.444329,59.614048 C228.553222,60.955633 228.629257,62.106459 228.672438,63.066501 C227.827352,63.649116 226.95018,64.140424 226.040897,64.54051 C225.131614,64.940336 224.242071,65.377151 223.37224,65.85094 C223.500388,67.755689 223.654036,69.86751 223.83319,72.186563 C224.012343,74.505923 224.220498,76.90314 224.457662,79.378381 C224.694826,81.854057 224.951712,84.367534 225.228328,86.918954 C225.504944,89.470897 225.756811,91.915804 225.983938,94.253652 C226.540201,99.76021 227.181546,105.446225 227.90799,111.312529 L217.145116,116.552284 Z M235.414599,112.536434 C234.798978,104.778456 234.193299,97.164887 233.597544,89.695321 C233.282469,86.568907 232.981604,83.310269 232.69494,79.919303 C232.408277,76.529053 232.109868,73.185872 231.799707,69.889688 C231.489545,66.594258 231.180028,63.39977 230.871148,60.306094 C230.562267,57.213123 230.270159,54.388299 229.994815,51.831399 L240.016367,47.987942 C240.168237,51.970062 240.367794,56.111427 240.615043,60.412416 C240.862292,64.714187 241.13736,68.893741 241.440257,72.951294 L247.485039,70.296649 C247.194532,66.284513 246.868783,62.413087 246.507782,58.682357 C246.146781,54.952615 245.905195,51.059661 245.783017,47.002907 C246.701355,46.504899 247.734175,46.016442 248.881509,45.537477 C250.028843,45.058127 251.095094,44.616545 252.080293,44.212799 C253.065492,43.808775 253.895967,43.464283 254.571743,43.179421 L255.585401,42.751879 C255.553779,45.364061 255.606373,48.197414 255.743186,51.252297 C255.879999,54.307486 256.052109,57.468464 256.259522,60.735468 C256.466934,64.002967 256.704676,67.305677 256.972756,70.643816 C257.240835,73.982609 257.513824,77.146976 257.79173,80.136978 C258.439395,87.309239 259.187341,94.63096 260.035591,102.103287 L250.522869,106.24339 C250.326565,102.832451 250.085725,99.520768 249.800343,96.308378 C249.626467,93.585499 249.438335,90.751509 249.235942,87.806391 C249.033548,84.861709 248.829394,82.350744 248.623474,80.273327 L242.66777,82.7095 C242.843997,84.848359 243.041957,87.326922 243.261653,90.145398 C243.48135,92.964328 243.701631,95.639533 243.922503,98.17106 L244.540894,107.335426 L235.414599,112.536434 Z M271.77861,101.858302 C271.409896,101.959155 270.708556,102.224118 269.674569,102.652976 C268.640581,103.08151 267.571879,103.548428 266.46843,104.05368 C265.364981,104.558524 264.371091,105.018589 263.48673,105.433992 C262.602369,105.849125 262.125465,106.095192 262.056004,106.172398 C262.011204,103.674298 261.90715,100.915203 261.743839,97.89524 C261.580528,94.875636 261.396275,91.716312 261.191074,88.417274 C260.985872,85.118729 260.750834,81.785314 260.485953,78.417045 C260.221071,75.049428 259.970901,71.795011 259.735434,68.653614 C259.162859,61.351875 258.526147,53.867821 257.825279,46.201886 L266.943996,41.333402 C267.550453,48.992808 268.125713,56.51825 268.669795,63.909611 C268.905262,67.060858 269.155432,70.325467 269.420314,73.703619 C269.685195,77.082422 269.964319,80.428547 270.257695,83.742137 C270.55107,87.056433 270.82261,90.27496 271.072323,93.39771 C271.322036,96.521026 271.557463,99.341236 271.77861,101.858302 Z M296.964618,73.344668 C297.655575,76.422203 297.825538,79.342213 297.474511,82.103113 C297.123484,84.863316 296.377062,87.368561 295.235225,89.61806 C294.093387,91.865712 292.583183,93.776191 290.704566,95.349341 C288.825949,96.920363 286.677172,98.039557 284.258172,98.707676 C282.560629,99.175834 280.730473,99.054991 278.767651,98.346331 C276.80483,97.638678 274.74838,96.218271 272.598242,94.08681 L274.625288,80.909911 C275.082759,81.535327 275.69184,82.13283 276.45255,82.702517 C277.213261,83.272522 278.026634,83.726414 278.892695,84.064133 C279.758755,84.402066 280.603211,84.644541 281.426086,84.791472 C282.248962,84.938492 282.95746,84.928624 283.5516,84.761748 C284.060863,84.618656 284.566661,84.360058 285.069009,83.985886 C285.571356,83.611578 286.006582,83.139561 286.374698,82.569808 C286.742814,81.999904 287.000017,81.388355 287.146313,80.735204 C287.29261,80.081984 287.279389,79.371909 287.106649,78.605081 C286.810525,77.290743 286.207103,76.166025 285.296365,75.231149 C284.385627,74.296894 283.328099,73.463303 282.123749,72.730375 C280.919398,71.998094 279.627106,71.277053 278.246832,70.567284 C276.866558,69.85824 275.569452,69.068141 274.355474,68.197006 C273.141497,67.326649 272.034616,66.281538 271.034797,65.061728 C270.034978,63.842813 269.337662,62.364139 268.94283,60.625369 C268.301227,57.800936 268.360606,54.976945 269.120969,52.151153 C269.881332,49.323805 271.047692,46.737792 272.620085,44.392219 C274.192478,42.044001 276.028492,40.00672 278.128183,38.28038 C280.227874,36.55148 282.317433,35.375644 284.396924,34.754109 C285.542766,34.411262 286.665034,34.264552 287.763761,34.314217 C288.862487,34.363941 289.872627,34.673571 290.794211,35.243367 C291.715795,35.813556 292.535101,36.633662 293.252154,37.703836 C293.969206,38.774572 294.53131,40.213382 294.938481,42.020289 C295.11122,42.787016 295.23091,43.569579 295.297552,44.367957 C295.364195,45.166373 295.453785,46.016464 295.566324,46.918282 L287.113299,53.081894 C287.099468,52.6198 287.075027,52.160827 287.039977,51.704966 C287.004927,51.249116 286.938049,50.802628 286.839341,50.365502 C286.469185,48.726559 285.978027,47.604259 285.365852,46.998443 C284.753676,46.3929 284.086871,46.196636 283.365415,46.409362 C283.025906,46.509433 282.649151,46.794974 282.235138,47.265909 C281.821125,47.736705 281.428711,48.302766 281.057883,48.964082 C280.687055,49.625222 280.412091,50.3598 280.232983,51.167892 C280.053875,51.97588 280.05686,52.788669 280.241938,53.606444 C280.538062,54.915113 281.071285,55.922482 281.841623,56.628671 C282.61196,57.33526 283.507871,57.947554 284.529382,58.465566 C285.550893,58.983972 286.64974,59.494868 287.825955,59.998306 C289.002171,60.502186 290.15654,61.260742 291.289098,62.274295 C292.421656,63.288689 293.487219,64.659091 294.485819,66.385851 C295.484419,68.113862 296.310677,70.433414 296.964618,73.344668 Z M309.334138,70.641 C308.095911,70.998099 306.869892,71.409352 305.656044,71.874704 L302.01452,73.268381 C301.838781,66.200461 301.637118,59.170042 301.409523,52.177103 C301.181929,45.185308 301.001614,38.151681 300.868573,31.075662 C301.643256,30.668099 302.535343,30.224823 303.544862,29.745734 C304.554381,29.266316 305.568464,28.756213 306.587141,28.215374 C307.605819,27.674158 308.598554,27.169463 309.565375,26.701326 C310.532196,26.232881 311.33889,25.812936 311.98548,25.441584 C311.215746,32.992781 310.657976,40.519789 310.312152,48.024555 C309.966329,55.527462 309.640328,63.066153 309.334138,70.641 Z M313.669856,83.76918 C313.908018,84.837078 313.967992,85.95566 313.849779,87.124746 C313.731566,88.293733 313.427929,89.380473 312.93886,90.384809 C312.44979,91.388794 311.75542,92.270933 310.855729,93.031148 C309.956038,93.790874 308.856347,94.352532 307.556623,94.716251 C306.676166,94.96245 305.829434,94.960693 305.016403,94.711206 C304.203373,94.461865 303.492143,94.020477 302.882693,93.387127 C302.273243,92.754055 301.7362,91.996856 301.271548,91.115521 C300.806896,90.23448 300.468028,89.318412 300.254935,88.367176 C300.016773,87.304204 299.913793,86.24791 299.945992,85.198108 C299.978191,84.148281 300.171718,83.171712 300.526579,82.268217 C300.881441,81.364492 301.390277,80.55066 302.053105,79.826612 C302.715933,79.102221 303.592379,78.584535 304.682469,78.273617 C307.11421,77.579176 309.110341,77.828644 310.67092,79.023925 C312.2315,80.220556 313.231135,81.802474 313.669856,83.76918 Z" id="YOUGOTTHIS!" stroke="#161B24" stroke-width="2" fill="#FFFFFF" fill-rule="nonzero"></path>
        </g>
    </g>
</svg>