<?xml version="1.0" encoding="UTF-8"?>
<svg width="373px" height="545px" viewBox="0 0 373 545" version="1.1" xmlns="http://www.w3.org/2000/svg" xmlns:xlink="http://www.w3.org/1999/xlink">
    <!-- Generator: Sketch 53.1 (72631) - https://sketchapp.com -->
    <title>Group 2</title>
    <desc>Created with Sketch.</desc>
    <g id="Page-1" stroke="none" stroke-width="1" fill="none" fill-rule="evenodd">
        <g id="stock" transform="translate(-120.000000, -20.000000)">
            <g id="Group-2" transform="translate(127.000000, 20.000000)">
                <g id="Group">
                    <polygon id="Fill-4" stroke="#161B24" stroke-width="7" fill="#831F35" points="9.167 399.611 341.707 455.334 325.496 493.976 358 540 8.519 482.948"></polygon>
                    <polygon id="Fill-5" stroke="#161B24" stroke-width="7" fill="#831F35" points="339.532 376.393 10.779 323.009 26.99 284.37 2.84217094e-14 239 340.343 291.749"></polygon>
                    <path d="M272.531,112.38 C270.979,106.383 269.321,100.416 267.704,94.467 C263.577,79.279 259.096,64.135 255.32,48.858 C253.235,40.423 251.211,31.943 250.772,23.426 C243.969,19.089 237.657,13.879 231.312,8.977 C230.379,8.256 229.755,7.409 229.388,6.521 C225.801,6.36 222.041,6.833 218.15,7.849 C216.212,8.492 214.266,9.136 212.34,9.828 C211.979,11.46 210.897,12.95 208.932,13.67 C208.486,13.828 208.018,13.983 207.538,14.134 C207.128,14.264 206.72,14.383 206.311,14.496 C206.257,14.511 206.203,14.525 206.149,14.54 C197.02,17.014 188.187,15.328 178.808,13.928 C177.646,13.754 176.534,13.648 175.452,13.587 C171.932,14.847 168.409,16.227 164.882,17.683 C161.72,19.522 158.65,21.51 155.681,23.633 C155.675,23.667 155.668,23.7 155.662,23.733 C155.935,24.595 155.958,25.592 155.614,26.701 C154.997,28.699 154.388,30.584 152.488,31.744 C149.639,33.483 145.672,31.843 144.835,28.631 C144.681,28.037 144.605,27.367 144.582,26.655 C125.851,35.222 106.857,43.937 87.241,47.007 C83.061,50.645 78.847,54.242 74.512,57.665 C74.218,58.342 73.948,59.022 73.729,59.709 C71.279,67.411 74.18,76.606 75.733,84.221 C79.806,104.184 76.792,127.187 76.8,147.634 C76.802,150.946 76.81,154.31 77.728,157.492 C79.875,164.94 86.448,169.76 89.024,176.939 C92.313,186.106 96.562,194.691 100.933,203.493 C101.829,205.296 102.725,207.118 103.496,208.981 C104.777,208.647 106.142,208.762 107.204,209.571 C112.686,213.741 112.573,220.453 110.119,226.394 C109.329,228.307 107.862,229.806 105.958,230.15 C105.739,236.049 105.246,242.009 105.278,247.574 C105.354,260.432 105.393,273.29 105.248,286.147 C104.958,311.853 103.95,337.577 101.121,363.141 C100.726,366.718 99.17,369.511 97.008,371.52 C96.668,426.558 96.376,481.596 95.104,536.61 L241.581,536.61 C240.887,520.492 238.868,504.082 238.907,489.14 C238.925,482.355 236.482,477.188397 241.581,475.982397 C232.907,391.570397 233.089,308.131 229.063,223.36 C228.879,219.466 230.171,216.508 232.252,214.461 C232.396,214.223 232.536,213.98 232.686,213.745 C232.24,212.175 232.45,210.393 233.73,208.823 C235.171,207.056 236.66,205.332 238.159,203.616 C238.502,203.219 238.85,202.826 239.194,202.43 C241.57,199.724 243.956,197.028 246.232,194.236 C246.683,193.684 247.195,193.292 247.74,193.031 C256.032,184.325 270.747,175.632 273.83,163.332 C275.82,155.391 271.221,148.203 271.94,140.459 C272.746,131.804 274.755,120.972 272.531,112.38 Z" id="Fill-6" fill="#FFFFFE"></path>
                    <path d="M84.857,57.089 L96.386,50.351 L103.329,62.315 L125.079,129.489 L106.787,137.046 L75.89,79.045 L85.037,57.294 L84.857,57.089 Z M114.985,43.716 L134.84,33.314 L149.34,46.56 L164.302,127.926 L163.534,128.208 L130.459,128.208 L108.042,57.909 L114.985,43.716 Z M161.1,35.364 L164.174,24.168 L178.034,16.611 L194.533,26.346 L204.447,76.329 L176.472,76.508 L172.039,104.254 L194.123,122.854 L200.425,133.255 L178.342,128.849 L169.631,126.03 L158.179,45.612 L161.33,35.518 L161.1,35.364 Z M207.649,21.914 L223.738,9.053 L241.724,20.069 L253.508,75.996 L208.367,76.303 L205.831,30.394 L207.649,21.914 Z M74.02,145.885 L73.841,159.591 L105.993,216.799 L102.201,261.735 L91.022,536.61 L97.124,536.61 L108.836,258.891 L112.782,217.747 L159.64,215.954 L113.884,208.703 L113.551,209.703 L82.833,157.234 L82.09,142.862 L80.86,104.023 L86.778,114.194 L89.648,119.113 L97.18,132.051 L103.943,143.656 L130.434,132.64 L177.266,137.662 L172.039,179.6 L161.945,182.136 L171.731,182.444 L174.243,187.491 L174.243,179.933 L187.82,143.042 L217.129,141.146 L227.838,146.5 L221.228,135.791 L229.733,116.551 L219.64,125.39 L202.936,125.39 L177.086,101.743 L181.492,83.451 L257.402,82.913 L272.466,162.896 L226.121,210.65 L229.426,262.683 L240,542 L247.19,542 L237.471,263.631 L236.036,213.981 L284.764,162.435 L269.776,82.811 L268.803,77.405 L264.755,72.794 L261.578,70.206 L249.589,16.303 L225.635,0.855 L207.368,4.621 L198.914,13.665 L187.18,4.954 L155.335,15.048 L151.595,28.523 L151.236,28.268 L139.58,16.918 L103.943,36.158 L104.353,36.44 L74.942,45.945 L63.593,75.56 L66.129,78.711 L74.763,93.571 L74.02,145.885 Z" id="Fill-7" fill="#161B24"></path>
                    <polyline id="Fill-9" fill="#161B24" points="188.894795 442.686963 186.374333 512.913 178.216734 307.913 194.465266 309.793595 188.894795 442.686963"></polyline>
                    <path d="M238.219,276.717 L301.844,358.121 C301.844,358.121 236.347,365.606 237.282,362.8 C238.219,359.992 238.219,276.717 238.219,276.717" id="Fill-10" fill="#161B24"></path>
                    <polyline id="Fill-12" fill="#DC3C53" points="339.732 374.268 8.282 484.285 9.226 399.614 340.646 289.638 339.732 374.268"></polyline>
                    <polyline id="Fill-15" fill="#161B24" points="109.899 228.364 197.219 212.43 110.303 205.209 109.899 228.364"></polyline>
                    <path d="M21.556,378.268 C21.477,379.652 20.707,380.96 18.966,381.738 C12.203,384.764 15.063,381.438 7.5,382.5 L7.25,432.75 L173.859,378.164 L285.34,321.902 L335.35,321.902 L341.601,291.973217 L151.781,343.987 L21.556,378.268 Z" id="Fill-17" fill="#DC3C53"></path>
                    <polygon id="Fill-19" fill="#DC3C53" points="174.709 439.999 341.601 401.803454 340.343 372.16661 56.214 457.813 8.764 484.189"></polygon>
                    <path d="M225.374,536.386779 C225.374,535.386724 220.691,510.387 220.691,510.387 C220.691,510.387 214.669,538.38689 214,540.387 L225.374,536.386779" id="Fill-21" fill="#161B24"></path>
                    <polyline id="Fill-40" fill="#161B24" points="108.096 241.383 148.157 230.224 108.096 231.901 108.096 241.383"></polyline>
                    <polyline id="Fill-42" fill="#161B24" points="172.039 104.254 183 142 207 133 172.039 104.254"></polyline>
                    <polyline id="Fill-43" fill="#161B24" points="108.042 57.909 140 128 125.079 129.489 108.042 57.909"></polyline>
                    <polyline id="Fill-44" fill="#161B24" points="205.831 30.394 219.333 81 206 80.333 200.667 35.667 205.831 30.394"></polyline>
                    <polyline id="Fill-45" fill="#161B24" points="103.943 143.656 115 157 176.591 146.253 177.615 133.447 130.459 128.208 103.943 143.656"></polyline>
                    <polyline id="Fill-46" fill="#161B24" points="151.092 130.348 164.591 109.349 168.341 139.347 151.092 130.348"></polyline>
                    <polyline id="Fill-47" fill="#161B24" points="165.333 141.667 169.333 181 173.005 181.463 183 142 165.333 141.667"></polyline>
                </g>
                <path d="M152.249747,271.982011 C151.863038,273.600123 151.50856,275.218212 151.186302,276.836325 C150.864045,278.454437 150.493455,280.088084 150.07452,281.737315 C148.463233,280.15032 146.85197,278.610024 145.240683,277.116381 C143.629396,275.622739 142.050359,274.051326 140.503523,272.402095 C140.922458,270.286102 141.284992,268.185699 141.591136,266.100822 C141.897281,264.015946 142.211477,261.915543 142.533734,259.79955 C144.918439,258.056967 147.295052,256.298851 149.663644,254.525151 C152.032236,252.75145 154.312173,250.822191 156.503523,248.737315 C155.955685,250.511015 155.472307,252.308027 155.053372,254.128404 C154.634437,255.948781 154.215509,257.792468 153.796574,259.659521 C152.378642,260.748636 150.936562,261.783279 149.47029,262.763482 C148.004019,263.743685 146.561939,264.747211 145.144006,265.77409 C146.336359,266.800969 147.520637,267.835612 148.696876,268.87805 C149.873116,269.920488 151.057394,270.955131 152.249747,271.982011 Z M168.703186,271.206804 C165.714597,275.605977 162.64657,280.115061 159.499013,284.734193 L151.58247,282.895976 C152.281927,281.984719 153.195977,280.751398 154.324646,279.195976 C155.453316,277.640555 156.70914,275.888767 158.092157,273.940562 C159.475175,271.992357 160.945602,269.902782 162.503484,267.671772 C164.061365,265.440763 165.619224,263.17051 167.177105,260.860944 C168.734987,258.551379 170.253104,256.281125 171.731502,254.050116 C173.2099,251.819107 174.553155,249.713821 175.761308,247.734193 C176.047449,247.922729 176.516397,248.103406 177.168163,248.276231 C177.81993,248.449056 178.535273,248.598311 179.314214,248.724002 C180.093155,248.849692 180.872084,248.951815 181.651025,249.030371 C182.429966,249.108928 183.073774,249.179628 183.58247,249.242473 C182.628665,250.656493 181.555651,252.251169 180.363394,254.02655 C179.171138,255.80193 177.923262,257.647984 176.619728,259.564766 C175.316195,261.481549 173.988836,263.43758 172.637612,265.432919 C171.286388,267.428258 169.974926,269.352867 168.703186,271.206804 Z M201.716847,272.403094 C199.38153,274.134584 197.038358,275.850307 194.687261,277.550316 C192.336165,279.250324 190.087666,281.123454 187.941699,283.16976 C188.415074,281.312344 188.833216,279.439214 189.196137,277.550316 C189.559058,275.661418 189.898305,273.772548 190.213888,271.883649 C191.665572,270.813274 193.148792,269.774395 194.663593,268.766983 C196.178393,267.75957 197.677392,266.736432 199.160634,265.697538 C198.08765,264.753089 197.006793,263.792913 195.91803,262.816983 C194.829268,261.841052 193.748411,260.880876 192.675427,259.936427 C192.833219,258.110492 193.014676,256.316065 193.219806,254.553094 C193.424935,252.790122 193.622171,250.995695 193.811522,249.16976 C195.452555,250.869769 197.125122,252.538271 198.829273,254.175316 C200.533424,255.812361 202.237548,257.480863 203.941699,259.180871 C203.499882,261.416068 203.097519,263.619749 202.734598,265.791983 C202.371677,267.964216 202.03243,270.167897 201.716847,272.403094 Z" id="&lt;/&gt;" fill="#000000" fill-rule="nonzero" transform="translate(172.222611, 266.234193) rotate(-9.000000) translate(-172.222611, -266.234193) "></path>
                <polygon id="Path-2" stroke="#161B24" stroke-width="3" fill="#DC3C53" points="180.958105 82 180 95.3363148 203.721872 97 214 82"></polygon>
                <polygon id="Rectangle" fill="#161B24" points="91 536 240 536 240 542 90.5485241 542"></polygon>
                <polygon id="Path-3" stroke="#161B24" stroke-width="7" points="8.764 382.456361 7.25 484.189 176.145 439.455322 341.601 401.803454 340.343 373.931344 340.343 314.3488 340.343 293.267742 153.915 342.79223"></polygon>
            </g>
            <path d="M161.204525,474.957765 L160.336432,458.997577 C159.797781,456.818537 159.180547,454.457924 158.484713,451.916023 C157.788878,449.375527 157.058306,446.831291 156.292975,444.283348 C155.527644,441.736956 154.784246,439.280484 154.062759,436.913718 C153.341272,434.548312 152.709769,432.456408 152.168231,430.637514 C151.626693,428.819406 151.175982,427.367088 150.816082,426.280161 L150.276235,424.650364 L159.418191,417.429936 L162.66887,430.541227 C162.994566,431.856759 163.303455,433.149855 163.595546,434.420517 C163.887638,435.691475 164.171473,436.884196 164.447062,437.998677 L165.142294,440.811278 C165.264404,438.956647 165.402225,436.668552 165.555762,433.94681 C165.709298,431.224735 165.828929,428.591192 165.914657,426.046224 C166.026637,423.064977 166.122113,419.926472 166.201088,416.630659 L176.659817,416.84892 C175.924437,421.669419 175.22496,426.451262 174.561364,431.194825 C174.308213,433.250211 174.028569,435.378916 173.722424,437.58091 L172.803993,444.183647 C172.497848,446.383499 172.197127,448.514204 171.90182,450.575864 C171.606514,452.637039 171.343127,454.555679 171.111653,456.331957 C171.226572,457.704351 171.320112,459.216364 171.392276,460.868018 C171.46444,462.519767 171.528352,464.092754 171.584014,465.587005 C171.617999,467.355418 171.630906,469.128669 171.622735,470.906766 L161.204525,474.957765 Z M204.341678,422.477536 C205.361702,426.663619 205.958843,430.700193 206.13312,434.585268 C206.307398,438.470873 206.167982,442.108013 205.714868,445.495494 C205.261755,448.881771 204.530312,451.981279 203.52052,454.793334 C202.510727,457.603149 201.34112,460.069716 200.011663,462.193105 C198.682205,464.314251 197.232467,466.029138 195.662406,467.338258 C194.092344,468.645719 192.496613,469.485873 190.875165,469.859593 C189.503171,470.175408 188.178178,470.143798 186.900146,469.765307 C185.622115,469.387168 184.414979,468.670768 183.278705,467.616514 C182.14243,466.563183 181.095792,465.114545 180.13876,463.270898 C179.181727,461.428632 178.367362,459.139197 177.695639,456.402575 C176.999038,453.566128 176.556155,450.510661 176.366975,447.235281 C176.177796,443.960392 176.202715,440.661372 176.441731,437.337281 C176.680747,434.012559 177.185739,430.782965 177.956722,427.647435 C178.727705,424.509987 179.721933,421.650361 180.939437,419.068041 C182.156941,416.483228 183.607993,414.307087 185.292638,412.539654 C186.977283,410.769867 188.900542,409.609802 191.062471,409.060491 C192.933372,408.584372 194.597101,408.659298 196.053708,409.286335 C197.510315,409.914092 198.765077,410.891055 199.818034,412.217536 C200.870991,413.545115 201.773097,415.114776 202.524381,416.926544 C203.275664,418.739379 203.881424,420.589788 204.341678,422.477536 Z M184.507747,451.798066 C184.592109,452.345618 184.767631,452.90538 185.034313,453.477429 C185.300983,454.049612 185.621633,454.537689 185.996276,454.941662 C186.370908,455.345752 186.812355,455.676572 187.320632,455.934107 C187.828901,456.191727 188.345005,456.282588 188.868969,456.20659 C190.833875,455.921128 192.461842,454.892612 193.752982,453.120305 C195.044269,451.346315 196.020061,449.259776 196.680334,446.861243 C197.340682,444.461847 197.748773,441.946506 197.904553,439.315906 C198.06032,436.685459 197.977405,434.322016 197.655764,432.225999 C197.563853,431.627286 197.4315,430.983864 197.258698,430.295755 C197.085885,429.607768 196.855166,428.980017 196.566533,428.412498 C196.277888,427.845121 195.893377,427.382227 195.412989,427.023788 C194.93259,426.665474 194.34272,426.541211 193.643377,426.650832 C192.244714,426.869793 191.01675,427.469222 189.959477,428.448808 C188.902275,429.427577 188.005632,430.647887 187.269515,432.109842 C186.533461,433.57107 185.944503,435.187151 185.5026,436.958373 C185.060734,438.729189 184.721035,440.509647 184.483475,442.300019 C184.245924,444.090277 184.144578,445.822048 184.17941,447.495648 C184.214221,449.169483 184.323666,450.603601 184.507747,451.798066 Z M232.923518,444.158855 C233.033036,447.227947 232.793769,449.920201 232.20571,452.234709 C231.617652,454.548158 230.75235,456.547114 229.609778,458.231299 C228.467206,459.913972 227.142837,461.258961 225.63663,462.266528 C224.130424,463.272882 222.550203,463.970918 220.89592,464.36116 C219.920317,464.591046 218.877247,464.634062 217.766679,464.490429 C216.656111,464.346901 215.605329,463.987121 214.6143,463.411323 C213.623272,462.835954 212.720755,462.024624 211.906723,460.977479 C211.092691,459.93099 210.494419,458.618739 210.111888,457.040547 L209.963813,456.429763 C209.914454,456.226183 209.886304,456.017571 209.879363,455.803914 C209.543105,453.677288 209.208009,451.093574 208.874064,448.052871 C208.540118,445.012961 208.196538,441.841758 207.843312,438.539255 C207.490086,435.237664 207.176197,431.913879 206.901636,428.567656 C206.627075,425.222153 206.370449,422.181995 206.131751,419.446938 C205.893053,416.712391 205.709308,414.434658 205.580511,412.613425 C205.451714,410.792375 205.380375,409.668781 205.366493,409.242473 C206.232581,408.913481 207.262154,408.515515 208.455243,408.048403 C209.648331,407.580856 210.762738,407.160021 211.798497,406.785987 C213.07642,406.295393 214.333117,405.809789 215.568623,405.329179 C215.958871,411.75693 216.33446,417.569692 216.695401,422.767269 C216.831911,424.999806 216.979023,427.229899 217.136742,429.457641 C217.29446,431.685657 217.430197,433.7304 217.543955,435.591851 C217.657713,437.453467 217.755274,439.062729 217.83664,440.419627 C217.918006,441.776611 217.983175,442.881124 218.032149,443.733159 C218.081123,444.585226 218.161331,445.65923 218.272774,446.955264 C218.384218,448.25141 218.563335,449.409802 218.810129,450.430538 C219.007564,451.247268 219.34073,451.882917 219.809637,452.337533 C220.278544,452.792313 220.767495,452.958647 221.276505,452.836377 C221.997603,452.663074 222.508148,452.17519 222.808154,451.372649 C223.108161,450.56992 223.3,449.644355 223.383677,448.596018 C223.467354,447.547612 223.463111,446.506987 223.370948,445.474217 C223.278785,444.441521 223.228462,443.628655 223.219978,443.035541 C223.116632,441.491728 223.004996,439.774264 222.885068,437.883138 C222.76514,435.992188 222.626705,434.024886 222.469757,431.981228 C222.31281,429.93782 222.146611,427.856442 221.971154,425.737063 C221.795697,423.617974 221.621978,421.552841 221.449992,419.541587 C221.085196,414.876439 220.662179,410.06548 220.180927,405.108966 L229.666977,401.83195 L229.830093,403.904996 C229.938837,405.28718 230.088841,407.119906 230.280108,409.403395 C230.471375,411.687223 230.704864,414.286119 230.980581,417.200373 C231.256298,420.11525 231.506754,423.159228 231.731957,426.332344 C231.957159,429.506015 232.180622,432.62633 232.402354,435.693361 C232.624085,438.760919 232.797805,441.582791 232.923518,444.158855 Z M275.63849,417.658011 C276.603049,423.035009 276.86072,427.865396 276.411511,432.145253 C275.962302,436.423642 275.079877,440.133635 273.764211,443.274066 C272.448544,446.41133 270.82632,448.905415 268.89749,450.756694 C266.96866,452.605201 265.000769,453.773894 262.99376,454.264283 C261.44669,454.641742 259.874208,454.586373 258.276267,454.098956 C256.678326,453.612105 255.166876,452.653324 253.741871,451.223317 C252.316867,449.794853 251.009709,447.888364 249.820359,445.504263 C248.631009,443.12233 247.629592,440.232294 246.816079,436.834034 C245.22603,430.198119 244.612903,424.221457 244.976681,418.896656 C245.340458,413.57036 246.309111,408.957825 247.882667,405.056486 C249.456223,401.150418 251.400379,398.043063 253.715193,395.73481 C256.030007,393.422469 258.358135,391.951674 260.699646,391.324624 C262.372154,390.876062 263.911404,390.84706 265.317442,391.238364 C266.72348,391.6301 267.968531,392.326669 269.052633,393.328393 C270.136734,394.330954 271.050609,395.600078 271.794285,397.135831 C272.53796,398.67246 273.125494,400.347864 273.556902,402.161887 L265.445146,406.448545 C264.575793,404.480168 263.722764,403.140156 262.886032,402.427829 C262.0493,401.71596 261.233726,401.46516 260.439284,401.674984 C259.393967,401.950876 258.462917,403.168907 257.646108,405.328261 C256.829299,407.486263 256.222465,410.149262 255.825589,413.317629 C255.428712,416.485029 255.266882,419.892062 255.340093,423.53971 C255.413304,427.187563 255.808684,430.699526 256.526246,434.076946 C257.290456,437.280272 258.222633,439.471221 259.322806,440.64919 C260.422979,441.828144 261.579332,442.267306 262.7919,441.965731 C263.628154,441.757577 264.434126,441.282263 265.209839,440.539543 C265.985553,439.796377 266.614793,438.855866 267.097578,437.717998 C267.580364,436.579709 267.911182,435.314328 268.090042,433.921991 C268.268902,432.529463 268.200513,431.075718 267.884873,429.561129 L261.46979,432.503554 L260.831049,424.521235 C262.722291,423.70875 264.571691,422.905803 266.379307,422.112432 C267.90656,421.445065 269.515541,420.70084 271.206299,419.879522 C272.897057,419.057136 274.374439,418.316532 275.63849,417.658011 Z M305.341678,395.303706 C306.361702,399.644643 306.958843,403.834553 307.13312,407.871455 C307.307398,411.908886 307.167982,415.691419 306.714868,419.217865 C306.261755,422.743107 305.530312,425.97335 304.52052,428.907915 C303.510727,431.840241 302.34112,434.417588 301.011663,436.640032 C299.682205,438.860232 298.232467,440.659491 296.662406,442.038302 C295.092344,443.415455 293.496613,444.307071 291.875165,444.714026 C290.503171,445.057962 289.178178,445.040114 287.900146,444.661026 C286.622115,444.28229 285.414979,443.55098 284.278705,442.467502 C283.14243,441.384948 282.095792,439.890245 281.13876,437.983693 C280.181727,436.078521 279.367362,433.706646 278.695639,430.868048 C277.999038,427.925847 277.556155,424.752998 277.366975,421.348603 C277.177796,417.944699 277.202715,414.513349 277.441731,411.05361 C277.680747,407.59324 278.185739,404.228979 278.956722,400.959758 C279.727705,397.688618 280.721933,394.704123 281.939437,392.005753 C283.156941,389.30489 284.607993,387.026666 286.292638,385.171118 C287.977283,383.313215 289.900542,382.086937 292.062471,381.493313 C293.933372,380.978847 295.597101,381.039498 297.053708,381.676332 C298.510315,382.313886 299.765077,383.316572 300.818034,384.684702 C301.870991,386.053929 302.773097,387.676368 303.524381,389.552044 C304.275664,391.428787 304.881424,393.346085 305.341678,395.303706 Z M287.664992,426.091053 C287.854395,426.632551 288.135524,427.167796 288.508393,427.696863 C288.881277,428.226064 289.290674,428.658343 289.736597,428.9937 C290.182532,429.329174 290.679671,429.57615 291.228027,429.734613 C291.776392,429.89316 292.299935,429.879918 292.798662,429.694784 C294.668837,429.000059 296.063969,427.616293 296.984023,425.54274 C297.903901,423.467506 298.453654,421.138152 298.633363,418.555222 C298.812982,415.971431 298.722764,413.321096 298.362787,410.604895 C298.002826,407.888847 297.460958,405.494165 296.737219,403.421267 C296.530452,402.829159 296.275333,402.199713 295.971857,401.532952 C295.668395,400.866311 295.319914,400.272997 294.926408,399.753005 C294.532916,399.233155 294.065823,398.839558 293.525113,398.572189 C292.984417,398.304944 292.382037,398.298966 291.717938,398.554089 C290.389711,399.064054 289.302949,399.927348 288.457585,401.143668 C288.162867,401.567384 287.892993,402.017062 287.647963,402.492705 C287.190082,403.381528 286.818954,404.361022 286.534576,405.431218 C286.097939,407.073392 285.83566,408.843483 285.747757,410.741784 C285.659811,412.639679 285.673883,414.526479 285.789997,416.402456 C285.906099,418.27832 286.144299,420.066552 286.50463,421.767468 C286.864986,423.46862 287.251769,424.909793 287.664992,426.091053 Z M316.145116,438.913948 C315.745268,432.833705 315.322198,426.84571 314.875892,420.949894 C314.695223,418.469087 314.489812,415.882833 314.259654,413.191151 C314.029496,410.499934 313.798173,407.851657 313.56568,405.246231 C313.333186,402.641261 313.077468,400.127273 312.798517,397.704231 C312.519566,395.281698 312.255674,393.066092 312.006835,391.057247 C311.00861,391.161458 310.024699,391.373858 309.05507,391.694337 C308.085441,392.014586 307.076785,392.121148 306.029071,392.014265 C305.872902,391.160842 305.66491,390.181694 305.405092,389.076878 C305.145273,387.972278 304.906351,386.862188 304.68832,385.746548 C304.445544,384.525961 304.184213,383.226787 303.90432,381.849037 C305.015534,381.654402 306.120545,381.433325 307.219386,381.185769 C308.318228,380.938018 309.410867,380.663754 310.497336,380.362937 C312.628487,379.772188 314.671014,379.134929 316.624979,378.451095 C318.578944,377.766292 320.38044,377.094935 322.029522,376.43714 C323.678604,375.778559 325.287041,375.088285 326.854884,374.366273 L327.16755,378.850472 C327.243177,380.127627 327.335436,381.428432 327.444329,382.752952 C327.553222,384.07758 327.629257,385.2138 327.672438,386.161589 C326.827352,386.733773 325.95018,387.215714 325.040897,387.607499 C324.131614,387.999022 323.242071,388.427121 322.37224,388.891781 C322.500388,390.772321 322.654036,392.857345 322.83319,395.14701 C323.012343,397.436983 323.220498,399.803911 323.457662,402.247961 C323.694826,404.692445 323.951712,407.174317 324.228328,409.693717 C324.504944,412.21364 324.756811,414.627829 324.983938,416.936262 C325.540201,422.37363 326.181546,427.988475 326.90799,433.781627 L316.145116,438.913948 Z M351.145116,429.552284 C350.745268,423.393615 350.322198,417.328467 349.875892,411.356771 C349.695223,408.844002 349.489812,406.224484 349.259654,403.498236 C349.029496,400.772454 348.798173,398.090173 348.56568,395.451306 C348.333186,392.812895 348.077468,390.266739 347.798517,387.812802 C347.519566,385.359374 347.255674,383.115537 347.006835,381.081125 C346.00861,381.190205 345.024699,381.408851 344.05507,381.736952 C343.085441,382.064823 342.076785,382.17633 341.029071,382.071712 C340.872902,381.207578 340.66491,380.216239 340.405092,379.097753 C340.145273,377.979484 339.906351,376.855576 339.68832,375.725969 C339.445544,374.490114 339.184213,373.174696 338.90432,371.779725 C340.015534,371.578679 341.120545,371.350866 342.219386,371.096248 C343.318228,370.841435 344.410867,370.559784 345.497336,370.251254 C347.628487,369.645376 349.671014,368.992694 351.624979,368.293142 C353.578944,367.592621 355.38044,366.906259 357.029522,366.234172 C358.678604,365.561298 360.287041,364.856467 361.854884,364.11963 L362.16755,368.66145 C362.243177,369.95506 362.335436,371.272571 362.444329,372.614048 C362.553222,373.955633 362.629257,375.106459 362.672438,376.066501 C361.827352,376.649116 360.95018,377.140424 360.040897,377.54051 C359.131614,377.940336 358.242071,378.377151 357.37224,378.85094 C357.500388,380.755689 357.654036,382.86751 357.83319,385.186563 C358.012343,387.505923 358.220498,389.90314 358.457662,392.378381 C358.694826,394.854057 358.951712,397.367534 359.228328,399.918954 C359.504944,402.470897 359.756811,404.915804 359.983938,407.253652 C360.540201,412.76021 361.181546,418.446225 361.90799,424.312529 L351.145116,429.552284 Z M369.414599,425.536434 C368.798978,417.778456 368.193299,410.164887 367.597544,402.695321 C367.282469,399.568907 366.981604,396.310269 366.69494,392.919303 C366.408277,389.529053 366.109868,386.185872 365.799707,382.889688 C365.489545,379.594258 365.180028,376.39977 364.871148,373.306094 C364.562267,370.213123 364.270159,367.388299 363.994815,364.831399 L374.016367,360.987942 C374.168237,364.970062 374.367794,369.111427 374.615043,373.412416 C374.862292,377.714187 375.13736,381.893741 375.440257,385.951294 L381.485039,383.296649 C381.194532,379.284513 380.868783,375.413087 380.507782,371.682357 C380.146781,367.952615 379.905195,364.059661 379.783017,360.002907 C380.701355,359.504899 381.734175,359.016442 382.881509,358.537477 C384.028843,358.058127 385.095094,357.616545 386.080293,357.212799 C387.065492,356.808775 387.895967,356.464283 388.571743,356.179421 L389.585401,355.751879 C389.553779,358.364061 389.606373,361.197414 389.743186,364.252297 C389.879999,367.307486 390.052109,370.468464 390.259522,373.735468 C390.466934,377.002967 390.704676,380.305677 390.972756,383.643816 C391.240835,386.982609 391.513824,390.146976 391.79173,393.136978 C392.439395,400.309239 393.187341,407.63096 394.035591,415.103287 L384.522869,419.24339 C384.326565,415.832451 384.085725,412.520768 383.800343,409.308378 C383.626467,406.585499 383.438335,403.751509 383.235942,400.806391 C383.033548,397.861709 382.829394,395.350744 382.623474,393.273327 L376.66777,395.7095 C376.843997,397.848359 377.041957,400.326922 377.261653,403.145398 C377.48135,405.964328 377.701631,408.639533 377.922503,411.17106 L378.540894,420.335426 L369.414599,425.536434 Z M405.77861,414.858302 C405.409896,414.959155 404.708556,415.224118 403.674569,415.652976 C402.640581,416.08151 401.571879,416.548428 400.46843,417.05368 C399.364981,417.558524 398.371091,418.018589 397.48673,418.433992 C396.602369,418.849125 396.125465,419.095192 396.056004,419.172398 C396.011204,416.674298 395.90715,413.915203 395.743839,410.89524 C395.580528,407.875636 395.396275,404.716312 395.191074,401.417274 C394.985872,398.118729 394.750834,394.785314 394.485953,391.417045 C394.221071,388.049428 393.970901,384.795011 393.735434,381.653614 C393.162859,374.351875 392.526147,366.867821 391.825279,359.201886 L400.943996,354.333402 C401.550453,361.992808 402.125713,369.51825 402.669795,376.909611 C402.905262,380.060858 403.155432,383.325467 403.420314,386.703619 C403.685195,390.082422 403.964319,393.428547 404.257695,396.742137 C404.55107,400.056433 404.82261,403.27496 405.072323,406.39771 C405.322036,409.521026 405.557463,412.341236 405.77861,414.858302 Z M430.964618,386.344668 C431.655575,389.422203 431.825538,392.342213 431.474511,395.103113 C431.123484,397.863316 430.377062,400.368561 429.235225,402.61806 C428.093387,404.865712 426.583183,406.776191 424.704566,408.349341 C422.825949,409.920363 420.677172,411.039557 418.258172,411.707676 C416.560629,412.175834 414.730473,412.054991 412.767651,411.346331 C410.80483,410.638678 408.74838,409.218271 406.598242,407.08681 L408.625288,393.909911 C409.082759,394.535327 409.69184,395.13283 410.45255,395.702517 C411.213261,396.272522 412.026634,396.726414 412.892695,397.064133 C413.758755,397.402066 414.603211,397.644541 415.426086,397.791472 C416.248962,397.938492 416.95746,397.928624 417.5516,397.761748 C418.060863,397.618656 418.566661,397.360058 419.069009,396.985886 C419.571356,396.611578 420.006582,396.139561 420.374698,395.569808 C420.742814,394.999904 421.000017,394.388355 421.146313,393.735204 C421.29261,393.081984 421.279389,392.371909 421.106649,391.605081 C420.810525,390.290743 420.207103,389.166025 419.296365,388.231149 C418.385627,387.296894 417.328099,386.463303 416.123749,385.730375 C414.919398,384.998094 413.627106,384.277053 412.246832,383.567284 C410.866558,382.85824 409.569452,382.068141 408.355474,381.197006 C407.141497,380.326649 406.034616,379.281538 405.034797,378.061728 C404.034978,376.842813 403.337662,375.364139 402.94283,373.625369 C402.301227,370.800936 402.360606,367.976945 403.120969,365.151153 C403.881332,362.323805 405.047692,359.737792 406.620085,357.392219 C408.192478,355.044001 410.028492,353.00672 412.128183,351.28038 C414.227874,349.55148 416.317433,348.375644 418.396924,347.754109 C419.542766,347.411262 420.665034,347.264552 421.763761,347.314217 C422.862487,347.363941 423.872627,347.673571 424.794211,348.243367 C425.715795,348.813556 426.535101,349.633662 427.252154,350.703836 C427.969206,351.774572 428.53131,353.213382 428.938481,355.020289 C429.11122,355.787016 429.23091,356.569579 429.297552,357.367957 C429.364195,358.166373 429.453785,359.016464 429.566324,359.918282 L421.113299,366.081894 C421.099468,365.6198 421.075027,365.160827 421.039977,364.704966 C421.004927,364.249116 420.938049,363.802628 420.839341,363.365502 C420.469185,361.726559 419.978027,360.604259 419.365852,359.998443 C418.753676,359.3929 418.086871,359.196636 417.365415,359.409362 C417.025906,359.509433 416.649151,359.794974 416.235138,360.265909 C415.821125,360.736705 415.428711,361.302766 415.057883,361.964082 C414.687055,362.625222 414.412091,363.3598 414.232983,364.167892 C414.053875,364.97588 414.05686,365.788669 414.241938,366.606444 C414.538062,367.915113 415.071285,368.922482 415.841623,369.628671 C416.61196,370.33526 417.507871,370.947554 418.529382,371.465566 C419.550893,371.983972 420.64974,372.494868 421.825955,372.998306 C423.002171,373.502186 424.15654,374.260742 425.289098,375.274295 C426.421656,376.288689 427.487219,377.659091 428.485819,379.385851 C429.484419,381.113862 430.310677,383.433414 430.964618,386.344668 Z M443.334138,383.641 C442.095911,383.998099 440.869892,384.409352 439.656044,384.874704 L436.01452,386.268381 C435.838781,379.200461 435.637118,372.170042 435.409523,365.177103 C435.181929,358.185308 435.001614,351.151681 434.868573,344.075662 C435.643256,343.668099 436.535343,343.224823 437.544862,342.745734 C438.554381,342.266316 439.568464,341.756213 440.587141,341.215374 C441.605819,340.674158 442.598554,340.169463 443.565375,339.701326 C444.532196,339.232881 445.33889,338.812936 445.98548,338.441584 C445.215746,345.992781 444.657976,353.519789 444.312152,361.024555 C443.966329,368.527462 443.640328,376.066153 443.334138,383.641 Z M447.669856,396.76918 C447.908018,397.837078 447.967992,398.95566 447.849779,400.124746 C447.731566,401.293733 447.427929,402.380473 446.93886,403.384809 C446.44979,404.388794 445.75542,405.270933 444.855729,406.031148 C443.956038,406.790874 442.856347,407.352532 441.556623,407.716251 C440.676166,407.96245 439.829434,407.960693 439.016403,407.711206 C438.203373,407.461865 437.492143,407.020477 436.882693,406.387127 C436.273243,405.754055 435.7362,404.996856 435.271548,404.115521 C434.806896,403.23448 434.468028,402.318412 434.254935,401.367176 C434.016773,400.304204 433.913793,399.24791 433.945992,398.198108 C433.978191,397.148281 434.171718,396.171712 434.526579,395.268217 C434.881441,394.364492 435.390277,393.55066 436.053105,392.826612 C436.715933,392.102221 437.592379,391.584535 438.682469,391.273617 C441.11421,390.579176 443.110341,390.828644 444.67092,392.023925 C446.2315,393.220556 447.231135,394.802474 447.669856,396.76918 Z" id="YOUGOTTHIS!" stroke="#161B24" stroke-width="2" fill="#FFFFFF" fill-rule="nonzero"></path>
        </g>
    </g>
</svg>