<?xml version="1.0" encoding="UTF-8" standalone="no"?>
<!DOCTYPE svg PUBLIC "-//W3C//DTD SVG 1.1//EN" "http://www.w3.org/Graphics/SVG/1.1/DTD/svg11.dtd">
<svg width="100%" height="100%" viewBox="0 0 1265 1493" version="1.1" xmlns="http://www.w3.org/2000/svg" xmlns:xlink="http://www.w3.org/1999/xlink" xml:space="preserve" xmlns:serif="http://www.serif.com/" style="fill-rule:evenodd;clip-rule:evenodd;">
    <g id="logo" transform="matrix(1,0,0,1,-1,-24)">
        <g id="Group-9" transform="matrix(1,0,0,1,82,117)">
            <g id="Group-6" transform="matrix(1,0,0,1,252,295)">
                <g id="Group-5">
                    <path id="Line-4" d="M142.609,1130.62C128.454,999.936 117.333,890.397 109.246,802.001C101.159,713.605 94.539,652.229 89.386,617.875C58.671,545.917 37.488,495.653 25.837,467.081C14.186,438.51 9.949,402.796 13.127,359.939C3.065,348.298 -1.172,336.129 0.417,323.431C2.8,304.383 8.388,312.33 8.361,300.415C8.287,268.56 6.362,259.86 13.127,239.304C18.786,222.108 31.84,190.404 53.64,174.225C60.783,168.923 73.674,166.099 92.31,165.752C103.601,113.729 120.367,83.484 142.609,75.019C154.332,70.557 168.631,68.97 185.505,70.257C194.508,43.802 219.928,27.929 261.765,22.638C267.993,21.85 278.849,24.496 294.334,30.574C311.281,5.178 335.906,-4.346 368.21,2.003C400.515,8.352 418.785,29.516 423.022,65.495C476.898,54.591 508.143,63.585 516.758,92.479C527.879,129.781 519.014,170.203 514.375,222.637C510.779,263.268 508.254,301.602 501.665,323.431C494.827,346.081 482.447,371.427 462.74,405.177C446.748,432.565 425.027,465.262 404.751,508.351C399.107,520.346 393.546,546.272 388.07,586.129C404.929,670.198 417.639,729.721 426.199,764.7C434.759,799.678 472.095,921.651 538.206,1130.62L142.609,1130.62Z" style="fill-rule:nonzero;"/>
                    <path id="Line-41" serif:id="Line-4" d="M149.122,1130.62C135.615,981.162 125.003,864.258 117.285,779.907C109.568,695.556 103.252,636.989 98.335,604.207C69.025,535.542 48.811,487.578 37.694,460.314C26.576,433.05 22.533,398.97 25.565,358.075C15.964,346.967 11.921,335.355 13.437,323.237C15.711,305.062 21.043,312.644 21.017,301.275C20.947,270.878 19.11,262.576 25.565,242.961C30.965,226.552 43.422,196.298 64.224,180.859C71.041,175.8 83.341,173.105 101.125,172.775C111.899,123.132 127.898,94.272 149.122,86.193C160.309,81.936 174.458,80.673 191.571,82.407C199.151,56.657 222.903,41.258 262.825,36.21C268.768,35.458 279.128,37.982 293.904,43.783C310.075,19.548 333.573,10.46 364.399,16.519C395.225,22.578 412.66,42.773 416.702,77.105C468.113,66.7 497.928,75.283 506.149,102.855C516.761,138.449 508.302,177.022 503.875,227.057C500.444,265.828 498.034,302.407 491.746,323.237C485.222,344.851 473.408,369.038 454.603,401.242C439.343,427.378 418.616,458.578 399.268,499.695C393.882,511.141 386.707,540.482 377.743,587.716C395.548,674.444 408.534,734.497 416.702,767.874C424.871,801.252 461.93,922.167 527.879,1130.62L149.122,1130.62Z" style="fill:rgb(68,26,14);fill-rule:nonzero;"/>
                    <path id="Line-42" serif:id="Line-4" d="M152.936,1132.21C137.789,964.469 126.523,840.247 119.14,759.541C111.756,678.835 105.712,622.799 101.008,591.433C72.965,525.735 53.624,479.843 42.987,453.758C32.35,427.672 28.482,395.065 31.383,355.936C22.196,345.308 18.328,334.198 19.779,322.604C21.954,305.213 27.056,312.469 27.031,301.59C26.964,272.507 25.207,264.563 31.383,245.796C36.549,230.096 48.468,201.15 68.371,186.378C74.893,181.538 86.662,178.959 103.678,178.643C116.209,128.4 132.629,99.414 152.936,91.685C163.639,87.612 177.673,86.553 195.038,88.511C202.384,62.125 225.156,46.516 263.354,41.685C269.04,40.966 279.896,44.67 295.923,52.797C310.913,27.423 333.156,17.635 362.65,23.432C392.144,29.228 409.09,49.599 413.49,84.543C463.349,71.919 492.211,78.797 500.076,105.177C510.23,139.234 504.312,174.765 500.076,222.637C496.793,259.734 492.588,306.675 486.572,326.605C480.329,347.285 462.462,379.125 444.47,409.939C429.869,434.945 411.348,463.455 392.836,502.795C387.683,513.747 380.533,540.731 371.388,583.748C386.393,661.333 397.804,716.093 405.619,748.028C413.434,779.963 451.54,908.023 519.935,1132.21L152.936,1132.21Z" style="fill:rgb(252,181,121);fill-rule:nonzero;"/>
                </g>
                <path id="Line-5" d="M49.336,245.837C54.923,269.26 59.163,285.412 62.057,294.292C71.506,323.294 82.854,339.012 101.015,341.914C127.517,346.148 144.744,334.238 152.694,306.183C144.896,299.936 140.39,294.114 139.178,288.714C133.673,264.184 131.413,242.876 127.252,225.987C122.986,208.667 116.803,196.017 109.761,191.05C101.18,184.998 81.169,180.157 68.417,187.08C60.893,191.165 51.087,204.134 39,225.987C40.547,212.687 42.932,203.158 46.156,197.402C50.991,188.768 48.005,184.715 65.237,179.14C70.802,177.34 74.621,174.929 81.139,174.376C85.762,173.984 93.978,174.513 105.786,175.964L120.892,184.698C119.832,179.581 119.302,176.14 119.302,174.376C119.302,172.611 119.832,167.583 120.892,159.289C122.56,171.053 123.885,178.993 124.867,183.11C131.247,209.848 136.512,224.869 139.178,236.309C145.074,261.604 148.241,285.409 152.694,294.292C160.223,309.308 186.882,312.535 194.833,309.359C206.836,304.564 211.9,303.055 220.275,294.292C228.65,285.53 228.226,286.652 228.226,274.422C228.226,262.192 221.56,260.12 220.275,249.808C215.608,212.363 215.36,175.108 211.529,154.525C206.644,128.274 198.429,105.247 186.882,85.446C191.081,86.093 193.732,86.093 194.833,85.446C195.934,84.799 197.79,80.829 200.398,73.536C202.505,89.613 204.36,99.935 205.964,104.502C215.227,130.876 222.963,145.705 224.25,159.289C226.509,183.11 226.509,224.877 228.226,236.309C231.406,257.483 238.297,272.305 248.898,280.774C261.619,280.774 272.485,278.128 281.495,272.834C290.506,267.541 298.987,258.542 306.937,245.837C309.588,220.958 310.913,201.902 310.913,188.668C310.913,175.435 309.588,158.231 306.937,137.057C290.43,120.085 282.479,104.999 283.085,91.798C283.995,71.996 287.856,54.479 310.913,50.509C326.284,47.862 358.882,55.538 408.706,73.536L415.066,85.446L388.034,77.506C393.865,88.622 392.54,97.621 384.059,104.502C375.578,111.384 353.846,107.149 318.863,91.798C318.777,81.939 317.982,75.058 316.478,71.153C314.975,67.249 311.794,63.808 306.937,60.831C297.126,68.631 292.886,78.953 294.216,91.798C295.547,104.643 302.172,117.347 314.093,129.911C320.967,134.612 325.473,138.053 327.609,140.233C329.746,142.413 337.431,151.412 350.666,167.23C360.737,171.464 370.808,172.258 380.879,169.612C390.949,166.965 401.02,160.083 411.091,148.967C407.922,158.225 405.007,164.313 402.345,167.23C399.684,170.147 391.733,175.969 378.493,184.698C396.258,185.754 408.449,185.225 415.066,183.11C421.684,180.995 435.995,173.055 458,159.289C443.974,174.325 431.783,184.118 421.427,188.668C411.071,193.219 396.76,195.071 378.493,194.226L384.059,202.96C391.303,205.607 396.603,206.931 399.96,206.931C403.317,206.931 414.183,205.607 432.558,202.96C420.376,208.968 410.305,212.674 402.345,214.077C394.385,215.48 387.23,215.954 380.879,215.5L380.879,225.987C380.879,228.81 380.083,232.251 378.493,236.309L421.427,280.774L372.133,245.837C370.44,249.385 369.115,251.767 368.157,252.984C367.2,254.201 365.61,255.524 363.387,256.954C366.518,266.415 368.904,272.238 370.543,274.422C372.182,276.606 378.012,283.229 388.034,294.292C378.16,289.504 370.739,284.999 365.772,280.774C360.805,276.55 356.565,270.198 353.051,261.718C336.942,270.939 325.546,278.35 318.863,283.95C312.18,289.551 299.724,301.726 281.495,320.475C295.183,297.883 306.049,282.532 314.093,274.422C328.084,260.317 352.457,249.086 355.436,245.837C363.761,236.761 364.252,235.088 368.157,225.987C372.063,216.886 372.133,218.031 372.133,206.931C372.133,199.53 370.808,192.119 368.157,184.698C356.493,183.352 347.748,180.441 341.92,175.964C336.093,171.487 327.612,161.165 316.478,144.997C318.69,160.949 320.015,172.33 320.454,179.14C322.863,216.605 321.362,238.767 318.863,245.837C315.683,254.836 305.877,266.482 289.446,280.774C279.375,287.656 269.039,291.096 258.438,291.096C247.837,291.096 240.947,287.656 237.767,280.774C234.232,290.057 231.052,296.409 228.226,299.831C225.399,303.252 219.834,307.487 211.529,312.535C205.494,329.597 197.278,340.978 186.882,346.678C176.486,352.378 157.67,355.819 130.433,357C151.975,351.745 167.347,346.716 176.546,341.914C185.746,337.111 193.697,329.965 200.398,320.475C190.127,320.329 182.706,319.8 178.137,318.887C173.567,317.974 167.737,315.857 160.645,312.535C159.336,324.348 156.685,332.289 152.694,336.356C132.322,357.116 103.115,360.876 85.909,350.648C63.647,337.414 51.456,302.477 49.336,245.837Z" style="fill:rgb(68,26,14);fill-rule:nonzero;"/>
                <path id="Line-12" d="M319.5,59.5C323.903,65.142 326.569,69.475 327.5,72.5C328.431,75.525 328.431,80.192 327.5,86.5C352.167,96.5 368,100.333 375,98C382,95.667 383.667,88.5 380,76.5L319.5,59.5Z" style="fill:rgb(186,58,58);fill-rule:nonzero;"/>
                <path id="Line-6" d="M271,306C250.541,334.964 237.689,364.98 232.443,396.05C227.197,427.12 233.623,459.77 251.721,494C232.574,474.515 223,445.289 223,406.319C223,367.35 239,333.91 271,306Z" style="fill:rgb(68,26,14);fill-rule:nonzero;"/>
                <path id="Line-7" d="M255,452C262.338,476.557 269.172,495.086 275.5,507.588C281.828,520.091 288.662,528.561 296,533C282.333,529.294 272.083,520.824 265.25,507.588C258.417,494.353 255,475.824 255,452Z" style="fill:rgb(68,26,14);fill-rule:nonzero;"/>
                <path id="Line-8" d="M213,364C207.667,378.143 205,390.976 205,402.5C205,414.024 207.667,426.857 213,441" style="fill:rgb(68,26,14);fill-rule:nonzero;"/>
                <path id="Line-9" d="M104.5,624.5C123.184,625.635 135.962,624.82 142.833,622.054C147.746,620.076 160.862,609.247 179.25,598.154C184.139,595.204 192.056,591.486 203,587C190.029,596.231 180.793,603.135 175.292,607.714C166.171,615.304 158.238,625.855 151.542,629.224C141.37,634.342 129.55,636.921 116.081,636.961C113.801,636.968 110.274,636.814 105.5,636.5L104.5,624.5Z" style="fill:rgb(68,26,14);fill-rule:nonzero;"/>
                <path id="Line-10" d="M377,565C356.797,584.034 340.051,598.046 326.759,607.034C313.468,616.023 288.215,625.011 251,634C277.756,629.703 298.224,624.944 312.405,619.724C326.586,614.504 347.054,603.136 373.81,585.621L377,565Z" style="fill:rgb(68,26,14);fill-rule:nonzero;"/>
                <path id="Line-11" d="M399,491C379.5,519.048 361.845,538.1 346.034,548.155C330.223,558.21 308.878,564.825 282,568C313.622,568 338.128,561.385 355.52,548.155C363.991,541.71 382.627,527.111 388.723,518.784C393.002,512.937 396.428,503.676 399,491Z" style="fill:rgb(68,26,14);fill-rule:nonzero;"/>
            </g>
            <g id="Group-10">
                <g id="Line-14" transform="matrix(1,0,0,1,31,429)">
                    <g id="path-4" transform="matrix(1,0,0,1,5,7)">
                        <path d="M199,62.737C185.832,104.113 178.066,133.287 175.702,150.26C173.114,168.849 173.114,198.023 175.702,237.782L15.726,292C1.747,231.586 -2.912,179.692 1.747,136.318C6.407,92.944 13.914,47.505 24.268,0L199,62.737Z" style="fill:rgb(101,10,11);fill-rule:nonzero;"/>
                    </g>
                    <path id="Shape" d="M208.765,71.254C195.678,112.373 187.968,141.336 185.655,157.95C183.124,176.125 183.124,205.01 185.692,244.458L185.941,248.286L17.1,305.508L15.855,300.127C1.759,239.207 -2.949,186.77 1.776,142.784C6.455,99.227 13.991,53.611 24.383,5.935L25.596,0.369L210.226,66.66L208.765,71.254Z" style="fill:none;stroke:rgb(255,240,234);stroke-width:10px;"/>
                    <path id="Shape1" serif:id="Shape" d="M197.158,73.125L33.32,14.299C23.687,59.398 16.653,102.601 12.216,143.906C7.781,185.19 11.939,234.51 24.737,291.833L174.947,240.926C172.606,202.965 172.697,174.871 175.255,156.501C177.575,139.843 184.869,112.114 197.158,73.125Z" style="fill:none;stroke:rgb(190,91,91);stroke-width:11px;"/>
                </g>
                <g id="Line-13" transform="matrix(1,0,0,1,733,0)">
                    <g id="path-5" transform="matrix(1,0,0,1,7,6)">
                        <path d="M138.588,0L0,236.241C34.974,256.043 60.408,273.916 76.301,289.861C92.195,305.807 119.445,338.186 158.053,387L429,236.241C392.147,181.325 346.211,131.849 291.191,87.813C236.171,43.777 185.303,14.506 138.588,0Z" style="fill:rgb(101,10,11);fill-rule:nonzero;"/>
                    </g>
                    <path id="Shape2" serif:id="Shape" d="M147.071,1.225C194.446,15.936 245.842,45.511 301.315,89.91C356.726,134.259 403.01,184.109 440.152,239.455L443.18,243.968L163.768,399.436L161.131,396.102C122.639,347.434 95.477,315.159 79.76,299.391C64.243,283.823 39.15,266.189 4.537,246.592L0.118,244.09L143.282,0.049L147.071,1.225Z" style="fill:none;stroke:rgb(255,240,234);stroke-width:10px;"/>
                    <path id="Shape3" serif:id="Shape" d="M148.106,12.577L14.56,240.224C47.449,259.156 71.644,276.375 87.197,291.979C102.879,307.713 129.263,338.989 166.463,385.921L428.076,240.356C392.119,187.885 347.684,140.471 294.754,98.107C241.867,55.778 192.965,27.282 148.106,12.577Z" style="fill:none;stroke:rgb(190,91,91);stroke-width:11px;"/>
                </g>
                <path id="Line-16" d="M878,1L980,128L848,49.315L878,1Z" style="fill:rgb(70,21,22);fill-rule:nonzero;stroke:white;stroke-width:11px;stroke-linecap:square;stroke-linejoin:round;"/>
                <path id="Line-17" d="M174,572L240,496.059L200.493,478L174,572Z" style="fill:rgb(70,21,22);fill-rule:nonzero;stroke:white;stroke-width:11px;stroke-linecap:round;stroke-linejoin:round;"/>
                <g id="Line-15" transform="matrix(1,0,0,1,0,12)">
                    <path id="path-6" d="M171.693,557C189.303,442.548 261.295,351.401 387.669,283.558C514.044,215.716 641.454,228.663 769.9,322.399L975,116.541C903.526,61.128 826.096,26.171 742.709,11.67C564.479,-19.324 405.955,13.947 295.996,81.584C111.614,195 12.948,347.776 0,539.91L171.693,557Z" style="fill:rgb(101,10,11);fill-rule:nonzero;"/>
                    <path id="path-61" serif:id="path-6" d="M171.693,557C189.303,442.548 261.295,351.401 387.669,283.558C514.044,215.716 641.454,228.663 769.9,322.399L975,116.541C903.526,61.128 826.096,26.171 742.709,11.67C564.479,-19.324 405.955,13.947 295.996,81.584C111.614,195 12.948,347.776 0,539.91L171.693,557Z" style="fill:none;stroke:rgb(255,240,234);stroke-width:21px;"/>
                    <path id="Shape4" serif:id="Shape" d="M167.088,551.014C186.324,437.151 259.148,346.311 385.068,278.712C512.113,210.51 640.501,222.761 769.319,315.19L966.685,117.094C897.289,64.419 822.336,31.099 741.767,17.089C573.887,-12.105 414.68,15.037 298.878,86.269C117.667,197.734 20.14,347.169 5.868,534.967L167.088,551.014Z" style="fill:none;stroke:rgb(190,91,91);stroke-width:11px;"/>
                </g>
                <g id="YOUGOTTHIS" transform="matrix(1,0,0,1,40,62)">
                    <path id="Shape5" serif:id="Shape" d="M61.781,466.168C49.138,460.482 48.416,460.336 34.69,460.919C26.924,461.357 16.268,461.211 11.03,460.774C2.723,460.045 1.458,459.461 0.375,456.108C-1.251,450.568 2.723,433.801 6.335,431.614C7.96,430.593 11.753,430.156 15.004,430.739L20.603,431.614L13.559,425.49C7.418,420.533 6.335,418.492 5.793,412.66C5.432,405.662 7.78,397.06 11.03,393.706C13.74,391.082 21.325,395.893 31.258,406.099C39.205,414.555 44.804,419.95 55.279,429.719C58.349,432.634 65.573,436.863 71.172,439.195C86.163,445.611 88.872,448.818 87.788,459.607C86.704,468.355 83.815,472 77.674,472C76.049,472 69.005,469.376 61.781,466.168Z" style="fill:white;fill-rule:nonzero;"/>
                    <path id="Shape6" serif:id="Shape" d="M65.53,421.018C45.186,413.379 24.447,393.588 18.917,376.922C9.831,349.319 22.669,325.188 47.754,323.104C60.79,322.063 76.591,328.833 92.393,342.722C108.787,356.957 115.305,368.589 115.897,384.387C116.292,390.984 115.502,398.449 114.317,400.88C109.774,410.081 101.083,419.629 94.368,422.407C85.282,426.226 78.567,425.879 65.53,421.018ZM80.179,381.289C80.179,372.558 60.789,356.669 53.271,359.288C47.929,361.034 50.105,369.939 57.821,376.924C64.944,383.384 75.826,388.797 78.596,387.226C79.586,386.702 80.179,384.083 80.179,381.289Z" style="fill:white;fill-rule:nonzero;"/>
                    <path id="Shape7" serif:id="Shape" d="M112.877,349.25C105.65,345.924 82.764,326.799 60.48,305.347C48.033,293.373 47.832,292.542 53.855,282.564C55.26,280.236 58.874,276.244 61.685,273.75C65.7,270.091 67.707,269.426 70.317,270.757C72.325,271.754 85.173,281.899 99.025,293.207C114.483,306.178 124.722,313.495 125.926,312.498C128.335,310.502 122.513,304.515 96.214,281.732C81.961,269.426 74.934,262.109 74.934,259.615C74.934,252.131 88.184,236 94.608,236C98.423,236 150.218,279.903 158.449,290.214C166.479,300.358 169.089,313.495 165.274,324.97C162.464,333.119 149.816,346.256 141.384,349.749C133.354,352.908 120.907,352.742 112.877,349.25Z" style="fill:white;fill-rule:nonzero;"/>
                    <path id="Shape8" serif:id="Shape" d="M174.616,281.348C164.138,278.723 156.487,272.349 146.342,258.288C132.039,238.04 124.887,213.854 127.548,195.481C129.378,182.545 138.525,165.671 146.176,161.172C149.169,159.484 153.66,156.297 156.155,154.235C163.307,148.235 168.629,148.61 173.119,155.36C178.275,163.234 180.271,170.733 180.105,181.045C179.938,189.107 179.606,189.482 171.955,193.606C166.966,196.418 163.473,199.793 162.475,202.793C157.319,217.604 175.614,243.664 186.425,236.915C188.92,235.415 188.92,234.665 186.425,229.228C184.928,225.853 182.267,221.166 180.604,218.729C175.947,212.167 176.612,206.543 183.098,200.168C192.412,190.981 195.073,190.794 201.56,199.231C204.72,203.168 207.215,207.292 207.381,208.23C207.381,209.355 210.707,215.167 214.865,221.354C218.857,227.541 223.514,235.227 225.177,238.602C228.004,244.414 228.004,244.601 221.851,254.913C218.524,260.538 211.871,268.599 207.048,272.536C194.242,283.035 187.922,284.91 174.616,281.348Z" style="fill:white;fill-rule:nonzero;"/>
                    <path id="Shape9" serif:id="Shape" d="M235.736,232.192C229.594,230.833 219.446,219.381 214.105,207.929C210.099,199.389 200.219,168.528 201.153,167.169C201.421,166.781 201.02,164.452 200.352,162.317C199.551,160.181 198.884,153.194 199.017,146.595C199.284,110.881 224.119,82.737 246.017,93.218C248.554,94.382 254.429,100.788 259.102,107.387C265.912,116.898 268.849,123.109 274.19,139.219C280.733,159.017 280.866,159.599 281,178.038C281,193.372 280.599,198.225 278.33,203.853C274.991,212.976 268.449,221.128 259.77,227.533C253.227,232.386 243.59,234.205 235.736,232.192ZM250.133,182.998C251.508,177.984 251.508,173.355 250.27,168.726C249.583,166.026 248.757,162.554 248.482,160.625C247.52,154.454 240.644,142.11 237.344,140.953C231.431,138.831 228.818,142.496 228.818,152.718C228.956,169.69 239.269,189.363 246.695,186.47C248.207,186.084 249.72,184.349 250.133,182.998Z" style="fill:white;fill-rule:nonzero;"/>
                    <path id="Shape10" serif:id="Shape" d="M319.125,195.87C316.773,194.928 291.846,115.232 291.375,112.783C290.435,106.377 289.964,106.189 282.753,110.71C276.638,114.478 276.011,114.478 272.405,111.841C266.762,107.131 262.842,97.145 261.274,82.261C260.334,73.971 260.804,73.594 279.617,63.609C299.371,53.246 307.523,48.725 314.421,44.58C317.557,42.507 321.633,41 323.358,41C329.942,41 339.035,61.725 338.408,75.29C338.251,80.377 339.212,81.826 336.102,83.601C335.788,83.036 330.569,85.652 328.061,87.348C322.887,90.362 322.26,94.884 325.866,102.986C327.12,106 328.374,110.334 328.845,112.783C329.315,115.232 333.234,127.855 337.624,140.855C350.793,179.29 350.637,178.725 346.56,183.624C342.798,188.145 322.417,197.189 319.125,195.87Z" style="fill:white;fill-rule:nonzero;"/>
                    <g id="Shape11" serif:id="Shape" transform="matrix(0.999391,-0.0348995,0.0348995,0.999391,-3.28572,23.7613)">
                        <path d="M660.867,199.061C653.512,198.86 640.896,190.556 636.518,186.599C633.919,184.226 620.104,168.401 617.505,161.083C616.684,158.709 616,154.753 616,152.181C616,141.104 631.594,113.016 637.749,113.016C639.117,113.016 642.537,116.972 645.41,121.917C648.282,126.665 649.78,127.904 651.702,129.632C655.063,133.401 665.244,142.291 665.244,136.95C665.244,136.159 661.004,129.236 655.806,121.719C644.042,104.313 641.169,96.005 641.443,80.18C641.716,65.938 642.4,61.982 647.051,48.136C649.103,42.004 652.659,35.476 655.806,32.312C661.105,24.508 671.4,15.696 676.187,14.905C678.102,14.509 681.796,13.52 684.395,12.531C690.14,10.553 710.698,14.593 714.388,16.583C717.641,18.338 722.55,21.839 729.535,26.971C724.693,23.144 733.091,29.542 736.238,33.894C745.266,46.356 743.898,56.444 730.629,74.642C721.054,87.895 717.361,90.071 712.983,85.126C705.323,76.422 691.234,68.708 691.234,73.059C691.234,74.048 693.559,77.807 696.295,81.565C707.375,96.4 711.616,103.917 715.582,115.785C720.917,132.005 720.917,143.478 715.446,158.313C711.342,169.984 699.6,185.646 697.116,188.182C695.954,189.368 693.612,191.679 690.876,194.448C688.14,197.217 681.929,199.447 679.604,199.645C665.241,200.634 668.222,199.262 660.867,199.061Z" style="fill:white;fill-rule:nonzero;"/>
                    </g>
                    <path id="Shape12" serif:id="Shape" d="M587.408,166.147C583.379,165.613 579.08,164.722 578.006,164.366C576.931,164.01 573.842,163.12 571.29,162.585C568.737,162.051 562.961,160.626 558.529,159.558C554.096,158.489 548.723,157.599 546.574,157.421C540.933,157.065 537.306,150.298 538.112,141.216C538.515,137.298 539.052,132.49 539.455,130.531C539.858,128.572 540.261,125.544 540.261,123.942C540.395,122.339 541.873,118.777 543.619,115.928C546.305,111.832 547.783,111.12 552.081,111.476C557.32,112.01 557.32,112.01 558.797,103.462C559.738,98.832 566.32,47.545 564.976,48.079C564.439,48.435 562.297,47.517 560,46.5C557.703,45.483 555.344,45.988 553.962,41C553.04,37.674 553.04,33.03 553.962,27.065C554.231,18.874 554.223,15.137 554.894,11.592C555.566,8.047 556.384,3.915 558.529,1.422C561.081,-0.893 567.26,-0.003 585.662,1.422C597.482,2.312 608.631,3.381 610.377,3.915C612.124,4.449 616.288,5.34 619.646,5.696C628.242,7.12 630.66,11.572 629.854,24.394C629.586,29.915 629.183,34.545 628.914,34.901C628.78,35.079 628.645,35.791 628.377,36.682C626.63,45.586 625.69,47.901 622.869,51.463C620.72,54.134 618.034,55.38 614.407,55.38C609.169,55.38 609.169,55.38 607.691,64.463C606.885,69.449 599.363,117.887 598.826,118.777C598.423,119.846 600.035,120.736 602.452,121.092C605.676,121.449 609.987,122.601 612.155,127.245C617.741,139.216 610.243,155.818 607.557,161.161C606.701,164.056 604.679,167.343 601,168C596.307,168.838 589.667,166.546 587.408,166.147Z" style="fill:white;fill-rule:nonzero;"/>
                    <path id="Shape13" serif:id="Shape" d="M392.53,160.233C389.726,155.929 382.918,115.39 381.449,93.865C381.182,89.919 380.114,82.027 379.18,76.287C377.311,64.807 378.646,65.524 365.83,69.112C361.291,70.547 357.286,63.91 355.417,51.713C353.148,37.363 353.548,30.905 357.019,27.856C359.556,25.704 371.437,20.86 379.714,18.529C381.049,18.17 383.185,17.632 384.386,17.094C385.588,16.556 388.124,15.838 389.993,15.3C391.862,14.941 399.205,12.789 406.547,10.816C413.756,8.842 420.164,7.587 420.831,8.125C424.97,11.533 429.375,30.905 428.975,42.923C428.574,50.816 426.705,53.327 420.03,54.762C417.093,55.3 414.156,56.197 413.622,56.735C411.887,58.17 413.622,73.776 422.166,130.278C425.237,150.727 424.703,153.955 417.894,158.798C415.625,160.413 409.484,162.027 404.144,162.565C396.001,163.462 394.399,163.103 392.53,160.233Z" style="fill:white;fill-rule:nonzero;"/>
                    <path id="Shape14" serif:id="Shape" d="M448.545,154.393C444.233,153.682 440.06,152.614 439.226,151.903C437.835,150.836 437.278,134.115 437.278,101.565C437.278,99.252 437.417,92.493 437.417,86.445C437.417,80.22 437.278,60.832 437.139,43.4L437,11.383L440.756,7.825C443.816,4.979 447.015,4.09 458.282,3.734C477.061,3.023 477.2,3.201 476.922,32.728L476.644,54.784L490.415,54.784L490.554,48.203C490.554,44.467 490.554,34.684 490.415,26.324C490.276,12.628 490.554,10.849 493.475,7.469C498.065,2.133 517.4,-0.891 527.416,2.311C532.702,3.912 533.397,10.493 532.841,56.563C532.562,80.576 532.284,110.458 532.284,122.909C532.145,135.361 531.589,147.1 530.754,149.057C528.668,153.859 520.322,156.35 507.385,155.816C491.945,155.105 490.276,152.97 490.554,135.005L490.554,113.838L490.415,106.189L483.877,106.723L477.478,107.257L477.2,127.001C477.061,137.851 476.366,147.812 475.809,149.057C474.14,152.436 465.933,156.172 460.925,155.994C458.422,155.816 452.858,155.105 448.545,154.393Z" style="fill:white;fill-rule:nonzero;"/>
                </g>
            </g>
            <g id="_-" serif:id="!" transform="matrix(0.766044,0.642788,-0.642788,0.766044,322.486,-475.641)">
                <path d="M838.711,254.18C835.336,257.621 833.462,256.824 821.468,256.824C809.474,256.824 804.61,256.925 802.731,254.431C800.852,251.938 776.394,116.437 781.246,110.206C786.098,103.975 800.88,102.627 816.229,102.627C831.577,102.627 845.28,100.468 848.132,104.254C850.985,108.04 842.086,250.738 838.711,254.18ZM797.195,269.276C801.065,264.723 804.953,267.515 820.469,267.515C835.986,267.515 840.514,264.739 843.744,269.025C846.973,273.31 846.482,302.035 843.744,305.257C841.005,308.479 835.986,307.773 820.469,307.773C804.953,307.773 799.89,309.84 797.195,306.264C794.5,302.687 793.326,273.83 797.195,269.276Z" style="fill:white;fill-rule:nonzero;"/>
            </g>
        </g>
        <g id="_---i-" serif:id="&lt;-/i&gt;" transform="matrix(0.990268,-0.139173,0.139173,0.990268,-158.6,73.8138)">
            <path d="M533.174,1125.57C535.264,1125.57 536.578,1129.86 537.115,1138.45L535.771,1139.7L534.517,1139.7L529.322,1135.86L508.809,1158.93L510.063,1160.1L510.063,1162.69L507.466,1166.54L529.322,1187.11L530.576,1187.11L530.576,1183.17L533.174,1183.17L537.115,1188.36C536.219,1195.16 534.906,1198.56 533.174,1198.56C523.201,1192.89 513.825,1184.36 505.047,1172.98C501.583,1172.98 499.852,1170.83 499.852,1166.54L496,1166.54C496,1161.88 499.016,1158.49 505.047,1156.34C515.02,1141.91 524.395,1131.65 533.174,1125.57ZM597.729,1110.22L601.675,1112.69L601.844,1120.17L589.9,1145.79C586.825,1152.38 586.34,1157.94 588.443,1162.48C587.788,1163.88 586.08,1163.94 583.32,1162.65L580.866,1165.16L569.523,1192.24L565.214,1201.48L563.705,1201.96L563.214,1203.01L563.778,1204.56L561.442,1208.15C562.849,1208.81 562.521,1210.05 556.568,1207.27C558.847,1201.98 560.666,1197.88 562.027,1194.96C568.075,1181.99 572.161,1171.46 574.286,1163.37L575.751,1162.77L576.176,1159.32C573.415,1158.03 572.363,1156.69 573.018,1155.28C573.724,1153.77 575.907,1153.54 579.569,1154.59L590.984,1130.11C594.815,1121.89 595.729,1117.32 593.726,1116.38C592.843,1111.32 594.177,1109.27 597.729,1110.22ZM652.736,1127.74L684.805,1161.19C688.268,1161.19 690,1163.69 690,1168.7C686.536,1168.7 684.805,1170.43 684.805,1173.89C681.46,1173.89 676.325,1179.01 669.398,1189.27L652.736,1200.72C650.169,1200.24 648.885,1196.84 648.885,1190.52L648.885,1189.27L652.736,1185.34C654.468,1185.34 655.334,1186.65 655.334,1189.27L656.678,1189.27L677.191,1168.7L675.847,1162.26L677.191,1161.19L655.334,1138.02L654.08,1138.02C654.08,1140.64 653.214,1141.96 651.482,1141.96C649.751,1141.96 648.885,1140.64 648.885,1138.02C649.482,1131.16 650.766,1127.74 652.736,1127.74Z" style="fill-rule:nonzero;"/>
        </g>
        <g id="Shape15" serif:id="Shape" transform="matrix(0.999391,0.0348995,-0.0348995,0.999391,20.0455,0.495635)">
            <path d="M60.201,559.292C55.253,556.983 49.59,554.509 47.336,553.739C45.962,553.3 43.213,552.145 41.234,551.265C39.254,550.331 36.066,549.011 34.086,548.242C32.107,547.472 29.798,546.537 28.864,546.152C21.716,542.909 19.187,541.864 17.043,541.094C15.669,540.655 11.985,539.06 8.796,537.631C5.608,536.201 2.364,534.882 1.539,534.662C-0.385,534.222 -0.385,533.562 1.155,523.062C1.759,518.828 2.474,513.66 2.749,511.626C2.969,509.537 3.354,507.723 3.519,507.503C4.013,507.063 32.437,503.599 36.066,503.544C37.605,503.544 46.127,502.665 54.978,501.565C63.83,500.521 71.417,499.751 71.801,499.916C72.736,500.246 72.791,504.094 72.021,510.032C70.702,520.093 70.317,520.588 61.52,521.687L54.703,522.512L54.043,527.735C52.834,536.696 52.669,536.256 59.376,539.005C63.445,540.655 65.369,541.754 65.809,542.634C67.073,545.053 66.414,552.695 64.544,557.863C63.61,560.392 62.95,560.612 60.201,559.292ZM40.959,523.392C40.849,523.282 36.725,523.556 31.832,523.941L22.981,524.711L27.544,526.69C30.073,527.79 34.031,529.384 36.286,530.319L40.409,531.968L40.794,527.79C40.959,525.481 41.014,523.501 40.959,523.392Z" style="fill:rgb(101,10,11);fill-rule:nonzero;"/>
            <path d="M56.627,470.722C49.645,469.513 38.375,464.62 33.317,460.607C28.864,457.088 24.685,451.04 23.091,445.872C21.551,441.034 21.606,433.777 23.146,429.159C24.575,424.926 28.644,417.339 30.348,415.799C34.636,411.841 38.924,412.666 44.147,418.328C48.051,422.507 48.271,424.376 45.357,427.785C41.453,432.348 41.069,436.856 44.202,441.364C46.951,445.268 49.315,446.587 57.177,448.676C62.07,449.941 64.379,449.611 68.063,446.917C71.362,444.553 72.681,441.639 72.791,436.306C72.846,432.623 73.066,431.798 73.946,431.193C75.485,430.204 82.852,429.324 85.766,429.819C91.264,430.698 92.033,432.183 91.703,440.979C91.484,446.367 91.209,447.797 89.724,451.645C86.261,460.332 82.192,464.84 74.495,468.413C72.681,469.293 69.877,470.228 68.228,470.558C65.314,471.107 59.321,471.162 56.627,470.722Z" style="fill:rgb(101,10,11);fill-rule:nonzero;"/>
            <path d="M82.742,420.857C75.98,419.483 68.833,414.975 64.489,409.367C60.971,404.804 60.201,402.44 60.201,396.337C60.256,392.214 60.476,391.224 62.015,387.87C63.665,384.407 65.259,382.098 68.338,378.799C70.207,376.82 75.045,374.786 79.388,374.181C88.9,372.861 102.094,379.074 107.702,387.651C110.616,392.104 111.221,394.413 110.946,400.186C110.726,404.089 110.396,405.409 108.912,408.432C106.658,412.776 103.469,416.679 100.445,418.658C96.267,421.407 89.669,422.232 82.742,420.857ZM91.923,402.55C94.672,400.186 93.133,396.612 88.24,393.918C82.577,390.729 80.048,390.784 78.344,394.138C77.574,395.677 77.574,395.952 78.619,397.931C79.443,399.581 80.433,400.46 82.852,401.615C87.965,404.034 89.889,404.254 91.923,402.55Z" style="fill:rgb(101,10,11);fill-rule:nonzero;"/>
            <path d="M118.753,378.634C117.433,377.645 115.179,376.105 113.75,375.171C110.836,373.301 99.345,365.494 97.421,364.12C96.267,363.24 96.157,363.295 95.057,364.67C93.683,366.429 91.429,366.539 88.185,365C81.038,361.536 78.564,354.334 83.237,350.65C83.897,350.156 84.996,349.166 85.766,348.506C86.481,347.846 88.185,347.077 89.449,346.692L91.813,346.087L91.868,342.459C91.868,337.895 93.023,335.146 96.926,330.089C99.455,326.79 100.445,325.91 102.589,325.195C107.592,323.491 113.365,324.371 118.753,327.615C120.402,328.604 122.216,329.814 122.766,330.308C123.371,330.803 124.855,331.793 126.175,332.563C127.439,333.332 131.837,336.191 135.851,338.885C139.864,341.634 143.603,344.053 144.153,344.383C144.702,344.658 145.142,345.482 145.142,346.197C145.142,348.066 141.459,354.389 138.6,357.468L136.181,360.052L133.652,358.567C132.277,357.797 129.308,355.873 127.054,354.334C124.855,352.794 122.601,351.31 122.161,350.98C121.667,350.705 118.973,348.891 116.169,347.022C109.296,342.404 107.042,342.404 106.273,346.967C105.998,348.836 106.108,348.946 109.736,351.2C111.825,352.52 114.519,354.279 115.729,355.159C116.938,356.038 120.952,358.732 124.635,361.151C128.319,363.57 131.508,365.769 131.673,366.099C132.167,366.869 129.034,372.697 126.615,375.445C125.405,376.82 124.141,378.469 123.756,379.184C122.876,380.833 121.612,380.723 118.753,378.634Z" style="fill:rgb(101,10,11);fill-rule:nonzero;"/>
            <path d="M148.661,334.322C147.451,333.222 143.108,329.704 139.095,326.515C135.026,323.326 131.288,320.357 130.793,319.918C130.298,319.478 129.528,318.873 129.089,318.543C128.594,318.268 127.439,317.444 126.505,316.729L124.8,315.464L123.811,317.114C123.096,318.433 122.491,318.818 121.117,318.818C119.357,318.818 117.708,317.773 113.695,313.925C111.331,311.726 111.111,310.571 112.65,308.427L113.75,306.943L109.736,302.709C105.173,297.926 104.129,295.452 104.623,290.559C105.008,286.821 106.383,284.127 110.176,279.674C113.31,275.99 118.863,272.087 120.897,272.087C122.766,272.087 128.099,280.058 128.099,282.862C128.099,283.247 127.604,283.742 126.944,283.907C125.295,284.457 121.502,287.975 121.502,289.02C121.502,289.955 123.756,293.528 124.36,293.528C124.58,293.528 125.79,292.154 127.109,290.504C130.463,286.216 132.002,286.381 137.335,291.494C140.799,294.903 140.964,296.222 138.27,299.026L136.291,301.06L141.953,305.458C145.087,307.932 148.221,310.571 148.936,311.341C149.705,312.111 150.585,312.77 150.915,312.77C151.245,312.77 153.169,314.2 155.203,315.959C157.237,317.663 159.766,319.808 160.811,320.632C161.856,321.512 162.735,322.557 162.735,322.996C162.735,325.635 154.159,336.411 152.069,336.411C151.465,336.411 149.925,335.476 148.661,334.322Z" style="fill:rgb(101,10,11);fill-rule:nonzero;"/>
            <path d="M166.034,306.173C162.625,305.843 157.897,303.974 156.083,302.215C155.643,301.83 154.379,300.84 153.279,300.015C150.695,298.036 146.462,292.483 144.647,288.58C142.833,284.677 142.393,277.529 143.713,273.021C145.472,267.029 154.269,258.507 159.821,257.462C162.79,256.913 169.443,257.517 171.367,258.507C174.226,259.991 178.569,264.335 179.833,266.974C180.768,268.953 180.933,270.162 180.823,273.681C180.603,277.529 180.383,278.244 178.624,280.938C177.524,282.587 175.325,285.336 173.731,287.096C170.707,290.394 170.652,291.329 173.456,291.329C176.04,291.329 182.142,283.467 183.407,278.409C183.572,277.639 184.067,277.035 184.507,277.035C186.211,277.035 191.709,279.509 193.138,280.993C194.622,282.423 194.732,282.807 194.348,285.171C193.853,288.745 192.423,291.714 189.345,295.837C182.747,304.469 176.645,307.163 166.034,306.173ZM164.22,280.223C166.309,278.189 166.529,276.375 164.824,275.165C163.12,273.956 162.02,274.066 160.701,275.55C159.601,276.705 159.217,277.639 159.382,279.069C159.436,279.729 161.581,281.983 162.13,281.983C162.295,281.983 163.23,281.213 164.22,280.223Z" style="fill:rgb(101,10,11);fill-rule:nonzero;"/>
            <path d="M196.272,267.578C182.692,253.394 183.737,254.329 182.362,255.318C179.723,257.188 176.535,255.978 172.961,251.745C168.453,246.412 168.563,242.508 173.346,239.265C175.16,238.055 176.26,237.725 178.679,237.725C180.328,237.725 182.307,237.945 183.022,238.165C184.232,238.66 184.287,238.55 183.902,236.956C182.967,232.612 186.321,225.08 190.059,223.376C194.567,221.232 197.371,222.826 200.615,229.369C202.979,234.097 203.474,236.901 202.045,236.901C201.605,236.901 200.45,237.615 199.516,238.44C198.086,239.705 197.811,240.254 198.141,241.464C198.471,242.838 203.034,247.896 214.03,259.002C216.669,261.696 218.813,264.225 218.813,264.665C218.813,265.929 207.103,277.035 205.838,277.035C205.563,277.035 201.275,272.801 196.272,267.578Z" style="fill:rgb(101,10,11);fill-rule:nonzero;"/>
            <path d="M228.159,245.862C225.465,245.367 219.033,241.959 216.559,239.759C213.535,237.066 208.642,230.138 207.487,226.895C206.938,225.3 206.663,222.441 206.663,218.373C206.663,212.93 206.828,211.886 208.037,209.302C210.016,205.178 215.019,200.285 219.363,198.196C222.551,196.657 223.486,196.492 227.884,196.492C234.537,196.492 238.275,198.251 241.904,203.089C244.378,206.333 244.378,206.388 244.543,211.391C244.708,215.624 244.598,216.779 243.608,218.648C242.453,220.902 239.155,224.531 234.921,228.214C232.447,230.358 232.612,230.853 235.966,230.853C238.275,230.853 243.718,225.575 245.642,221.397C246.467,219.638 247.456,218.208 247.896,218.208C249.161,218.208 255.153,221.617 256.253,223.046C256.803,223.816 257.298,225.19 257.298,226.125C257.298,230.193 249.051,240.474 243.443,243.278C238.55,245.752 232.832,246.687 228.159,245.862ZM227.609,218.758C229.808,216.724 229.918,216.449 229.314,215.239C228.929,214.525 227.994,213.59 227.224,213.205C225.96,212.49 225.74,212.6 224.256,214.25C223.376,215.239 222.661,216.394 222.661,216.889C222.661,217.548 224.531,220.462 225.19,220.902C225.19,220.957 226.29,219.967 227.609,218.758Z" style="fill:rgb(101,10,11);fill-rule:nonzero;"/>
            <path d="M266.204,217.548C265.214,216.229 263.4,213.865 262.081,212.27C260.816,210.621 259.222,208.532 258.562,207.597C257.902,206.608 257.023,205.398 256.528,204.903C255.923,204.244 251.635,198.746 249.766,196.217C249.656,196.107 249.051,196.272 248.501,196.657C246.192,198.086 244.048,197.481 241.409,194.677C237.56,190.719 236.406,185.111 238.55,181.538C239.814,179.503 243.938,178.074 248.446,178.074C251.14,178.074 251.25,178.019 251.25,176.535C251.25,174.391 254.933,168.838 257.902,166.419C265.379,160.371 271.977,159.821 277.804,164.769C281.543,167.958 289.185,176.81 289.185,177.909C289.185,178.239 289.57,178.844 290.119,179.229C290.614,179.668 293.198,182.912 295.837,186.431C298.531,189.949 300.95,192.973 301.28,193.193C301.555,193.358 301.83,194.128 301.83,194.842C301.83,195.832 301.005,196.822 298.971,198.361C297.377,199.571 295.177,201.33 294.133,202.209C292.044,204.024 288.855,205.233 287.755,204.574C287.206,204.244 284.512,200.835 277.969,192.203C271.977,184.287 268.513,180.273 267.578,180.273C266.754,180.273 263.895,183.627 263.895,184.616C263.895,185.111 265.214,187.145 266.809,189.18C268.348,191.159 270.492,193.853 271.427,195.172C273.846,198.416 276.54,201.935 279.399,205.453C283.192,210.126 283.192,209.796 279.509,213.04C277.749,214.635 275.66,216.284 274.891,216.669C274.121,217.054 272.746,217.933 271.812,218.593C269.393,220.407 268.238,220.187 266.204,217.548Z" style="fill:rgb(101,10,11);fill-rule:nonzero;"/>
            <path d="M306.558,183.187C302.929,182.087 298.146,178.789 295.507,175.545C294.298,174.061 293.033,172.521 292.593,172.136C290.724,170.157 288.305,164.055 287.59,159.272C286.876,155.148 287.7,149.815 289.515,145.967C291.054,142.668 296.057,137.83 300.015,135.796C305.019,133.157 311.011,132.992 313.595,135.356C315.739,137.28 317.938,143.658 317.608,146.901C317.499,148.386 317.004,149.815 316.619,150.09C316.179,150.365 314.035,150.53 311.781,150.475C307.987,150.365 307.657,150.475 306.448,151.904C304.414,154.214 304.799,156.303 308.152,161.361C310.186,164.385 312.001,165.814 314.365,166.309C316.344,166.694 320.412,164 322.392,161.031C323.161,159.821 324.096,158.832 324.426,158.832C326.515,158.832 333.882,165.704 334.542,168.343C334.982,169.992 333.992,171.971 331.188,175.27C328.769,178.074 321.897,182.747 318.983,183.572C316.069,184.342 309.692,184.177 306.558,183.187Z" style="fill:rgb(101,10,11);fill-rule:nonzero;"/>
            <path d="M342.733,160.206C340.589,159.821 337.895,158.887 336.686,158.117C333.772,156.248 328.384,150.915 327.889,149.375C327.669,148.716 327.065,147.506 326.46,146.737C324.371,143.823 322.721,137.94 322.776,132.992C322.776,123.206 327.505,116.389 337.401,111.99C344.658,108.747 352.739,110.176 357.852,115.619C360.217,118.148 362.306,123.481 362.306,126.999C362.306,130.188 360.986,134.641 360.052,134.641C359.777,134.641 359.557,134.971 359.557,135.411C359.557,136.511 355.983,139.534 351.42,142.283C347.572,144.592 347.462,144.702 348.341,145.692C349.716,147.176 351.255,146.956 354.334,144.867C357.523,142.723 359.667,140.744 362.086,137.665L363.845,135.466L365.934,136.566C367.089,137.17 368.958,138.6 370.113,139.754C373.026,142.613 373.026,145.087 370.058,148.771C367.309,152.179 365.055,154.269 360.931,157.072C358.347,158.832 356.698,159.546 353.234,160.206C348.121,161.141 347.901,161.141 342.733,160.206ZM343.888,133.267C347.352,131.288 347.627,129.583 344.878,127.769C343.778,126.999 343.228,126.944 341.964,127.494C339.765,128.429 339.05,130.298 340.095,132.717C340.534,133.762 341.029,134.641 341.249,134.641C341.414,134.641 342.624,134.037 343.888,133.267Z" style="fill:rgb(101,10,11);fill-rule:nonzero;"/>
            <path d="M388.255,116.389C368.958,77.299 367.749,74.715 368.078,73.671C368.243,73.121 368.903,72.406 369.618,72.076C388.42,62.785 400.241,57.122 400.9,57.122C402.22,57.122 403.759,59.266 406.508,64.764C408.157,68.173 409.037,70.537 408.927,71.581C408.762,73.231 408.212,73.561 397.382,78.894L393.203,80.983L395.348,85.326C396.557,87.69 397.712,89.559 397.931,89.449C398.151,89.339 400.515,88.185 403.154,86.865C406.948,84.941 408.212,84.501 408.927,84.941C410.521,85.931 414.645,93.848 414.92,96.377L415.195,98.741L411.566,100.72C409.532,101.874 407.608,102.754 407.223,102.754C406.838,102.754 406.068,103.084 405.518,103.469C404.639,104.129 404.914,104.953 409.532,114.354C412.281,119.962 414.535,124.965 414.535,125.405C414.535,126.175 412.886,128.044 412.171,128.044C412.006,128.044 410.796,128.759 409.477,129.638C406.288,131.783 400.625,134.092 398.646,134.092C396.997,134.092 396.832,133.762 388.255,116.389Z" style="fill:rgb(101,10,11);fill-rule:nonzero;"/>
            <path d="M439.22,110.286C434.492,108.692 433.282,107.812 429.929,103.799C424.761,97.586 422.232,90.659 422.232,82.687C422.232,77.134 423.441,72.956 425.915,69.712C428.279,66.578 430.424,64.984 435.537,62.62C442.189,59.541 450.765,59.871 455.494,63.5C456.483,64.214 457.473,64.819 457.803,64.819C458.517,64.819 460.277,66.743 462.641,70.317C467.644,77.684 469.733,86.206 468.468,93.903C468.084,96.212 467.314,98.961 466.764,100.06C465.17,103.194 459.562,107.922 455.933,109.241C448.676,111.88 444.663,112.155 439.22,110.286ZM449.831,92.308C451.315,90.769 451.48,90.384 451.15,88.405C450.93,87.195 450.106,84.611 449.226,82.687C446.807,77.409 443.563,76.145 440.924,79.498C439.495,81.313 439.55,83.237 441.034,87.195C442.354,90.769 445.158,93.958 446.972,93.958C447.632,93.958 448.896,93.188 449.831,92.308Z" style="fill:rgb(101,10,11);fill-rule:nonzero;"/>
            <path d="M483.862,95.992C483.587,95.222 482.708,92.418 481.883,89.779C481.113,87.085 479.189,80.873 477.65,76.035L474.791,67.128L472.757,67.403C469.953,67.788 468.303,65.974 467.094,61.246C465.939,56.517 465.994,54.043 467.369,51.844C469.678,48.106 476.605,47.941 480.619,51.569L482.323,53.109L483.917,49.92C486.226,45.247 490.625,42.333 495.463,42.278C498.322,42.278 499.146,42.718 500.026,44.862C501.015,47.171 501.62,55.748 500.96,57.947C500.521,59.486 500.301,59.596 497.992,59.596C492.714,59.651 492.549,61.575 496.672,74.44C499.971,84.941 501.95,91.374 501.95,91.923C501.95,92.913 491.779,96.322 486.941,96.981C484.577,97.311 484.302,97.201 483.862,95.992Z" style="fill:rgb(101,10,11);fill-rule:nonzero;"/>
            <path d="M810.267,85.711C804.275,83.952 800.921,82.192 798.447,79.498C795.258,76.09 795.203,73.726 798.172,68.668C800.866,64.049 802.13,63.775 805.869,67.018C807.298,68.283 809.388,69.822 810.487,70.372C812.906,71.581 815.875,71.746 815.875,70.647C815.875,69.932 811.147,65.369 808.618,63.61C807.903,63.115 806.474,61.081 805.484,59.046C803.78,55.638 803.67,55.088 803.89,50.91C804.11,46.237 805.429,42.333 807.463,40.519C808.013,40.024 809.827,38.924 811.477,38.045C814.171,36.67 815.05,36.505 819.723,36.56C824.122,36.56 825.771,36.835 830.279,38.375C836.052,40.299 839.736,42.608 840.725,44.807C841.55,46.566 840.395,49.04 837.261,52.449C834.678,55.253 833.138,55.583 831.324,53.659C829.894,52.064 824.397,50.58 823.462,51.514C822.637,52.339 824.452,54.483 828.41,57.452C831.654,59.871 835.172,64.049 836.162,66.633C838.746,73.396 833.578,83.127 825.991,85.876C822.362,87.14 815.16,87.085 810.267,85.711Z" style="fill:rgb(101,10,11);fill-rule:nonzero;"/>
            <path d="M538.73,81.862C534.992,81.203 532.353,79.773 531.033,77.684C529.439,75.1 529.439,69.712 531.088,65.369C532.353,62.015 532.958,61.575 535.047,62.675C536.751,63.555 540.49,63.445 542.689,62.4C544.778,61.411 547.032,58.112 547.032,56.078C547.032,55.418 546.427,51.844 545.713,48.161C544.998,44.477 543.953,38.87 543.404,35.791L542.414,30.073L540.765,30.458C536.586,31.338 533.507,31.392 532.903,30.678C532.023,29.578 530.539,23.586 530.154,19.517C529.879,16.438 529.989,15.889 531.033,14.844C531.638,14.239 532.848,13.69 533.727,13.69C534.552,13.69 539.28,12.81 544.283,11.765C549.231,10.666 554.289,9.841 555.554,9.951C557.478,10.116 557.863,10.391 558.687,12.04C559.182,13.085 560.502,18.528 561.601,24.135C562.701,29.743 564.735,39.859 566.109,46.676C569.683,64.049 569.518,67.018 564.57,73.396C560.117,79.223 547.417,83.347 538.73,81.862Z" style="fill:rgb(101,10,11);fill-rule:nonzero;"/>
            <path d="M771.343,77.959C765.79,77.024 762.546,76.31 762.271,75.815C762.106,75.54 763.206,68.503 764.745,60.091C767.604,44.257 767.604,43.982 765.185,43.928C761.337,43.928 761.887,32.492 765.9,28.204C766.89,27.104 767.714,26.884 770.078,26.884C771.728,26.884 773.762,27.269 774.586,27.654C776.621,28.699 779.48,32.052 779.919,33.812L780.249,35.186L781.459,34.086C782.063,33.482 784.043,32.327 785.857,31.502C788.551,30.293 789.595,30.073 792.289,30.348C794.049,30.513 796.358,31.118 797.292,31.667C799.052,32.712 799.107,32.822 799.107,36.56C799.107,40.574 797.622,44.532 794.818,47.996L793.499,49.645L791.465,48.436C788.276,46.566 787.012,46.786 785.912,49.59C785.417,50.855 784.043,57.342 782.833,63.995C781.679,70.647 780.579,76.639 780.414,77.354C780.139,78.399 779.809,78.564 777.225,78.509C775.686,78.454 772.992,78.234 771.343,77.959Z" style="fill:rgb(101,10,11);fill-rule:nonzero;"/>
            <path d="M587.936,73.396C584.032,72.241 581.448,70.647 579.799,68.118C578.095,65.589 576.17,59.981 576.17,57.672C576.17,56.792 575.456,49.81 574.521,42.168C573.641,34.581 572.872,27.929 572.872,27.434C572.872,26.115 576.72,25.18 583.977,24.85L589.86,24.52L590.135,26.389C590.355,27.434 591.18,34.251 592.059,41.563C592.939,48.876 593.983,55.363 594.313,55.968C595.083,57.397 596.842,57.452 599.151,56.023C600.086,55.418 600.911,54.868 600.911,54.758C600.911,54.648 600.196,48.326 599.261,40.739C597.117,22.871 597.117,23.751 599.701,23.091C602.67,22.266 612.291,21.277 613.446,21.661C614.27,21.881 614.6,22.981 615.095,27.599C615.48,30.678 616.305,37.715 616.964,43.268L618.119,53.274L620.208,53.274C623.012,53.274 624.056,54.868 624.386,59.761C624.716,64.104 623.946,67.513 622.077,69.602C620.868,71.032 620.538,71.142 616.579,71.087C612.786,71.032 612.181,70.867 610.312,69.327C608.333,67.733 608.223,67.678 607.563,68.778C607.178,69.382 605.144,70.702 602.945,71.746C598.162,74.001 592.389,74.66 587.936,73.396Z" style="fill:rgb(101,10,11);fill-rule:nonzero;"/>
            <path d="M728.185,72.736C721.258,71.032 718.839,69.767 715.76,66.194C711.032,60.751 710.097,57.617 710.482,47.886C710.757,39.144 711.472,36.725 715.21,31.118C721.148,22.321 732.968,19.737 743.744,24.795C747.207,26.444 749.736,28.699 752.265,32.437C754.684,36.011 755.069,38.155 755.069,46.951C755.014,54.868 754.959,55.363 753.365,59.156C751.551,63.445 746.273,70.042 744.239,70.592C743.579,70.812 742.149,71.362 741.105,71.856C739.181,72.736 730.549,73.286 728.185,72.736ZM734.233,55.693C735.772,55.088 737.421,51.02 737.641,47.226C737.971,42.333 736.707,39.859 733.683,39.639C730.604,39.364 729.285,40.904 728.46,45.742C727.25,52.944 729.779,57.397 734.233,55.693Z" style="fill:rgb(101,10,11);fill-rule:nonzero;"/>
            <path d="M689.81,69.272C686.896,69.052 684.257,68.613 684.038,68.338C683.763,68.063 683.763,63.5 683.983,58.222C684.257,52.944 684.587,42.498 684.807,35.021C685.027,25.73 685.357,21.167 685.797,20.507C686.402,19.682 687.391,19.627 695.088,20.012L703.72,20.397L703.72,29.028C703.72,38.1 702.29,68.613 701.85,69.052C701.356,69.547 695.143,69.657 689.81,69.272Z" style="fill:rgb(101,10,11);fill-rule:nonzero;"/>
            <path d="M634.612,68.888C634.062,68.668 633.897,64.929 633.897,52.944L633.897,37.33L631.698,37.33C628.84,37.33 627.685,35.626 627.41,31.063C627.135,26.719 628.07,23.256 630.104,21.222C631.698,19.627 631.863,19.627 635.877,19.847C639.45,20.067 640.385,20.397 642.584,21.936C644.178,23.036 645.333,23.531 645.773,23.256C649.621,20.342 651.326,19.847 658.253,19.352C662.981,19.022 668.479,20.177 670.403,21.881C671.887,23.146 674.361,28.369 675.021,31.557C675.351,33.097 675.791,41.948 676.011,51.185L676.396,68.063L674.801,68.503C672.932,68.998 660.012,69.107 659.462,68.613C659.297,68.393 658.968,61.411 658.748,53.054C658.363,38.595 658.308,37.88 657.208,36.725C656.274,35.846 655.614,35.626 654.349,35.956C651.216,36.615 651.216,36.67 651.216,53.494L651.216,68.943L643.244,69.052C638.846,69.107 634.942,68.998 634.612,68.888Z" style="fill:rgb(101,10,11);fill-rule:nonzero;"/>
            <path d="M689.315,15.944C687.611,15.779 686.072,15.449 685.907,15.284C685.687,15.119 685.742,11.71 685.907,7.752L686.292,0.495L688.161,0.165C690.415,-0.275 703.28,0.44 704.214,0.99C704.709,1.319 704.764,3.189 704.434,8.796L703.995,16.164L698.222,16.219C695.033,16.274 691.02,16.164 689.315,15.944Z" style="fill:rgb(101,10,11);fill-rule:nonzero;"/>
        </g>
        <g id="HiredLogo_Black" transform="matrix(0.208174,-0.0299483,0.0299483,0.208174,481.776,1304.3)">
            <path d="M167.805,225.373L167.805,285.543L142.725,285.543L142.725,142.771L167.805,142.771L167.805,202.131L235.946,202.131L235.946,142.771L261.026,142.771L261.026,285.543L235.946,285.543L235.946,225.373L167.805,225.373Z" style="fill-rule:nonzero;"/>
            <rect x="390.94" y="142.771" width="25.08" height="142.771"/>
            <path d="M637.533,285.543L602.443,235.775L571.035,235.775L571.035,285.543L545.934,285.543L545.934,142.771L609.584,142.771C642.417,142.771 662.616,160.102 662.616,188.05C662.616,211.722 648.549,225.988 628.553,231.502L667.106,285.543L637.533,285.543ZM607.547,165.619L571.035,165.619L571.035,213.545L607.744,213.545C625.684,213.545 637.118,204.168 637.118,189.473C637.118,173.767 626.1,165.619 607.547,165.619Z" style="fill-rule:nonzero;"/>
            <path d="M891.05,165.203L810.27,165.203L810.27,202.33L881.872,202.33L881.872,224.759L810.27,224.759L810.27,263.112L892.057,263.112L892.057,285.543L785.187,285.543L785.187,142.771L891.05,142.771L891.05,165.203Z" style="fill-rule:nonzero;"/>
            <path d="M1066.85,285.543L1013.6,285.543L1013.6,142.771L1066.85,142.771C1111.71,142.771 1142.73,173.571 1142.73,213.958C1142.73,254.349 1111.71,285.543 1066.85,285.543ZM1066.85,165.619L1038.7,165.619L1038.7,262.714L1066.85,262.714C1096.84,262.714 1116.42,242.519 1116.42,214.357C1116.42,186.209 1096.84,165.619 1066.85,165.619Z" style="fill-rule:nonzero;"/>
        </g>
        <g transform="matrix(0.989397,-0.145238,0.145238,0.989397,-168.928,127.657)">
            <path d="M508.324,1262.9L508.324,1246.85L515.546,1246.85C516.282,1246.85 516.946,1246.97 517.536,1247.21C518.126,1247.44 518.628,1247.78 519.042,1248.22C519.456,1248.65 519.771,1249.18 519.985,1249.79C520.2,1250.41 520.307,1251.08 520.307,1251.82C520.307,1252.57 520.2,1253.25 519.985,1253.85C519.771,1254.46 519.456,1254.98 519.042,1255.42C518.628,1255.85 518.126,1256.19 517.536,1256.43C516.946,1256.67 516.282,1256.79 515.546,1256.79L511.36,1256.79L511.36,1262.9L508.324,1262.9ZM511.36,1254.16L515.27,1254.16C515.853,1254.16 516.313,1254.01 516.65,1253.69C516.988,1253.38 517.156,1252.93 517.156,1252.35L517.156,1251.29C517.156,1250.7 516.988,1250.26 516.65,1249.95C516.313,1249.65 515.853,1249.49 515.27,1249.49L511.36,1249.49L511.36,1254.16Z" style="fill-rule:nonzero;"/>
            <path d="M534.889,1263.18C533.831,1263.18 532.873,1263 532.014,1262.65C531.156,1262.3 530.424,1261.77 529.818,1261.06C529.212,1260.36 528.741,1259.49 528.403,1258.46C528.066,1257.44 527.897,1256.24 527.897,1254.88C527.897,1253.53 528.066,1252.34 528.403,1251.3C528.741,1250.27 529.212,1249.39 529.818,1248.69C530.424,1247.98 531.156,1247.45 532.014,1247.1C532.873,1246.75 533.831,1246.57 534.889,1246.57C535.947,1246.57 536.906,1246.75 537.764,1247.1C538.623,1247.45 539.359,1247.98 539.972,1248.69C540.586,1249.39 541.057,1250.27 541.387,1251.3C541.717,1252.34 541.881,1253.53 541.881,1254.88C541.881,1256.24 541.717,1257.44 541.387,1258.46C541.057,1259.49 540.586,1260.36 539.972,1261.06C539.359,1261.77 538.623,1262.3 537.764,1262.65C536.906,1263 535.947,1263.18 534.889,1263.18ZM534.889,1260.49C536.039,1260.49 536.956,1260.11 537.638,1259.34C538.32,1258.57 538.661,1257.5 538.661,1256.12L538.661,1253.63C538.661,1252.25 538.32,1251.18 537.638,1250.41C536.956,1249.65 536.039,1249.26 534.889,1249.26C533.739,1249.26 532.823,1249.65 532.141,1250.41C531.459,1251.18 531.117,1252.25 531.117,1253.63L531.117,1256.12C531.117,1257.5 531.459,1258.57 532.141,1259.34C532.823,1260.11 533.739,1260.49 534.889,1260.49Z" style="fill-rule:nonzero;"/>
            <path d="M552.553,1262.9L548.827,1246.85L551.863,1246.85L553.45,1254.55L554.439,1259.48L554.508,1259.48L555.658,1254.55L557.498,1246.85L560.856,1246.85L562.696,1254.55L563.823,1259.48L563.892,1259.48L564.904,1254.55L566.537,1246.85L569.435,1246.85L565.594,1262.9L562.167,1262.9L560.12,1254.42L559.131,1250.18L559.085,1250.18L558.05,1254.42L556.003,1262.9L552.553,1262.9Z" style="fill-rule:nonzero;"/>
            <path d="M577.462,1262.9L577.462,1246.85L588.042,1246.85L588.042,1249.54L580.498,1249.54L580.498,1253.43L587.168,1253.43L587.168,1256.12L580.498,1256.12L580.498,1260.21L588.042,1260.21L588.042,1262.9L577.462,1262.9Z" style="fill-rule:nonzero;"/>
            <path d="M599.818,1262.9L596.782,1262.9L596.782,1246.85L604.027,1246.85C604.763,1246.85 605.423,1246.96 606.005,1247.19C606.588,1247.42 607.083,1247.76 607.489,1248.19C607.895,1248.63 608.21,1249.16 608.432,1249.77C608.654,1250.38 608.765,1251.07 608.765,1251.82C608.765,1252.92 608.516,1253.87 608.018,1254.67C607.52,1255.47 606.772,1256.03 605.775,1256.37L609.064,1262.9L605.683,1262.9L602.693,1256.72L599.818,1256.72L599.818,1262.9ZM603.728,1254.16C604.311,1254.16 604.771,1254.01 605.108,1253.69C605.446,1253.38 605.614,1252.93 605.614,1252.35L605.614,1251.29C605.614,1250.7 605.446,1250.26 605.108,1249.95C604.771,1249.65 604.311,1249.49 603.728,1249.49L599.818,1249.49L599.818,1254.16L603.728,1254.16Z" style="fill-rule:nonzero;"/>
            <path d="M617.574,1262.9L617.574,1246.85L628.154,1246.85L628.154,1249.54L620.61,1249.54L620.61,1253.43L627.28,1253.43L627.28,1256.12L620.61,1256.12L620.61,1260.21L628.154,1260.21L628.154,1262.9L617.574,1262.9Z" style="fill-rule:nonzero;"/>
            <path d="M636.894,1246.85L642.736,1246.85C643.779,1246.85 644.726,1247.02 645.577,1247.36C646.428,1247.69 647.156,1248.19 647.762,1248.86C648.368,1249.53 648.835,1250.36 649.165,1251.37C649.495,1252.37 649.659,1253.54 649.659,1254.88C649.659,1256.21 649.495,1257.38 649.165,1258.38C648.835,1259.39 648.368,1260.22 647.762,1260.89C647.156,1261.56 646.428,1262.06 645.577,1262.4C644.726,1262.73 643.779,1262.9 642.736,1262.9L636.894,1262.9L636.894,1246.85ZM642.736,1260.21C643.871,1260.21 644.772,1259.88 645.439,1259.21C646.106,1258.55 646.439,1257.52 646.439,1256.14L646.439,1253.61C646.439,1252.23 646.106,1251.21 645.439,1250.54C644.772,1249.87 643.871,1249.54 642.736,1249.54L639.93,1249.54L639.93,1260.21L642.736,1260.21Z" style="fill-rule:nonzero;"/>
            <path d="M669.209,1246.85L676.638,1246.85C677.298,1246.85 677.892,1246.95 678.421,1247.15C678.95,1247.35 679.398,1247.62 679.766,1247.98C680.134,1248.33 680.414,1248.76 680.606,1249.28C680.798,1249.79 680.893,1250.35 680.893,1250.97C680.893,1251.58 680.813,1252.1 680.652,1252.52C680.491,1252.94 680.276,1253.29 680.008,1253.57C679.74,1253.84 679.433,1254.05 679.088,1254.19C678.743,1254.32 678.386,1254.4 678.018,1254.42L678.018,1254.55C678.371,1254.55 678.751,1254.62 679.157,1254.76C679.563,1254.9 679.939,1255.12 680.284,1255.42C680.629,1255.72 680.916,1256.1 681.146,1256.57C681.376,1257.03 681.491,1257.61 681.491,1258.3C681.491,1258.95 681.388,1259.55 681.181,1260.11C680.974,1260.67 680.686,1261.15 680.318,1261.57C679.95,1261.98 679.513,1262.31 679.007,1262.55C678.501,1262.78 677.949,1262.9 677.351,1262.9L669.209,1262.9L669.209,1246.85ZM672.245,1260.33L676.477,1260.33C677.06,1260.33 677.512,1260.18 677.834,1259.88C678.156,1259.58 678.317,1259.15 678.317,1258.58L678.317,1257.8C678.317,1257.23 678.156,1256.79 677.834,1256.49C677.512,1256.18 677.06,1256.03 676.477,1256.03L672.245,1256.03L672.245,1260.33ZM672.245,1253.54L675.994,1253.54C676.546,1253.54 676.976,1253.39 677.282,1253.09C677.589,1252.8 677.742,1252.38 677.742,1251.84L677.742,1251.13C677.742,1250.59 677.589,1250.17 677.282,1249.87C676.976,1249.58 676.546,1249.42 675.994,1249.42L672.245,1249.42L672.245,1253.54Z" style="fill-rule:nonzero;"/>
            <path d="M692.922,1262.9L692.922,1256.6L687.425,1246.85L690.829,1246.85L694.532,1253.63L694.578,1253.63L698.189,1246.85L701.501,1246.85L695.981,1256.58L695.981,1262.9L692.922,1262.9Z" style="fill-rule:nonzero;"/>
        </g>
    </g>
</svg>
