<?xml version="1.0" encoding="UTF-8"?>
<svg width="508px" height="429px" viewBox="0 0 508 429" version="1.1" xmlns="http://www.w3.org/2000/svg" xmlns:xlink="http://www.w3.org/1999/xlink">
    <!-- Generator: Sketch 53.1 (72631) - https://sketchapp.com -->
    <title>Artboard</title>
    <desc>Created with Sketch.</desc>
    <g id="Artboard" stroke="none" stroke-width="1" fill="none" fill-rule="evenodd">
        <g id="current-junior" transform="translate(0.000000, 45.000000)" fill-rule="nonzero">
            <polygon id="Rectangle" fill="#000000" points="0 280.852941 0 271 390.316602 280.852941 508 328.147059 508 338 117.683398 338"></polygon>
            <polygon id="Rectangle" fill="#000000" points="2.42879647 4.34096874 23.1115554 0 365.217894 0 386.266363 4.34096874 390 24.6330888 390 272 0 272 0 31.8717839"></polygon>
            <polygon id="Rectangle" fill="#000000" points="0 271 390.316602 271 508 328 117.683398 328"></polygon>
            <polygon id="Rectangle" fill="#FFFFFF" points="11 271 375.96139 271 486 322 121.03861 322"></polygon>
            <polygon id="Line" fill="#FFFFFF" points="14 258 14 26.1500688 17.5470691 14.0271483 37.2674866 11 369.942897 11 380.97531 16.6453989 380.97531 30.3338853 384 258"></polygon>
            <polygon id="Line-26" fill="#000000" points="26 27 26 198 239 198 239 27"></polygon>
            <polygon id="Line-2" fill="#FFFFFF" points="33.9598178 37.2894505 32 193 233 193 233 35"></polygon>
            <rect id="Rectangle" fill="#9A0031" x="37" y="50" width="95" height="6"></rect>
            <rect id="Rectangle" fill="#9A0031" x="37" y="59" width="23" height="6"></rect>
            <rect id="Rectangle" fill="#FF0041" x="73" y="67" width="23" height="6"></rect>
            <rect id="Rectangle" fill="#FF0041" x="37" y="41" width="23" height="6"></rect>
            <rect id="Rectangle" fill="#FF0041" x="37" y="85" width="23" height="6"></rect>
            <rect id="Rectangle" fill="#9A0031" x="73" y="103" width="23" height="6"></rect>
            <rect id="Rectangle" fill="#FF0041" x="99" y="103" width="23" height="6"></rect>
            <rect id="Rectangle" fill="#FF0041" x="63" y="59" width="33" height="6"></rect>
            <rect id="Rectangle" fill="#FF0041" x="38" y="67" width="33" height="6"></rect>
            <rect id="Rectangle" fill="#9A0031" x="38" y="94" width="33" height="6"></rect>
            <rect id="Rectangle" fill="#FF0041" x="38" y="103" width="33" height="6"></rect>
            <rect id="Rectangle" fill="#9A0031" x="99" y="59" width="63" height="6"></rect>
            <rect id="Rectangle" fill="#9A0031" x="37" y="76" width="63" height="6"></rect>
            <rect id="Rectangle" fill="#FF0041" x="103" y="76" width="63" height="6"></rect>
            <polygon id="Line-26" fill="#000000" points="141 67 141 238 354 238 354 67"></polygon>
            <polygon id="Line-2" fill="#FFFFFF" points="148.959818 77.2894504 147 233 348 233 348 75"></polygon>
            <polygon id="Line-27" fill="#000000" points="53.2170736 282 380 282 377.631445 280 48 280"></polygon>
            <polygon id="Line-27" fill="#000000" points="73.3262461 292 399 292 393.454751 290 69 290"></polygon>
            <polygon id="Line-27" fill="#000000" points="91.6097908 302 418 302 412.780148 300 90 300"></polygon>
            <polygon id="Line-27" fill="#000000" points="111.729851 311 437 311 435.22983 309 107 309"></polygon>
            <polygon id="Combined-Shape" stroke="#000000" stroke-width="10" fill="#FF0041" points="322.221154 59.7596154 359 59.7596154 359 86.2403846 322.221154 86.2403846 322.221154 124 295.740385 124 295.740385 86.2403846 257 86.2403846 257 59.7596154 295.740385 59.7596154 295.740385 22 322.221154 22"></polygon>
            <polygon id="Combined-Shape" stroke="#000000" stroke-width="10" fill="#FF0041" points="439.221154 59.7596154 476 59.7596154 476 86.2403846 439.221154 86.2403846 439.221154 124 412.740385 124 412.740385 86.2403846 374 86.2403846 374 59.7596154 412.740385 59.7596154 412.740385 22 439.221154 22"></polygon>
            <path d="M218.349574,206 C231.239891,206 215.624039,192.736751 210.785651,179.406879 C209.280226,175.259398 211.638519,170.86963 217.860531,166.237575 C207.827785,172.387114 203.478439,172.387114 204.812497,166.237575 C208.408608,149.660752 230.496634,106 218.349574,106 C215.284309,106 210.852586,106.582391 205.054404,107.747173 C199.916931,109.468666 196.177664,110.969944 193.836604,112.25101 C190.485866,114.084588 187.360797,116.282387 184.513996,118.791527 C183.536918,119.652714 182.14745,121.024607 180.34559,122.907208 C178.01717,125.694794 176.355709,127.851946 175.361206,129.378666 C173.126021,132.810023 171.286324,136.525247 169.907225,140.458877 C169.026836,142.970029 168.334153,145.570187 167.846116,148.242323 C167.290376,151.285154 167,154.421318 167,157.625667 C167,171.617087 215.150685,147.835893 224.140746,157.133994 C233.470859,166.783797 203.906582,206 218.349574,206 Z" id="Oval" fill="#9A0031"></path>
            <polygon id="Combined-Shape" fill="#FF0041" transform="translate(243.500000, 157.000000) rotate(90.000000) translate(-243.500000, -157.000000) " points="192.490476 183 192 182.509434 193.580973 169.794453 202.030509 151.960788 216.974604 138.34877 228.308627 133.277622 243.5 131 260.073107 133.725249 275.837239 142.418009 286.752607 154.538391 293.407386 169.748683 295 182.509434 294.509524 183"></polygon>
            <polygon id="Combined-Shape" fill="#FF0041" transform="translate(218.500000, 182.000000) scale(-1, 1) rotate(-180.000000) translate(-218.500000, -182.000000) " points="167.490476 208 167 207.509434 167.491377 200.365064 168.598162 194.726932 171.655538 186.078048 174.329113 181.009624 178.332495 175.26984 184.741912 168.608575 194.148026 162.110976 203.705933 158.156888 218.5 156 270 207.509434 269.509524 208"></polygon>
            <polygon id="Oval" fill="#FFFFFF" points="217 196 235.030671 191.458228 246.798374 181.583309 253.619098 168.186972 255 158 252.292669 143.886325 242.813617 130.113256 229.951758 122.264327 217 120 194.234031 127.571684 181.872003 143.481721 179 158 180.996285 170.186785 185.003765 178.508416 191.090187 185.79735 204.994316 194.064484"></polygon>
            <rect id="Rectangle" fill="#000000" x="277" y="175" width="63" height="7"></rect>
            <rect id="Rectangle" fill="#000000" x="277" y="187" width="45" height="7"></rect>
            <rect id="Rectangle" fill="#000000" x="277" y="199" width="55" height="7"></rect>
        </g>
    </g>
</svg>