<?xml version="1.0" encoding="UTF-8"?>
<svg width="508px" height="430px" viewBox="0 0 508 430" version="1.1" xmlns="http://www.w3.org/2000/svg" xmlns:xlink="http://www.w3.org/1999/xlink">
    <!-- Generator: Sketch 53.1 (72631) - https://sketchapp.com -->
    <title>Artboard</title>
    <desc>Created with Sketch.</desc>
    <g id="Artboard" stroke="none" stroke-width="1" fill="none" fill-rule="evenodd">
        <g id="manager" transform="translate(106.000000, 0.000000)" fill-rule="nonzero">
            <path d="M59,160 L59,412.29041 L63.2080022,418.576719 C67.9866658,425.715535 76.0083468,430 84.5954861,430 L270.218983,430 C278.628801,430 286.508353,425.889572 291.323499,418.990669 L296,412.29041 L296,160 L59,160 Z" id="Line" fill="#000000"></path>
            <path d="M59,219.38009 L41.1025212,226.05892 L30.8208955,241.03567 L30.8208955,325.685903 L41.1025212,356.22701 L59,361.280543 L59,387 L32.0106315,381.451927 C19.4503386,378.86997 9.56058376,369.11031 6.74188769,356.515583 L0,326.390932 L0,243.001277 L6.09302701,220.064671 C9.32200722,207.90949 19.1679698,198.684238 31.4384638,196.317062 L59,191 L59,219.38009 Z" id="Combined-Shape" fill="#000000"></path>
            <ellipse id="Oval" fill="#000000" cx="177.5" cy="160" rx="118.5" ry="30"></ellipse>
            <polygon id="Line-2" fill="#FFFFFF" points="67 174 67 400.922036 72.2896109 413.958745 84.4463224 420 275.422821 420 284.629911 416.181799 288 408.039761 288 174 264.16045 184.502674 210.160356 193.013497 142.479331 193.013497 90.8409182 184.502674"></polygon>
            <polygon id="Oval" fill="#FFFFFF" points="178 185 210.601504 183.97305 250.6259 179.274739 278.64787 171.294729 285.681248 167.661019 288 162 283.823711 153.60483 274.863608 151.090898 243.271345 143.484855 205.955049 139.749308 178 139 139.020216 140.485853 112.036607 143.484855 86.4171788 149.255458 74.1999747 153.60483 68 162 73.3705885 169.890353 87.5877688 175.10417 122.346405 181.843326 153.750425 184.439276"></polygon>
            <path d="M132.148214,226.548664 C132.426825,226.618216 132.740257,226.879032 133.088521,227.331119 C133.436783,227.783205 133.645738,228.287448 133.715391,228.843863 C133.785043,229.400276 133.81987,231.139046 133.81987,234.06022 C133.889522,237.88557 133.993999,240.424172 134.133304,241.676104 C134.551221,246.196971 134.446743,250.543892 133.81987,254.717 C133.401953,257.499072 133.175586,259.203065 133.14076,259.829031 C133.105933,260.454998 132.949217,260.872302 132.670607,261.080957 C132.391996,261.289613 132.183042,261.985121 132.043736,263.167501 C131.904431,264.349881 131.66065,265.288817 131.312387,265.984334 C130.964124,266.679853 130.789995,267.166708 130.789995,267.444915 C130.789995,267.723122 130.546214,268.209977 130.058646,268.905495 C129.571077,269.601013 129.22282,269.948767 129.013862,269.948767 C128.804904,269.948767 128.561123,270.157419 128.282512,270.57473 C127.794944,271.339799 126.959125,271.86143 125.77503,272.139637 C125.635725,272.209189 125.391944,272.313515 125.043681,272.452619 C124.695418,272.661275 124.05114,272.817763 123.11083,272.922091 C122.170519,273.026419 121.561068,273.009031 121.282457,272.869927 C121.003847,272.730824 120.516286,272.60911 119.81976,272.504782 C119.123233,272.400455 118.600846,272.243965 118.252583,272.03531 C117.90432,271.826655 117.677952,271.774492 117.573472,271.878819 C117.468994,271.983147 117.242626,271.896209 116.894363,271.618001 C116.5461,271.339794 116.215255,271.200693 115.901818,271.200693 C115.588381,271.200693 115.205298,270.957266 114.752555,270.470403 C114.299813,269.98354 114.03862,269.774888 113.968967,269.84444 C113.899314,269.913991 113.655534,269.722727 113.237618,269.27064 C112.819702,268.818553 112.401792,268.331698 111.983877,267.81006 C111.565961,267.288422 111.357006,266.992831 111.357006,266.923279 C111.357006,266.645072 111.235115,266.401644 110.991331,266.192989 C110.747547,265.984333 110.573418,265.584416 110.468939,264.993226 C110.36446,264.402036 110.24257,264.07167 110.103265,264.002118 C110.033612,263.932566 109.876896,264.05428 109.633112,264.367263 C109.389328,264.680246 109.128134,265.080163 108.849523,265.567026 C108.22265,266.749406 107.787328,267.462302 107.543543,267.705733 C107.299759,267.949164 107.00374,268.453406 106.655476,269.218477 C106.307214,269.844442 105.784826,270.522562 105.0883,271.252856 C104.391774,271.98315 103.904212,272.348292 103.625601,272.348292 C103.346992,272.348292 103.172862,272.417843 103.10321,272.556946 C103.033557,272.765601 102.63306,272.869927 101.901707,272.869927 C101.170355,272.869927 100.456426,272.817764 99.7598996,272.713437 C99.0633732,272.609109 98.2972054,272.139642 97.4613741,271.30502 C97.2524163,271.096365 97.0434611,270.992038 96.8345033,270.992038 C96.5558925,270.992038 96.1205703,270.626897 95.5285232,269.896603 C94.9364753,269.166309 94.4663275,268.383863 94.1180638,267.549242 C93.4215374,266.158206 93.0036279,264.123846 92.864323,261.446103 C92.7250181,258.768358 92.6553661,253.256462 92.6553661,244.910246 C92.725019,235.172995 92.6205414,229.991464 92.3419306,229.365498 C91.924015,228.391773 91.8891894,227.731041 92.2374522,227.383282 C92.5857158,227.035523 93.4911859,226.861646 94.9538916,226.861646 C96.4165973,226.861646 97.9141065,227.174625 99.4464642,227.80059 C99.5161171,227.80059 99.6205947,227.835366 99.7598996,227.904918 C100.665384,228.322229 101.205184,229.104674 101.379315,230.252279 C101.553447,231.399884 101.675337,235.207787 101.74499,241.676104 L101.74499,243.449666 C101.814643,257.360025 101.988771,264.523752 102.267382,264.941063 C102.47634,265.288822 102.789772,265.080169 103.207688,264.3151 C103.904215,262.924064 104.652969,261.046193 105.453975,258.681433 C106.25498,256.316672 106.829605,254.36925 107.177869,252.839111 C107.386826,251.795834 107.630607,250.683022 107.909218,249.500642 C108.605744,247.274984 108.884351,245.292788 108.745045,243.553993 C108.745045,242.788924 108.988826,242.249906 109.476394,241.936922 C109.963963,241.623939 110.939085,241.432675 112.401791,241.363123 C113.585886,241.293571 114.317227,241.293571 114.595838,241.363123 C114.874448,241.432675 115.257531,241.676102 115.7451,242.093412 C116.78989,242.997586 117.416754,244.423376 117.625712,246.370827 C117.765017,247.483656 117.869495,248.109612 117.939147,248.248716 C118.0088,248.318268 118.095865,249.135489 118.200343,250.700404 C118.304823,252.265319 118.357061,253.360744 118.357061,253.98671 C118.287408,256.003712 118.461538,258.211949 118.879453,260.611485 C119.297369,263.011022 119.715278,264.349874 120.133194,264.628081 C120.2725,264.697633 120.411803,264.906286 120.551108,265.254044 C120.899372,266.22777 121.526235,266.192994 122.43172,265.149717 C122.71033,264.801958 122.988937,264.384653 123.267547,263.897791 C123.546158,263.271825 123.755113,262.750195 123.894418,262.332883 C124.381987,261.220055 124.852135,259.133532 125.304877,256.073253 C125.757619,253.012974 125.983987,250.439597 125.983987,248.353042 L125.983987,243.971301 C125.983987,242.997577 125.896922,241.484848 125.722791,239.43307 C125.548659,237.381292 125.409356,235.694686 125.304877,234.373202 C125.200398,233.051718 125.043682,231.730254 124.834724,230.40877 C124.625766,229.087286 124.678005,228.270065 124.991441,227.957082 C125.304879,227.644098 125.49642,227.539772 125.566073,227.6441 C125.635726,227.748428 126.175526,227.574551 127.185489,227.122464 C128.195452,226.670378 129.292465,226.444338 130.47656,226.444338 C131.382044,226.444338 131.939256,226.479112 132.148214,226.548664 Z M157.223039,258.264124 L157.014082,258.472778 C156.944429,258.194571 156.979255,258.020694 157.118561,257.951142 L157.223039,258.264124 Z M154.088686,229.991461 C152.834938,231.173842 151.929468,232.738734 151.372246,234.686183 C151.163289,235.381702 150.919508,236.07721 150.640897,236.772727 C149.944372,238.233315 149.45681,239.972083 149.178199,241.989086 C148.899589,243.658328 148.655809,244.805916 148.44685,245.431882 C147.959282,247.379333 147.785153,250.509116 147.924459,254.821327 C148.063763,259.133539 148.412022,261.846018 148.969242,262.958846 C149.247853,263.445709 149.421982,264.210767 149.491635,265.254044 C149.491635,265.462699 149.752828,265.845229 150.275223,266.401643 C150.797617,266.958057 151.267766,267.340587 151.685682,267.549242 C152.242903,267.827449 152.695638,267.827449 153.043901,267.549242 C153.322512,267.271035 153.775248,266.505976 154.402121,265.254044 C155.028995,264.002112 155.342427,263.271829 155.342427,263.063174 C155.342427,262.854518 155.516556,262.698029 155.864819,262.593701 C156.213083,262.489374 156.613579,261.602602 157.066322,259.933359 C157.519064,258.264115 157.745431,257.255629 157.745431,256.907871 C157.745431,256.560112 157.67578,256.629663 157.536475,257.116525 L157.327518,257.742488 L157.327518,257.116525 C157.327518,256.629663 157.397169,256.142807 157.536475,255.655945 L157.745431,254.821327 L157.745431,255.551618 C157.815084,256.594894 157.919561,256.455793 158.058866,255.134309 C158.128519,254.78655 158.198171,254.33447 158.267823,253.778056 C158.476781,252.178364 158.616084,251.100327 158.685737,250.543913 C158.685737,250.265706 158.650911,250.16138 158.581259,250.230932 C158.441954,250.439587 158.372302,249.570203 158.372302,247.622753 L158.372302,246.162172 L158.47678,243.345338 C158.546433,243.484442 158.581259,243.658319 158.581259,243.866975 L158.790215,245.327555 L158.894694,245.223227 C159.033999,244.805917 159.051413,244.162573 158.946933,243.293175 C158.842454,242.423778 158.703151,241.936923 158.529019,241.832594 C158.354888,241.728267 158.30265,240.980596 158.372302,239.589561 L158.47678,238.128981 L158.581259,238.337635 C158.650911,238.615842 158.685737,238.615842 158.685737,238.337635 C158.75539,237.989876 158.75539,237.398695 158.685737,236.564073 C158.685737,234.825278 158.633499,233.955894 158.529019,233.955894 C158.424541,233.955894 158.407127,233.60814 158.47678,232.912622 C158.546433,232.217104 158.494194,231.86935 158.320062,231.86935 C158.145931,231.86935 157.954389,231.486821 157.745431,230.721752 C157.397168,229.469819 157.04891,228.56566 156.700647,228.009245 L156.073776,227.278955 L155.655862,228.113572 C155.446904,228.600435 154.924517,229.226391 154.088686,229.991461 Z M152.834945,223.940486 C154.227997,224.4969 156.143417,224.775103 158.581259,224.775103 C160.043964,224.844654 161.053912,225.001144 161.611133,225.244575 C162.168354,225.488006 163.004174,226.200902 164.118616,227.383282 C165.233058,228.426559 165.912161,229.591534 166.155945,230.878242 C166.39973,232.164951 166.52162,235.138245 166.52162,239.798215 C166.591272,244.527737 166.382318,249.98747 165.894749,256.177581 C165.755444,257.846824 165.163405,260.315875 164.118616,263.584809 C163.7007,264.836742 163.126074,266.27992 162.394722,267.914387 C161.663369,269.548854 161.19322,270.366075 160.984263,270.366075 C160.844958,270.366075 160.496699,270.626891 159.939479,271.148529 C159.382257,271.670167 158.929522,271.930983 158.581259,271.930983 C158.232996,271.930983 157.849912,272.10486 157.431996,272.452619 C157.01408,272.800377 156.683235,272.887316 156.439451,272.713437 C156.195666,272.539557 155.986712,272.522169 155.81258,272.661273 C155.638448,272.800376 155.237952,272.904703 154.611078,272.974255 C153.984205,273.043807 153.566294,273.16552 153.357337,273.3394 C153.148379,273.513279 152.713056,273.443728 152.051357,273.130745 C151.389657,272.817762 150.81503,272.661273 150.327463,272.661273 C149.839894,272.661273 149.543875,272.591723 149.439396,272.452619 C149.334916,272.313515 149.091136,272.243964 148.708046,272.243964 C148.324957,272.243964 147.767744,272.0527 147.036392,271.670165 C146.305039,271.28763 145.869716,271.096366 145.730411,271.096366 C145.451801,271.096366 144.66822,270.435633 143.379647,269.114149 C142.091072,267.792665 141.272666,266.818955 140.924403,266.192989 C139.879613,264.036883 139.217923,260.97665 138.939312,257.012198 C138.800008,254.647437 138.765182,251.952345 138.834834,248.926842 C138.904487,245.901339 139.04379,243.971306 139.252748,243.136685 C139.531359,242.232511 139.722901,241.310964 139.827379,240.372015 C139.931859,239.433065 140.158226,238.528906 140.50649,237.659508 C140.854752,236.79011 141.028882,236.146766 141.028882,235.729456 C141.028882,235.312145 141.115946,235.05133 141.290077,234.947001 C141.464209,234.842674 141.603513,234.373207 141.707991,233.538585 C141.81247,232.703964 141.986599,232.060619 142.230383,231.608532 C142.474168,231.156446 142.735361,230.617427 143.013972,229.991461 C143.640846,228.669977 144.476664,227.452839 145.521455,226.340011 C146.357286,225.505388 147.28017,224.931595 148.290132,224.618612 C149.300096,224.305629 149.839896,224.079589 149.909549,223.940486 C150.048854,223.801382 150.484176,223.731831 151.215529,223.731831 C151.946882,223.731831 152.486681,223.801382 152.834945,223.940486 Z M183.656083,230.200116 C183.168515,230.408771 182.750605,230.513097 182.402342,230.513097 C181.775468,230.582649 181.409797,230.999954 181.305318,231.765023 C181.200839,232.530092 181.218252,235.138246 181.357557,239.589561 C181.357557,241.050148 181.322731,242.336837 181.253079,243.449666 C181.113774,244.284288 181.078948,244.840694 181.148601,245.118901 C181.218253,245.397107 181.374969,245.431883 181.618753,245.223227 C181.862538,245.014573 182.228209,244.562492 182.715777,243.866975 C183.969524,242.267284 184.805344,240.737167 185.22326,239.276579 L185.745652,238.337635 C185.745652,238.754945 185.884955,238.65062 186.163565,238.024653 C186.511829,236.911825 186.546654,236.355419 186.268044,236.355419 C186.128739,236.633625 186.093913,236.424973 186.163565,235.729456 L186.163565,235.416474 C186.442176,233.051713 186.198395,231.382495 185.432217,230.40877 C185.153606,230.061011 184.892412,229.869746 184.648628,229.834971 C184.404844,229.800194 184.073999,229.921909 183.656083,230.200116 Z M175.715722,224.775103 C177.24808,224.775103 178.049073,224.809878 178.118726,224.87943 C178.188379,224.948982 179.059024,225.001145 180.730687,225.03592 C182.40235,225.070697 183.708317,225.209798 184.648628,225.45323 C185.588939,225.696661 186.233216,225.818375 186.581479,225.818375 C186.929743,225.818375 187.103871,225.905313 187.103871,226.079193 C187.103871,226.253072 187.225762,226.305235 187.469546,226.235683 C187.71333,226.166131 187.991937,226.287846 188.305374,226.600828 C188.61881,226.913811 188.862591,227.070301 189.036722,227.070301 C189.210854,227.070301 189.715828,227.470217 190.55166,228.270063 C191.387491,229.069908 192.014356,229.748029 192.432272,230.304442 C193.128798,231.278168 193.56412,232.651795 193.738252,234.425366 C193.912383,236.198936 193.755667,237.781216 193.268099,239.172252 C192.292962,242.023876 191.248188,244.110398 190.133746,245.431882 C189.43722,246.266504 188.72329,247.135888 187.991938,248.040061 C187.260586,248.944234 186.616308,249.709293 186.059087,250.335259 L185.118781,251.274204 L185.745652,251.79584 C186.163568,252.074047 186.581477,252.595677 186.999393,253.360747 C187.347657,254.056265 188.601385,256.664418 190.760616,261.185285 C192.919848,265.6366 194.103926,268.070875 194.312883,268.488186 C194.591494,268.975049 195.026816,269.618394 195.618863,270.418239 C196.210911,271.218084 196.541756,271.618001 196.611409,271.618001 C196.820367,271.618001 197.064148,271.93098 197.342758,272.556946 C197.551716,273.043808 197.63878,273.356787 197.603954,273.49589 C197.569128,273.634994 197.394998,273.930585 197.081562,274.382671 C196.768125,274.834758 196.506931,275.095573 196.297974,275.165125 C196.089016,275.234677 195.566629,275.269452 194.730797,275.269452 C193.616355,275.1999 192.763123,275.043412 192.171076,274.79998 C191.579028,274.556549 190.899925,274.087082 190.133746,273.391563 C189.367567,272.696046 188.984483,272.243965 188.984483,272.03531 C188.984483,271.757103 188.636226,270.992045 187.939699,269.740112 C186.894909,267.931765 185.014316,263.967373 182.297863,257.846815 C181.531684,256.10802 181.078949,255.238636 180.939644,255.238636 C180.869991,255.238636 180.817753,255.412513 180.782926,255.760272 C180.7481,256.108031 180.713274,256.733987 180.678448,257.638161 C180.643621,258.542334 180.626209,259.707309 180.626209,261.133121 L180.626209,266.610297 C180.556556,270.574749 180.452078,272.661272 180.312773,272.869927 C179.96451,273.426342 179.250581,273.791483 178.170965,273.965363 C177.09135,274.139242 176.307769,274.017529 175.820201,273.600218 L175.506765,273.49589 C175.64607,273.704546 175.541593,273.808872 175.19333,273.808872 C174.845067,273.808872 174.20079,273.356792 173.260479,272.452619 C172.320168,271.548445 171.675891,270.783387 171.327628,270.157421 C171.049017,269.601007 171.031604,269.027213 171.275389,268.436023 C171.519173,267.844833 171.693302,265.880024 171.797781,262.541538 C171.90226,259.203052 171.989324,257.255631 172.058976,256.699216 C172.128629,256.142802 172.215694,253.656363 172.320173,249.239824 C172.424652,244.823285 172.511716,242.580273 172.581369,242.510722 C172.651022,242.44117 172.738086,240.719789 172.842565,237.346527 C172.947044,233.973265 173.034108,231.556376 173.103761,230.095789 C173.173414,228.635201 173.103762,227.626715 172.894804,227.070301 C172.407236,226.166127 172.37241,225.557558 172.790326,225.244575 C173.208241,224.931592 174.183364,224.775103 175.715722,224.775103 Z M206.014468,222.166923 C206.780647,222.375579 207.442338,222.758108 207.999558,223.314523 C208.417474,223.731833 208.678667,224.114362 208.783147,224.462121 C208.887625,224.809881 209.009516,225.574939 209.148821,226.757319 C209.288126,228.287458 209.288126,230.495695 209.148821,233.382094 C209.009516,236.268493 208.800561,238.581056 208.521951,240.319851 C208.382646,241.154473 208.347819,242.371611 208.417472,243.971301 L208.417472,250.439586 C208.487125,253.152106 208.487125,254.786549 208.417472,255.342963 C208.347819,255.899378 208.278168,258.055451 208.208515,261.811248 C208.208515,264.662871 208.243341,266.366864 208.312994,266.923279 C208.382647,267.479693 208.591601,268.070874 208.939865,268.696841 C209.218475,269.253255 209.462255,269.583621 209.671213,269.687949 C209.880172,269.792276 210.263255,269.84444 210.820476,269.84444 C211.656307,269.84444 212.213521,269.966154 212.492131,270.209585 C212.770742,270.453016 213.310541,270.679056 214.111547,270.887711 C214.912552,271.096367 215.487177,271.513671 215.835441,272.139637 C216.114052,272.696052 216.16629,273.148131 215.992159,273.49589 C215.818027,273.84365 215.278228,274.260954 214.372743,274.747816 C213.815522,275.095576 213.310548,275.304228 212.857806,275.373779 C212.405063,275.443331 211.377702,275.478107 209.775691,275.478107 C207.477154,275.408555 206.223426,275.286841 206.014468,275.112962 C205.80551,274.939082 205.544317,274.852144 205.23088,274.852144 C204.917443,274.852144 204.760727,274.782593 204.760727,274.643489 C204.760727,274.29573 204.23834,274.087078 203.19355,274.017526 C202.984592,273.947974 202.409967,273.513283 201.469656,272.713437 C200.529346,271.913591 200.059198,271.444123 200.059198,271.30502 C199.989545,271.096365 199.78059,270.818162 199.432327,270.470403 C198.596495,269.496678 198.213412,268.418641 198.283064,267.23626 C198.283064,266.610295 198.213413,266.123439 198.074107,265.77568 C197.934802,265.427921 197.917389,265.114943 198.021867,264.836736 C198.126347,264.558528 198.213412,264.002122 198.283064,263.167501 C198.352717,262.402431 198.49202,260.420235 198.700978,257.220852 C199.258199,248.805085 199.432328,244.040859 199.22337,242.92803 C199.153717,242.371616 199.153717,241.606557 199.22337,240.632833 C199.710939,236.946588 200.006958,233.364723 200.111437,229.887134 C200.215915,226.409545 200.094025,224.496899 199.745762,224.14914 C199.536804,223.870933 199.432327,223.540567 199.432327,223.158031 C199.432327,222.775497 199.536804,222.479906 199.745762,222.27125 C199.885067,222.132147 200.807951,222.045209 202.514441,222.010433 C204.22093,221.975657 205.387595,222.02782 206.014468,222.166923 Z M232.760948,249.91795 L232.656469,250.230932 C232.517163,249.883173 232.517163,249.60497 232.656469,249.396315 C232.656469,249.326763 232.691295,249.326763 232.760948,249.396315 C232.760948,249.535418 232.760948,249.709295 232.760948,249.91795 Z M233.074383,246.99679 L232.865426,247.101116 C232.795773,246.892462 232.795773,246.718584 232.865426,246.579481 L233.074383,246.99679 Z M223.88028,230.200116 C224.019586,231.452048 224.158889,232.912614 224.298194,234.581857 C224.4375,236.459755 224.576803,238.82448 224.716108,241.676104 C224.785761,244.458176 224.890238,246.75335 225.029543,248.561697 C225.099196,250.300492 224.994719,252.908645 224.716108,256.386235 C224.228539,262.228585 224.158888,265.149717 224.507151,265.149717 C224.855415,265.149717 225.656408,264.315108 226.910155,262.645865 C228.163903,260.976622 229.069373,259.585607 229.626594,258.472778 C230.04451,257.707709 230.427594,257.133915 230.775858,256.75138 C231.12412,256.368845 231.611682,255.273421 232.238555,253.465074 L233.178862,250.648241 L233.178862,245.744864 C233.178862,243.449654 233.144035,241.936925 233.074383,241.206631 C233.00473,240.476338 232.795775,239.554791 232.447512,238.441962 C231.959944,236.842271 231.611685,235.920724 231.402728,235.677292 C231.19377,235.433861 230.688796,234.512313 229.887791,232.912622 C229.086785,231.31293 228.338031,230.304445 227.641504,229.887134 C226.944978,229.469823 226.387765,229.295946 225.96985,229.365498 C225.551933,229.43505 225.203676,229.330724 224.925065,229.052516 C224.228538,228.287447 223.88028,228.391773 223.88028,229.365498 C223.88028,229.574154 223.88028,229.852357 223.88028,230.200116 Z M223.462367,223.210195 C223.601672,223.279747 224.106646,223.401461 224.977304,223.575341 C225.847962,223.74922 226.631542,223.836158 227.328069,223.836158 C228.024595,223.836158 228.47733,223.957872 228.686288,224.201304 C228.895247,224.444735 229.208679,224.583837 229.626594,224.618612 C230.04451,224.653388 230.497246,224.827265 230.984814,225.140248 C231.472382,225.453231 231.750989,225.60972 231.820642,225.60972 C231.959946,225.60972 232.795766,226.409554 234.328124,228.009245 C235.860482,229.608936 236.731127,230.582647 236.940085,230.930405 C237.149043,231.347716 237.758495,232.512691 238.768457,234.425366 C239.778421,236.33804 240.283395,237.416077 240.283395,237.659508 C240.283395,237.902939 240.457524,238.441958 240.805787,239.276579 C241.293355,240.45896 241.537136,242.928011 241.537136,246.683808 C241.537136,249.187673 241.293355,251.361134 240.805787,253.204256 C240.318218,255.047378 239.795832,256.455782 239.238611,257.429507 C238.681389,258.403232 238.298306,259.307391 238.089347,260.142012 C237.880389,260.976635 237.723674,261.393939 237.619195,261.393939 C237.514716,261.393939 237.270935,261.724305 236.887846,262.385047 C236.504757,263.045789 236.086847,263.602195 235.634104,264.054282 C235.181362,264.506368 234.954995,264.836735 234.954995,265.04539 C234.954995,265.254045 234.86793,265.358371 234.693799,265.358371 C234.519667,265.358371 234.136583,265.636574 233.544535,266.192989 C232.952488,266.749403 231.994779,267.618787 230.671379,268.801168 C229.765895,269.705341 228.843011,270.453011 227.9027,271.044202 C226.96239,271.635393 226.352938,271.861432 226.074328,271.722329 C225.795717,271.722329 224.437511,271.652778 221.999668,271.513674 C220.606616,271.37457 219.352887,271.061592 218.238445,270.57473 C217.750877,270.366074 217.245902,270.018321 216.723507,269.531458 C216.201113,269.044596 215.870268,268.801168 215.730963,268.801168 C215.591658,268.801168 215.522006,268.679454 215.522006,268.436023 C215.522006,268.192591 215.434941,268.070878 215.26081,268.070878 C215.086678,268.070878 214.912549,267.705736 214.738417,266.975442 C214.564286,266.245149 214.52946,265.793069 214.633939,265.619189 C214.738418,265.44531 214.825483,264.31511 214.895135,262.228556 C214.964788,260.142003 215.104091,257.429523 215.313049,254.091037 C215.522007,250.33524 215.556832,246.057869 215.417527,241.258796 C215.208569,233.955857 214.999614,229.05253 214.790656,226.548664 C214.581699,224.948974 214.651351,224.010039 214.999613,223.731831 C215.626487,223.175416 216.775739,223.140642 218.447402,223.627504 C219.352886,223.975263 219.875273,224.044814 220.014578,223.836158 C220.153883,223.627503 220.624032,223.488401 221.425038,223.418849 C222.226043,223.349298 222.731017,223.401461 222.939975,223.575341 C223.148933,223.74922 223.25341,223.731832 223.25341,223.523177 C223.25341,223.453625 223.270823,223.384075 223.305649,223.314523 C223.340476,223.244971 223.392714,223.210195 223.462367,223.210195 Z M258.358164,223.731831 C258.915385,223.870935 259.333295,224.044811 259.611905,224.253467 C259.890516,224.462122 260.029819,224.514286 260.029819,224.409957 C260.029819,224.30563 260.291012,224.392569 260.813407,224.670775 C261.335803,224.948983 261.596995,225.175023 261.596995,225.348902 C261.596995,225.522782 261.736299,225.60972 262.014909,225.60972 C262.29352,225.60972 262.519888,225.818372 262.694019,226.235683 C262.868151,226.652994 262.955215,227.139849 262.955215,227.696264 C262.885562,228.669989 262.084569,229.678475 260.552211,230.721752 C259.99499,231.139062 259.368126,231.660693 258.6716,232.286659 C257.975073,232.912625 257.626815,233.295154 257.626815,233.434257 C257.626815,233.573361 256.965125,234.720948 255.641725,236.877054 C254.875545,238.059435 254.42281,239.346124 254.283506,240.73716 C254.1442,242.475954 254.631761,244.597252 255.746203,247.101116 C256.024814,247.727083 256.651678,248.613855 257.626815,249.76146 C258.601952,250.909064 259.472597,251.795836 260.238776,252.421803 C261.701482,253.604183 262.781081,255.238626 263.477608,257.325179 C263.686566,258.020698 263.843281,259.220448 263.94776,260.924467 C264.052239,262.628486 264.000001,263.584809 263.791043,263.793464 C263.651737,264.002119 263.512434,264.454199 263.373129,265.149717 C263.233823,265.845235 262.815914,266.888496 262.119388,268.279532 C261.422861,269.670568 260.952713,270.418239 260.708929,270.522566 C260.465145,270.626894 260.064648,271.061586 259.507427,271.826656 C258.671595,273.009036 257.644234,274.087073 256.425313,275.060798 C255.206392,276.034523 253.865599,276.243175 252.402893,275.686761 C251.915325,275.478106 251.567067,275.339004 251.358109,275.269452 C250.800888,275.130348 250.086959,274.539167 249.216301,273.49589 C248.345643,272.452614 247.875495,271.583229 247.805842,270.887711 C247.666537,270.192194 247.666537,269.84444 247.805842,269.84444 C247.945148,269.84444 248.363057,269.705338 249.059584,269.427131 C249.75611,269.148924 250.174019,269.009822 250.313324,269.009822 C250.382977,269.009822 250.417803,268.992434 250.417803,268.957659 L250.417803,268.801168 C250.348151,268.592513 250.661583,268.279534 251.358109,267.862223 C251.63672,267.72312 251.863087,267.584019 252.037219,267.444915 C252.211351,267.305811 252.298414,267.201485 252.298414,267.131933 C252.228762,266.923277 252.368066,266.540749 252.716328,265.984334 C254.109381,264.175987 254.910375,262.437219 255.119332,260.767975 C255.397943,258.820526 255.363118,257.394736 255.014854,256.490562 C254.666591,255.586389 253.726295,254.36925 252.193936,252.839111 C251.358105,252.074042 250.713827,251.256821 250.261085,250.387423 C249.808343,249.518025 249.529737,249.03117 249.425258,248.926842 C249.320779,248.822515 248.989934,248.17917 248.432713,246.99679 C247.178966,244.632028 246.412798,242.475956 246.134187,240.528505 C245.994882,239.763436 246.029708,238.685399 246.238666,237.294363 C246.447623,235.903327 246.761055,234.790515 247.178972,233.955894 C247.596888,233.05172 247.858081,232.408376 247.96256,232.025841 C248.067039,231.643306 248.188929,231.452042 248.328234,231.452042 C248.46754,231.452042 248.606843,231.173838 248.746148,230.617424 C248.885453,230.06101 249.024756,229.782807 249.164062,229.782807 C249.303367,229.782807 249.355606,229.678481 249.32078,229.469826 C249.285953,229.26117 249.407844,229.156844 249.686454,229.156844 C249.965064,229.156844 250.139194,228.948192 250.208846,228.530881 C250.278499,228.11357 250.591931,227.591939 251.149152,226.965974 C251.636721,226.340007 252.420301,225.679275 253.499917,224.983757 C254.579533,224.288239 255.293462,223.940486 255.641725,223.940486 C256.05964,223.940486 256.338247,223.870935 256.477553,223.731831 C256.616858,223.453624 257.243722,223.453624 258.358164,223.731831 Z M138.207964,316.034852 C138.068658,316.730369 137.999007,318.851667 137.999007,322.398808 C137.999007,325.94595 138.068658,327.75427 138.207964,327.823822 C138.277616,327.962925 138.643287,327.858599 139.304987,327.51084 C139.966687,327.16308 140.436836,326.780552 140.715446,326.363241 C141.203015,325.876378 142.004008,325.024382 143.118451,323.807226 C144.232893,322.590069 145.103537,321.355543 145.730411,320.103611 C146.287632,318.990782 146.63589,317.964908 146.775195,317.02596 C146.914501,316.08701 146.844849,315.547992 146.566238,315.408889 C146.357281,315.200233 145.887133,315.095907 145.15578,315.095907 C144.424427,315.095907 143.919453,315.165458 143.640842,315.304561 C142.387095,315.930527 141.481624,315.930527 140.924403,315.304561 C140.645793,314.956802 140.158231,314.782926 139.461705,314.782926 L138.416921,314.678598 L138.207964,316.034852 Z M138.730356,289.431423 L137.685572,289.95306 L137.685572,293.082875 C137.755225,297.395085 137.999004,300.907399 138.416921,303.619919 C138.556226,304.384988 139.183091,304.002459 140.297533,302.472319 C141.133364,301.359491 141.82988,300.490106 142.387101,299.864141 C143.849807,297.986242 144.546323,296.282249 144.47667,294.752109 C144.407017,291.552726 144.128411,289.674856 143.640842,289.118442 C143.431884,288.840235 142.752781,288.735908 141.603513,288.80546 C140.454244,288.875012 139.496535,289.083665 138.730356,289.431423 Z M136.327352,282.754485 C136.884573,282.96314 137.232831,283.032691 137.372136,282.963139 C137.511441,282.893587 138.051242,282.997913 138.991552,283.27612 C139.931862,283.554328 140.976636,283.797755 142.125905,284.006411 C143.275174,284.215066 144.267708,284.493269 145.103541,284.841028 C145.800067,285.119236 146.792602,285.710417 148.081176,286.61459 C149.36975,287.518763 150.292633,288.283822 150.849854,288.909787 C152.033949,290.16172 152.869768,292.248242 153.357337,295.169418 C153.635947,296.699557 153.705599,297.847144 153.566294,298.612215 C153.426989,299.377284 152.974253,300.316219 152.208074,301.429048 C151.511548,302.402773 150.849858,303.376483 150.222984,304.350208 C149.59611,305.323934 148.777704,306.332419 147.767741,307.375697 C146.757777,308.418973 146.287629,309.04493 146.357281,309.253586 C146.426934,309.46224 146.844844,309.61873 147.611023,309.723057 C148.377202,309.827386 149.004066,310.070813 149.491635,310.453348 C149.979203,310.835882 150.292635,311.027148 150.431941,311.027148 C150.640899,311.027148 151.25035,311.583553 152.260313,312.696382 C153.270276,313.80921 153.879728,314.574269 154.088686,314.991579 C154.785212,316.521719 155.133471,317.738857 155.133471,318.64303 C155.133471,320.451377 154.506606,322.572675 153.252858,325.006988 C151.929458,327.580404 149.456827,330.084231 145.83489,332.518544 C144.720447,333.214062 144.110996,333.683529 144.006517,333.92696 C143.902038,334.170392 143.222935,334.639859 141.969187,335.335378 C140.924398,335.961343 140.123405,336.29171 139.566183,336.326486 C139.008963,336.361261 138.173143,336.135222 137.058701,335.648359 C136.50148,335.370152 135.909441,335.091949 135.282568,334.813742 C134.864652,334.605087 134.324852,334.483372 133.663152,334.448597 C133.001452,334.413821 132.444239,334.326882 131.991497,334.187779 C131.538754,334.048675 131.173084,333.979124 130.894473,333.979124 C130.337252,333.909573 129.692975,333.40533 128.961623,332.466381 C128.23027,331.527431 127.969076,330.849311 128.178034,330.432001 C128.317339,330.01469 128.421817,325.841645 128.491469,317.912741 C128.491469,315.200221 128.526295,313.252799 128.595948,312.070419 C128.665601,310.95759 128.683014,307.062748 128.648187,300.385776 C128.613361,293.708804 128.456645,290.092165 128.178034,289.53575 C127.551161,288.422922 127.516334,287.76219 128.073556,287.553534 C128.352166,287.41443 128.648185,286.736311 128.961623,285.519154 C129.275059,284.301999 129.571079,283.693429 129.849689,283.693429 C130.197952,283.623878 130.685513,283.589102 131.312387,283.589102 C131.939261,283.51955 132.531299,283.310898 133.088521,282.963139 C133.994005,282.267621 135.073604,282.198071 136.327352,282.754485 Z M174.566459,284.528046 C174.705765,284.66715 175.019197,284.736701 175.506765,284.736701 C175.924681,284.736701 176.481893,284.945353 177.17842,285.362664 C177.874946,285.779975 178.397333,286.232054 178.745597,286.718917 C179.442123,287.553538 179.267994,288.388147 178.223205,289.222769 C177.526678,289.779183 176.481904,290.144325 175.088851,290.318204 C173.695798,290.492084 172.929631,290.526859 172.790326,290.422531 C172.651021,290.318204 172.52913,290.370367 172.424651,290.579023 C172.320173,290.787677 172.12863,290.822453 171.85002,290.683349 C171.014188,290.474694 170.526627,292.630767 170.387322,297.151634 C170.317669,299.655498 170.230605,300.994351 170.126125,301.16823 C170.021647,301.342109 169.899757,302.402758 169.760451,304.350208 C169.760451,306.228107 169.864928,307.167042 170.073886,307.167042 C170.352497,307.027938 170.613691,307.062714 170.857475,307.271369 C171.101259,307.480025 171.275388,307.497413 171.379867,307.323533 C171.484346,307.149653 171.606236,307.09749 171.745542,307.167042 C171.884847,307.236594 172.302756,307.34092 172.999283,307.480023 C175.158515,307.758231 176.551546,308.175535 177.17842,308.731949 C178.014252,309.497019 178.014252,310.296853 177.17842,311.131475 C176.272936,312.035648 174.91473,312.418177 173.103761,312.279074 C172.26793,312.279074 171.780368,312.331237 171.641063,312.435564 C171.501758,312.539891 171.049023,312.522504 170.282843,312.383401 L169.238059,312.279074 L169.029102,314.26129 C168.889797,315.513222 168.820145,317.460643 168.820145,320.103611 C168.820145,323.511649 169.133577,325.737273 169.760451,326.780549 C170.387325,327.823827 171.780357,328.449784 173.939589,328.658438 C174.705767,328.72799 175.123677,328.849704 175.19333,329.023584 C175.262983,329.197464 175.437111,329.214851 175.715722,329.075748 C175.994333,329.006196 176.51672,329.162685 177.282898,329.545219 C178.049078,329.927755 178.501813,330.275509 178.641118,330.588492 C178.780423,330.901474 178.780423,331.231841 178.641118,331.5796 C178.501813,331.927358 178.170968,332.2925 177.648573,332.675034 C177.126178,333.05757 176.708268,333.248834 176.394832,333.248834 C176.081395,333.248834 175.802789,333.353161 175.559004,333.561816 C175.31522,333.770471 174.496814,333.909573 173.103761,333.979124 C171.710708,334.048676 170.526631,333.979125 169.551494,333.77047 C168.506705,333.561814 167.601234,333.248836 166.835055,332.831526 C165.024087,331.579594 164.118616,331.092738 164.118616,331.370945 C164.118616,331.649152 163.700706,331.231848 162.864874,330.119019 C162.446959,329.632156 162.238004,329.319178 162.238004,329.180075 C162.238004,328.901868 162.168352,328.762766 162.029047,328.762766 C161.820089,328.762766 161.489244,328.241135 161.036502,327.197859 C160.58376,326.154582 160.218089,325.146096 159.939479,324.172371 C159.660868,322.98999 159.573803,320.938243 159.678282,318.017067 C159.782761,315.095893 159.869826,313.565776 159.939479,313.426672 C160.009131,313.287569 160.06137,312.383409 160.096196,310.714166 C160.131022,309.044922 160.218087,308.019049 160.357392,307.636515 C160.496698,307.253979 160.670826,305.915128 160.879784,303.619919 C161.228048,299.446811 161.645957,295.517194 162.133526,291.830949 C162.342484,289.883498 162.412135,288.388157 162.342483,287.34488 C162.133524,285.606085 162.412131,284.736701 163.17831,284.736701 C163.45692,284.736701 163.596224,284.66715 163.596224,284.528046 C163.596224,284.458494 164.501694,284.406331 166.312663,284.371556 C168.123631,284.33678 169.951986,284.33678 171.797781,284.371556 C173.643575,284.406331 174.566459,284.458494 174.566459,284.528046 Z M191.17853,284.736701 C191.735752,284.875805 192.153661,285.049681 192.432272,285.258337 C192.710883,285.466992 192.850186,285.519155 192.850186,285.414827 C192.850186,285.3105 193.111379,285.397438 193.633773,285.675645 C194.156168,285.953852 194.417362,286.179892 194.417362,286.353772 C194.417362,286.527651 194.556665,286.61459 194.835276,286.61459 C195.113887,286.61459 195.340254,286.823242 195.514385,287.240553 C195.688517,287.657864 195.775581,288.144719 195.775581,288.701134 C195.705929,289.674858 194.904936,290.683344 193.372577,291.726621 C192.815357,292.143932 192.188492,292.665563 191.491966,293.291528 C190.795439,293.917495 190.447182,294.300023 190.447182,294.439127 C190.447182,294.578231 189.785491,295.725818 188.462091,297.881924 C187.695912,299.064305 187.243176,300.350994 187.103871,301.74203 C186.964566,303.480824 187.452127,305.602122 188.566569,308.105986 C188.84518,308.731953 189.472044,309.618725 190.447182,310.76633 C191.422318,311.913934 192.292963,312.800706 193.059143,313.426672 C194.521847,314.609053 195.601447,316.243496 196.297974,318.330049 C196.506931,319.025567 196.663647,320.225317 196.768127,321.929337 C196.872605,323.633355 196.820367,324.589678 196.611409,324.798334 C196.472104,325.006988 196.332801,325.459069 196.193495,326.154586 C196.05419,326.850105 195.636281,327.893366 194.939754,329.284401 C194.243228,330.675437 193.773079,331.423108 193.529295,331.527436 C193.285511,331.631764 192.885014,332.066456 192.327793,332.831526 C191.491961,334.013906 190.464601,335.091942 189.245679,336.065667 C188.026758,337.039393 186.685965,337.248045 185.22326,336.69163 C184.735691,336.482976 184.387433,336.343874 184.178475,336.274322 C183.621254,336.135218 182.907325,335.544037 182.036667,334.50076 C181.166009,333.457483 180.695861,332.588099 180.626209,331.892581 C180.486903,331.197063 180.486903,330.849309 180.626209,330.849309 C180.765514,330.849309 181.183423,330.710207 181.879949,330.432001 C182.576476,330.153794 182.994385,330.014692 183.133691,330.014692 C183.203343,330.014692 183.23817,329.997304 183.23817,329.962529 L183.23817,329.806038 C183.168517,329.597382 183.481949,329.284404 184.178475,328.867093 C184.457086,328.727989 184.683454,328.588888 184.857585,328.449785 C185.031716,328.310681 185.118781,328.206355 185.118781,328.136803 C185.049128,327.928147 185.188431,327.545619 185.536695,326.989204 C186.929748,325.180857 187.730741,323.442088 187.939699,321.772845 C188.218309,319.825395 188.183483,318.399605 187.835221,317.495431 C187.486957,316.591258 186.546661,315.37412 185.014303,313.843981 C184.178471,313.078911 183.534194,312.261689 183.081452,311.392293 C182.62871,310.522895 182.350103,310.036039 182.245624,309.931712 C182.141146,309.827385 181.8103,309.18404 181.253079,308.00166 C179.999332,305.636898 179.233164,303.480825 178.954553,301.533375 C178.815248,300.768306 178.850074,299.690268 179.059031,298.299233 C179.26799,296.908197 179.581422,295.795385 179.999338,294.960764 C180.417253,294.05659 180.678447,293.413245 180.782926,293.030711 C180.887405,292.648176 181.009295,292.456912 181.148601,292.456912 C181.287906,292.456912 181.427209,292.178708 181.566514,291.622294 C181.70582,291.065879 181.845123,290.787676 181.984428,290.787676 C182.123734,290.787676 182.175972,290.683351 182.141146,290.474695 C182.106319,290.26604 182.22821,290.161713 182.50682,290.161713 C182.785431,290.161713 182.95956,289.953061 183.029213,289.53575 C183.098865,289.11844 183.412297,288.596809 183.969518,287.970843 C184.457087,287.344877 185.240667,286.684144 186.320283,285.988627 C187.399899,285.293109 188.113828,284.945356 188.462091,284.945356 C188.880007,284.945356 189.158614,284.875805 189.297918,284.736701 C189.437224,284.458494 190.064088,284.458494 191.17853,284.736701 Z M220.745928,285.154009 C221.721065,285.362665 222.313103,285.519154 222.522061,285.623482 C222.731019,285.727809 223.061864,285.832135 223.514606,285.936463 C223.967348,286.040791 224.472322,286.232055 225.029543,286.510263 C225.586765,286.78847 225.987262,286.927571 226.231045,286.927571 C226.474829,286.927571 226.59672,286.979734 226.59672,287.084062 C226.59672,287.18839 226.875326,287.414429 227.432547,287.762189 C228.268379,288.249052 228.459921,288.944558 228.007179,289.848732 C227.554437,290.752905 226.736031,291.309311 225.551936,291.517967 C224.785756,291.65707 224.333021,291.726621 224.193716,291.726621 C224.054411,291.726621 223.444959,291.709234 222.365343,291.674457 C221.285728,291.639682 220.693688,291.535355 220.58921,291.361476 C220.484731,291.187596 220.240951,291.152822 219.857861,291.257149 C219.474771,291.361476 219.039449,291.448415 218.551881,291.517967 C218.064312,291.587519 217.75088,291.691845 217.611574,291.830949 C217.263312,292.178707 217.019531,301.081204 216.880225,318.538704 C216.880225,325.285228 216.775748,329.145294 216.56679,330.119019 C216.357832,331.092744 216.253355,332.066455 216.253355,333.040179 C216.323007,334.639871 215.800621,335.613582 214.686178,335.961341 C214.128957,336.169996 213.467267,336.083058 212.701088,335.700523 C211.934909,335.317987 211.377696,335.126723 211.029433,335.126723 C210.681169,335.126723 210.228434,334.970234 209.671213,334.657251 C209.113992,334.344268 208.835386,334.10084 208.835386,333.92696 C208.835386,333.753081 208.696083,333.61398 208.417472,333.509652 C208.138861,333.405325 207.929907,333.022795 207.790601,332.362053 C207.651296,331.701311 207.651296,331.197069 207.790601,330.849309 C207.929907,330.571102 208.034384,329.632167 208.104037,328.032475 C208.243343,326.571888 208.347819,325.006996 208.417472,323.337753 C208.556777,321.251199 208.730907,313.983146 208.939865,301.533375 L209.148821,291.830949 L208.521951,292.039602 C208.104035,292.178706 206.98961,292.248257 205.17864,292.248257 C203.367672,292.248257 202.322899,292.109155 202.044288,291.830949 C201.765677,291.552741 201.24329,291.239763 200.477111,290.892004 C199.780584,290.544245 198.962178,289.918288 198.021867,289.014115 C197.081558,288.109942 196.611409,287.483985 196.611409,287.136226 C196.611409,286.788466 196.820364,286.579814 197.23828,286.510263 C198.56168,286.232055 199.293021,286.19728 199.432327,286.405935 C199.50198,286.545039 199.641283,286.545039 199.850241,286.405935 C200.268156,286.19728 201.103975,286.092954 202.357723,286.092954 C203.890081,286.162506 205.422416,286.127731 206.954774,285.988627 C208.278174,285.849523 209.079168,285.727809 209.357778,285.623482 C209.636388,285.519154 210.350318,285.449603 211.499586,285.414827 C212.648855,285.380052 213.571739,285.293113 214.268265,285.154009 C216.845412,284.736699 219.004611,284.736699 220.745928,285.154009 Z M139.200509,377.039721 C139.061204,377.735239 138.991552,379.856537 138.991552,383.403678 C138.991552,386.95082 139.061204,388.75914 139.200509,388.828691 C139.270162,388.967795 139.635833,388.863469 140.297533,388.515709 C140.959233,388.16795 141.42938,387.785422 141.707991,387.368111 C142.19556,386.881248 142.996553,386.029251 144.110995,384.812095 C145.225437,383.594939 146.096083,382.360413 146.722956,381.108481 C147.280178,379.995652 147.628435,378.969778 147.767741,378.03083 C147.907046,377.09188 147.837395,376.552862 147.558784,376.413758 C147.349826,376.205103 146.879677,376.100776 146.148325,376.100776 C145.416973,376.100776 144.911998,376.170327 144.633388,376.309431 C143.37964,376.935397 142.47417,376.935397 141.916948,376.309431 C141.638337,375.961672 141.150777,375.787795 140.45425,375.787795 L139.409466,375.683468 L139.200509,377.039721 Z M139.722901,350.436293 L138.678117,350.957928 L138.678117,354.087744 C138.747769,358.399955 138.99155,361.912268 139.409466,364.624788 C139.548771,365.389858 140.175635,365.007328 141.290077,363.477189 C142.125909,362.36436 142.822425,361.494976 143.379647,360.86901 C144.842352,358.991112 145.538867,357.287118 145.469215,355.756979 C145.399562,352.557596 145.120956,350.679726 144.633388,350.123312 C144.42443,349.845104 143.745327,349.740778 142.596058,349.81033 C141.44679,349.879882 140.48908,350.088534 139.722901,350.436293 Z M137.319897,343.759354 C137.877118,343.96801 138.225376,344.037561 138.364682,343.968009 C138.503987,343.898457 139.043786,344.002783 139.984097,344.28099 C140.924408,344.559197 141.969182,344.802625 143.118451,345.01128 C144.267719,345.219936 145.260254,345.498139 146.096085,345.845898 C146.792612,346.124104 147.785147,346.715287 149.073721,347.61946 C150.362295,348.523633 151.285178,349.288691 151.8424,349.914657 C153.026495,351.166589 153.862313,353.253112 154.349882,356.174287 C154.628493,357.704427 154.698144,358.852014 154.558839,359.617084 C154.419533,360.382154 153.966798,361.321089 153.200619,362.433917 C152.504092,363.407642 151.842403,364.381353 151.215529,365.355078 C150.588655,366.328804 149.770249,367.337289 148.760285,368.380566 C147.750323,369.423843 147.280174,370.0498 147.349827,370.258455 C147.41948,370.46711 147.837389,370.6236 148.603568,370.727927 C149.369747,370.832255 149.996612,371.075683 150.48418,371.458217 C150.971748,371.840752 151.285181,372.032017 151.424486,372.032017 C151.633444,372.032017 152.242895,372.588423 153.252858,373.701252 C154.262822,374.81408 154.872274,375.579139 155.081231,375.996449 C155.777758,377.526589 156.126015,378.743727 156.126015,379.6479 C156.126015,381.456247 155.499151,383.577545 154.245404,386.011857 C152.922004,388.585274 150.449372,391.089101 146.827435,393.523414 C145.712993,394.218932 145.103541,394.688399 144.999062,394.93183 C144.894583,395.175262 144.21548,395.644729 142.961733,396.340248 C141.916943,396.966213 141.115949,397.296579 140.558729,397.331356 C140.001507,397.366131 139.165688,397.140091 138.051246,396.653229 C137.494025,396.375021 136.901987,396.096818 136.275113,395.818611 C135.857197,395.609956 135.317397,395.488242 134.655697,395.453467 C133.993997,395.41869 133.436784,395.331752 132.984042,395.192648 C132.5313,395.053545 132.165629,394.983994 131.887018,394.983994 C131.329797,394.914442 130.68552,394.4102 129.954167,393.47125 C129.222814,392.532301 128.961621,391.854181 129.17058,391.43687 C129.309884,391.01956 129.414362,386.846515 129.484014,378.91761 C129.484014,376.20509 129.518841,374.257669 129.588493,373.075289 C129.658145,371.96246 129.675558,368.067618 129.640732,361.390646 C129.605906,354.713674 129.449189,351.097035 129.17058,350.54062 C128.543705,349.427792 128.50888,348.767059 129.066101,348.558404 C129.344711,348.4193 129.640731,347.741181 129.954167,346.524024 C130.267604,345.306868 130.563623,344.698299 130.842234,344.698299 C131.190497,344.628747 131.678058,344.593972 132.304932,344.593972 C132.931806,344.52442 133.523845,344.315767 134.081065,343.968009 C134.98655,343.27249 136.06615,343.20294 137.319897,343.759354 Z M179.006792,380.273863 L178.797836,380.482518 C178.728183,380.20431 178.763009,380.030434 178.902315,379.960882 L179.006792,380.273863 Z M175.87244,352.001201 C174.618692,353.183581 173.713222,354.748473 173.156,356.695923 C172.947043,357.391441 172.703262,358.086948 172.424651,358.782467 C171.728125,360.243054 171.240564,361.981823 170.961953,363.998825 C170.683343,365.668068 170.439562,366.815655 170.230604,367.441622 C169.743035,369.389072 169.568907,372.518855 169.708212,376.831067 C169.847517,381.143278 170.195775,383.855757 170.752996,384.968586 C171.031607,385.455449 171.205736,386.220507 171.275389,387.263783 C171.275389,387.472439 171.536582,387.854968 172.058976,388.411382 C172.581371,388.967797 173.05152,389.350326 173.469436,389.558982 C174.026656,389.837188 174.479392,389.837188 174.827655,389.558982 C175.106266,389.280774 175.559001,388.515716 176.185875,387.263783 C176.812749,386.011851 177.126181,385.281569 177.126181,385.072913 C177.126181,384.864258 177.30031,384.707768 177.648573,384.603441 C177.996837,384.499113 178.397333,383.612341 178.850075,381.943098 C179.302818,380.273855 179.529185,379.265369 179.529185,378.91761 C179.529185,378.569851 179.459533,378.639402 179.320228,379.126264 L179.111271,379.752227 L179.111271,379.126264 C179.111271,378.639402 179.180923,378.152546 179.320228,377.665684 L179.529185,376.831067 L179.529185,377.561357 C179.598838,378.604634 179.703315,378.465532 179.84262,377.144048 C179.912273,376.79629 179.981924,376.344209 180.051577,375.787795 C180.260535,374.188104 180.399838,373.110067 180.469491,372.553653 C180.469491,372.275446 180.434665,372.171119 180.365012,372.240671 C180.225707,372.449327 180.156055,371.579942 180.156055,369.632493 L180.156055,368.171912 L180.260534,365.355078 C180.330187,365.494182 180.365012,365.668059 180.365012,365.876714 L180.573969,367.337294 L180.678448,367.232967 C180.817753,366.815657 180.835166,366.172312 180.730687,365.302915 C180.626208,364.433517 180.486905,363.946662 180.312773,363.842334 C180.138642,363.738007 180.086403,362.990336 180.156055,361.5993 L180.260534,360.13872 L180.365012,360.347374 C180.434665,360.625581 180.469491,360.625581 180.469491,360.347374 C180.539144,359.999615 180.539144,359.408434 180.469491,358.573812 C180.469491,356.835018 180.417252,355.965633 180.312773,355.965633 C180.208294,355.965633 180.190881,355.61788 180.260534,354.922361 C180.330187,354.226844 180.277948,353.87909 180.103816,353.87909 C179.929685,353.87909 179.738142,353.49656 179.529185,352.731491 C179.180922,351.479559 178.832664,350.575399 178.484401,350.018984 L177.85753,349.288694 L177.439616,350.123312 C177.230658,350.610174 176.708271,351.236131 175.87244,352.001201 Z M174.618698,345.950225 C176.011751,346.506639 177.92717,346.784842 180.365012,346.784842 C181.827718,346.854394 182.837666,347.010883 183.394887,347.254314 C183.952108,347.497745 184.787927,348.210641 185.90237,349.393021 C187.016812,350.436298 187.695915,351.601273 187.939699,352.887982 C188.183483,354.174689 188.305374,357.147985 188.305374,361.807954 C188.375026,366.537477 188.166072,371.99721 187.678503,378.18732 C187.539197,379.856563 186.947159,382.325614 185.90237,385.594549 C185.484453,386.846481 184.909828,388.289659 184.178475,389.924126 C183.447122,391.558594 182.976974,392.375815 182.768016,392.375815 C182.628711,392.375815 182.280453,392.63663 181.723232,393.158268 C181.166011,393.679907 180.713275,393.940722 180.365012,393.940722 C180.016749,393.940722 179.633666,394.114599 179.215749,394.462358 C178.797834,394.810117 178.466989,394.897055 178.223205,394.723176 C177.97942,394.549296 177.770465,394.531909 177.596334,394.671012 C177.422202,394.810116 177.021706,394.914442 176.394832,394.983994 C175.767958,395.053546 175.350048,395.175259 175.14109,395.349139 C174.932133,395.523019 174.49681,395.453468 173.83511,395.140485 C173.17341,394.827502 172.598784,394.671012 172.111216,394.671012 C171.623648,394.671012 171.327628,394.601462 171.223149,394.462358 C171.11867,394.323255 170.874889,394.253704 170.4918,394.253704 C170.108711,394.253704 169.551498,394.06244 168.820145,393.679904 C168.088793,393.297369 167.65347,393.106105 167.514165,393.106105 C167.235555,393.106105 166.451974,392.445373 165.1634,391.123889 C163.874826,389.802405 163.05642,388.828694 162.708156,388.202728 C161.663367,386.046622 161.001677,382.986389 160.723066,379.021937 C160.583761,376.657176 160.548936,373.962085 160.618588,370.936582 C160.688241,367.911079 160.827544,365.981045 161.036502,365.146424 C161.315113,364.24225 161.506654,363.320703 161.611133,362.381754 C161.715612,361.442805 161.94198,360.538645 162.290243,359.669247 C162.638506,358.79985 162.812635,358.156505 162.812635,357.739195 C162.812635,357.321884 162.8997,357.061069 163.073831,356.956741 C163.247963,356.852413 163.387266,356.382945 163.491745,355.548324 C163.596224,354.713703 163.770353,354.070358 164.014137,353.618272 C164.257922,353.166185 164.519115,352.627166 164.797725,352.001201 C165.424599,350.679717 166.260418,349.462579 167.305208,348.34975 C168.14104,347.515128 169.063924,346.941334 170.073886,346.628351 C171.08385,346.315369 171.62365,346.089328 171.693303,345.950225 C171.832608,345.811122 172.26793,345.741571 172.999283,345.741571 C173.730636,345.741571 174.270435,345.811122 174.618698,345.950225 Z M205.126401,345.741571 C205.683623,345.880674 206.101532,346.054551 206.380143,346.263206 C206.658754,346.471862 206.798057,346.524025 206.798057,346.419697 C206.798057,346.31537 207.05925,346.402308 207.581644,346.680515 C208.104039,346.958722 208.365233,347.184762 208.365233,347.358642 C208.365233,347.532521 208.504536,347.61946 208.783147,347.61946 C209.061758,347.61946 209.288125,347.828112 209.462257,348.245423 C209.636388,348.662734 209.723452,349.149589 209.723452,349.706003 C209.6538,350.679728 208.852807,351.688214 207.320448,352.731491 C206.763228,353.148801 206.136363,353.670433 205.439837,354.296398 C204.74331,354.922365 204.395053,355.304893 204.395053,355.443997 C204.395053,355.583101 203.733362,356.730688 202.409963,358.886794 C201.643783,360.069174 201.191048,361.355863 201.051742,362.746899 C200.912437,364.485694 201.399998,366.606991 202.514441,369.110856 C202.793051,369.736822 203.419915,370.623595 204.395053,371.771199 C205.370189,372.918803 206.240834,373.805575 207.007014,374.431542 C208.469718,375.613922 209.549318,377.248365 210.245845,379.334919 C210.454802,380.030436 210.611518,381.230187 210.715998,382.934206 C210.820477,384.638225 210.768238,385.594548 210.55928,385.803204 C210.419975,386.011858 210.280672,386.463939 210.141366,387.159456 C210.002061,387.854974 209.584152,388.898235 208.887625,390.289271 C208.191099,391.680307 207.72095,392.427978 207.477166,392.532305 C207.233382,392.636634 206.832885,393.071325 206.275664,393.836395 C205.439833,395.018776 204.412472,396.096812 203.19355,397.070537 C201.97463,398.044263 200.633836,398.252915 199.171131,397.6965 C198.683562,397.487845 198.335304,397.348743 198.126346,397.279192 C197.569125,397.140088 196.855196,396.548907 195.984538,395.50563 C195.11388,394.462353 194.643733,393.592969 194.57408,392.897451 C194.434774,392.201933 194.434774,391.854179 194.57408,391.854179 C194.713385,391.854179 195.131294,391.715077 195.82782,391.43687 C196.524347,391.158663 196.942256,391.019561 197.081562,391.019561 C197.151215,391.019561 197.186041,391.002174 197.186041,390.967398 L197.186041,390.810907 C197.116388,390.602252 197.42982,390.289274 198.126346,389.871963 C198.404957,389.732859 198.631325,389.593758 198.805456,389.454654 C198.979587,389.315551 199.066652,389.211224 199.066652,389.141672 C198.996999,388.933017 199.136302,388.550488 199.484566,387.994074 C200.877619,386.185727 201.678612,384.446958 201.88757,382.777715 C202.166181,380.830265 202.131354,379.404475 201.783092,378.500301 C201.434828,377.596128 200.494532,376.37899 198.962174,374.84885 C198.126342,374.083781 197.482065,373.266559 197.029323,372.397162 C196.576581,371.527765 196.297974,371.040909 196.193495,370.936582 C196.089017,370.832254 195.758171,370.18891 195.20095,369.006529 C193.947203,366.641768 193.181035,364.485694 192.902425,362.538245 C192.763119,361.773174 192.797945,360.695138 193.006903,359.304102 C193.215861,357.913066 193.529293,356.800255 193.947209,355.965633 C194.365124,355.06146 194.626318,354.418115 194.730797,354.03558 C194.835276,353.653046 194.957166,353.461781 195.096472,353.461781 C195.235777,353.461781 195.37508,353.183578 195.514385,352.627164 C195.653691,352.070749 195.792994,351.792546 195.932299,351.792546 C196.071605,351.792546 196.123843,351.68822 196.089017,351.479565 C196.05419,351.27091 196.176081,351.166583 196.454691,351.166583 C196.733302,351.166583 196.907431,350.957931 196.977084,350.54062 C197.046737,350.123309 197.360168,349.601679 197.917389,348.975713 C198.404958,348.349746 199.188538,347.689014 200.268154,346.993497 C201.34777,346.297978 202.061699,345.950225 202.409963,345.950225 C202.827878,345.950225 203.106484,345.880674 203.245789,345.741571 C203.385095,345.463363 204.011959,345.463363 205.126401,345.741571 Z M221.633994,345.741571 C222.191215,345.880674 222.609125,346.054551 222.887736,346.263206 C223.166346,346.471862 223.305649,346.524025 223.305649,346.419697 C223.305649,346.31537 223.566843,346.402308 224.089237,346.680515 C224.611632,346.958722 224.872826,347.184762 224.872826,347.358642 C224.872826,347.532521 225.012129,347.61946 225.29074,347.61946 C225.56935,347.61946 225.795717,347.828112 225.96985,348.245423 C226.143981,348.662734 226.231045,349.149589 226.231045,349.706003 C226.161393,350.679728 225.3604,351.688214 223.828041,352.731491 C223.27082,353.148801 222.643956,353.670433 221.947429,354.296398 C221.250903,354.922365 220.902645,355.304893 220.902645,355.443997 C220.902645,355.583101 220.240955,356.730688 218.917555,358.886794 C218.151376,360.069174 217.698641,361.355863 217.559335,362.746899 C217.42003,364.485694 217.907591,366.606991 219.022034,369.110856 C219.300644,369.736822 219.927508,370.623595 220.902645,371.771199 C221.877782,372.918803 222.748427,373.805575 223.514606,374.431542 C224.977311,375.613922 226.056911,377.248365 226.753437,379.334919 C226.962395,380.030436 227.119112,381.230187 227.22359,382.934206 C227.32807,384.638225 227.275831,385.594548 227.066873,385.803204 C226.927568,386.011858 226.788265,386.463939 226.648959,387.159456 C226.509654,387.854974 226.091744,388.898235 225.395218,390.289271 C224.698692,391.680307 224.228543,392.427978 223.984759,392.532305 C223.740974,392.636634 223.340479,393.071325 222.783257,393.836395 C221.947426,395.018776 220.920064,396.096812 219.701143,397.070537 C218.482222,398.044263 217.141429,398.252915 215.678723,397.6965 C215.191155,397.487845 214.842897,397.348743 214.633939,397.279192 C214.076718,397.140088 213.362789,396.548907 212.492131,395.50563 C211.621473,394.462353 211.151325,393.592969 211.081672,392.897451 C210.942367,392.201933 210.942367,391.854179 211.081672,391.854179 C211.220977,391.854179 211.638887,391.715077 212.335413,391.43687 C213.03194,391.158663 213.449849,391.019561 213.589155,391.019561 C213.658808,391.019561 213.693633,391.002174 213.693633,390.967398 L213.693633,390.810907 C213.62398,390.602252 213.937412,390.289274 214.633939,389.871963 C214.912549,389.732859 215.138917,389.593758 215.313049,389.454654 C215.48718,389.315551 215.574245,389.211224 215.574245,389.141672 C215.504592,388.933017 215.643895,388.550488 215.992159,387.994074 C217.385212,386.185727 218.186205,384.446958 218.395163,382.777715 C218.673774,380.830265 218.638947,379.404475 218.290684,378.500301 C217.942421,377.596128 217.002124,376.37899 215.469766,374.84885 C214.633935,374.083781 213.989658,373.266559 213.536916,372.397162 C213.084173,371.527765 212.805567,371.040909 212.701088,370.936582 C212.596609,370.832254 212.265764,370.18891 211.708543,369.006529 C210.454795,366.641768 209.688627,364.485694 209.410018,362.538245 C209.270712,361.773174 209.305537,360.695138 209.514496,359.304102 C209.723454,357.913066 210.036886,356.800255 210.454801,355.965633 C210.872717,355.06146 211.133911,354.418115 211.23839,354.03558 C211.342869,353.653046 211.464759,353.461781 211.604065,353.461781 C211.74337,353.461781 211.882673,353.183578 212.021978,352.627164 C212.161284,352.070749 212.300587,351.792546 212.439892,351.792546 C212.579197,351.792546 212.631436,351.68822 212.596609,351.479565 C212.561783,351.27091 212.683673,351.166583 212.962284,351.166583 C213.240895,351.166583 213.415023,350.957931 213.484676,350.54062 C213.554329,350.123309 213.867761,349.601679 214.424982,348.975713 C214.91255,348.349746 215.696131,347.689014 216.775747,346.993497 C217.855363,346.297978 218.569292,345.950225 218.917555,345.950225 C219.335471,345.950225 219.614077,345.880674 219.753382,345.741571 C219.892688,345.463363 220.519552,345.463363 221.633994,345.741571 Z" id="WORLDSBESTBOSS" fill="#000000"></path>
            <polygon id="Line-21" fill="#000000" points="239 221 241.5 224.57709 242.330951 230 244 223.104885"></polygon>
            <polygon id="Line-22" fill="#000000" points="157.885787 124.364846 150 93.5163404 166.355693 70.8708892 174.178209 49.0482188 170.03199 31.47041 150 0 179.027942 26.7259828 193 49.0482188 184.949243 73.095038 170.03199 93.5163404 180.07865 152"></polygon>
            <polygon id="Line-22" fill="#000000" transform="translate(214.500000, 115.000000) rotate(180.000000) translate(-214.500000, -115.000000) " points="204.051883 151.910014 198 128.367734 210.552044 111.085678 216.55537 94.4315353 213.373388 81.0168919 198 57 220.277258 77.3961448 231 94.4315353 224.821513 112.783056 213.373388 128.367734 221.083614 173"></polygon>
            <polygon id="Line-22" fill="#000000" transform="translate(124.500000, 115.000000) rotate(180.000000) translate(-124.500000, -115.000000) " points="114.051883 151.910014 108 128.367734 120.552044 111.085678 126.55537 94.4315353 123.373388 81.0168919 108 57 130.277258 77.3961448 141 94.4315353 134.821513 112.783056 123.373388 128.367734 131.083614 173"></polygon>
            <polygon id="Line-23" fill="#9A0031" points="214.583551 76 219.252987 99.4093432 207.021466 117.460055 202 134.837269 212.433973 150 207.021466 134.837269 214.583551 117.460055 226 99.4093432"></polygon>
            <polygon id="Line-24" fill="#FF0041" points="170.848521 131 163.259771 121.678824 155 94.6211919 170.620143 76.3641281 178.845358 50.8724225 174.785852 33 184 50.8724225 178.845358 73.6622535 161.541326 94.6211919"></polygon>
            <polyline id="Line-4" fill="#9A0031" points="127.124233 76.1233029 129.228022 105.926991 119.875519 118.371815 115 132.798694 119.875519 148 119.875519 132.798694 123.984363 118.371815 137 99.9815365 126 74"></polyline>
            <polygon id="Line-25" fill="#FFFFFF" points="58.1164255 198 58.1164255 211.30464 32.4927649 214.409056 21.9749419 233.079499 21.9749419 330.624265 32.4927649 363.486273 59 371.339216 59 381 23.2152326 372.517527 14.7724115 363.486273 7 328.493176 7 243.501997 14.7724115 216.785391 26.2981913 205.236519"></polygon>
        </g>
    </g>
</svg>