<?xml version="1.0" encoding="UTF-8"?>
<svg width="508px" height="434px" viewBox="0 0 508 434" version="1.1" xmlns="http://www.w3.org/2000/svg" xmlns:xlink="http://www.w3.org/1999/xlink">
    <!-- Generator: Sketch 54.1 (76490) - https://sketchapp.com -->
    <title>Artboard Copy 3</title>
    <desc>Created with Sketch.</desc>
    <g id="Artboard-Copy-3" stroke="none" stroke-width="1" fill="none" fill-rule="evenodd">
        <path d="M108.969968,153 L85,265.981846 C123.021473,295.80026 166.361778,312.837893 215.020915,317.094743 C263.680052,321.351593 327.006414,310.595492 405,284.826439 L386.48977,169.404185 L384.124357,159.531045 L108.969968,153 Z" id="Line" fill="#000000"></path>
        <path d="M375.340281,168.988118 L390,276.878024 C310.389205,296.520506 251.376942,305.493768 212.963211,303.79781 C174.54948,302.101853 137.895077,288.904928 103,264.207036 L124.029553,153 L375.340281,168.988118 Z" id="Line-7" fill="#FFFFFF"></path>
        <polygon id="Line-2" fill="#000000" points="0 83.9580163 3.77822773e-14 102.723356 234.454755 225 495 135.007729 495 117.141358 237.446102 4 8.63422371 76.3460189"></polygon>
        <polygon id="Line-3" fill="#FFFFFF" points="236.071314 15 5 88.1216404 5 99.3046441 236.071314 218 487 130.737337 487 117.626089"></polygon>
        <polygon id="Line-19" fill="#000000" fill-rule="nonzero" points="241.157144 202.418587 13 93 13.7775528 99.0207936 238.96419 209 475.476299 126.877945 478 121.14255"></polygon>
        <rect id="Rectangle" fill="#000000" x="72" y="196" width="38" height="21"></rect>
        <polygon id="Rectangle" fill="#9A0031" points="73.7381472 199 98.7140808 199 101 215 73 215"></polygon>
        <path d="M59.2738895,236.914687 C54.5095888,245.187479 51.4296554,254.872427 50.0340893,265.969533 L53.8677275,268.13529 L71.6973318,245.160245 L42,294.887594 L48.6643369,298 L55.4402513,298 L65.0510571,298 L75.3809172,298 L86.0567674,294.887594 C96.1435931,284.736304 102.827136,273.687888 106.107395,261.742345 C109.387654,249.796802 109.878015,235.21602 107.578476,218 L77.1636463,218.861432 C70.0014426,222.624144 64.0381903,228.641896 59.2738895,236.914687 Z" id="Line-5" fill="#000000"></path>
        <path d="M52,288.354958 L80.7963211,238.694387 L74.071122,235.881583 L56.7982801,257.483447 C57.0488725,251.595486 59.2849867,245.332466 63.5066229,238.694387 C67.7282591,232.056309 73.0143115,226.491513 79.3647802,222 L103.583072,223.796216 C106.805643,234.703967 106.805643,245.933044 103.583072,257.483447 C98.7492165,274.809051 89.0798115,284.486271 85.5711382,288.354958 C83.2320227,290.934082 78.3330938,292.027572 70.8743517,291.635427 L91.1377288,257.483447 C77.0724873,276.737029 68.3374831,287.706645 64.9327162,290.392297 C61.5279492,293.077948 57.2170438,292.398835 52,288.354958 Z" id="Line-6" fill="#FF0048"></path>
        <ellipse id="Oval" fill="#000000" cx="239" cy="94.5" rx="24" ry="12.5"></ellipse>
        <ellipse id="Oval" fill="#000000" cx="240" cy="93" rx="20" ry="9"></ellipse>
        <polygon id="Line-4" fill="#000000" points="223 99.5109116 87.9173576 132.576381 94.8957967 194 81.8839225 194 81 124.233554 220.648277 94"></polygon>
        <g id="Group" transform="translate(81.000000, 228.000000)">
            <path d="M56.0391271,48.6089498 C76.4691064,61.5344182 87.4691064,80.0660457 89.0391271,104.203833 C90.6091479,128.341619 82.2775816,146.674953 64.0444282,159.203833 L210.039127,115.011636 L404.242753,109.765205 L412.311952,29.9586733 L378.604973,2.84217094e-14 C306.295124,30.1970693 250.106509,48.3145741 210.039127,54.3525145 C169.971745,60.3904549 118.638412,58.4759334 56.0391271,48.6089498 Z" id="Line-75" fill="#000000"></path>
            <path d="M86.0391271,147.203833 L97.9262178,113.711005 C97.3479357,103.136607 95.4898453,93.8990698 92.3519466,85.998393 C89.214048,78.0977162 83.7949593,69.0125968 76.0946807,58.7430348 C118.377574,68.0909991 167.815778,68.0909991 224.409293,58.7430348 C281.002807,49.3950706 331.63211,32.8661893 376.297201,9.15639114 L407.926013,36.3985173 L395.039127,104.134783 L196.000362,104.134783 L86.0391271,147.203833 Z" id="Line-10" fill="#FFFFFF"></path>
            <path d="M108.039127,147.203833 C114.919682,133.23308 118.686733,121.086413 119.34028,110.763832 C119.993828,100.44125 118.129689,87.5035587 113.747865,71.9507572 C168.962422,75.2031591 215.435797,73.9630217 253.16799,68.2303451 C290.900184,62.4976685 347.890251,48.018538 424.138194,24.7929534 C427.460496,44.309599 427.460496,60.0288669 424.138194,71.9507572 C420.815892,83.8726474 412.829988,96.8103389 400.180481,110.763832 L210.039127,115.011636 L108.039127,147.203833 Z" id="Line-8" fill="#000000"></path>
            <path d="M120.354888,79.6019163 L126.546924,93.7864162 L128,111.40924 L122.66776,129.127495 L113.642359,143.252858 L210.039127,108.203833 L395.039127,104.134783 C406.747823,93.7416492 414.737197,82.9221722 419.007249,71.6763519 C423.2773,60.4305316 424.162109,47.8785193 421.661676,34.020315 L294.638406,68.2303451 L195.768646,79.6019163 L120.354888,79.6019163 Z" id="Line-9" fill="#FFFFFF"></path>
            <ellipse id="Oval" fill="#000000" transform="translate(53.000000, 101.505806) rotate(-13.000000) translate(-53.000000, -101.505806) " cx="53" cy="101.505806" rx="40" ry="58.5"></ellipse>
            <path d="M52.4866302,150.625478 C68.7790303,150.625478 84.9517939,126.800317 84.9517939,102.499788 C84.9517939,78.1992592 64.1995588,51.9678195 47.9071587,51.9678195 C31.6147585,51.9678195 18.4071587,71.6672906 18.4071587,95.9678195 C18.4071587,120.268349 36.19423,150.625478 52.4866302,150.625478 Z" id="Oval" fill="#FFFFFF" transform="translate(51.679476, 101.296649) rotate(-10.000000) translate(-51.679476, -101.296649) "></path>
        </g>
        <g id="Group-2" transform="translate(209.000000, 220.000000)">
            <path d="M94.2856814,71.0334161 C130.605701,83.5511594 153.581151,90.0916245 163.21203,90.6548115 C177.658348,91.4995919 185.409128,94.7392475 192.504537,76.7769809 C197.23481,64.8021365 195.249055,49.736762 186.547273,31.5808575 C188.762496,6.41840321 181.790205,-3.70766933 165.630399,1.20263989 C149.470594,6.1129491 132.050017,23.6510243 113.36867,53.8168655 L91,66.3097582" id="Line-16" fill="#000000"></path>
            <path d="M102.630399,64.0536521 L120.630399,54.6282989 L133.464923,32.7929534 L147.546025,17.1563911 L162.866193,8.07434101 L175.630399,8 L177.465414,17.9864059 L175.630399,25.9212523 L188.673287,49.3033308 C188.63387,58.7306551 188.060039,65.9740169 186.951795,71.0334161 C185.843551,76.0928154 183.137564,80.7911096 178.833833,85.1282989 L152.988143,83.648682 L130.555394,71.0334161 L108.140746,66.8250862 L133.464923,64.0536521 L123.581582,62.2943705 L126.440686,58.0539605 L102.630399,64.0536521 Z" id="Line-17" fill="#FF0048"></path>
            <path d="M93.9355794,72.1266918 C96.9619337,85.9539621 96.9619337,96.5780083 93.9355794,103.99883 C85.988077,123.486634 64.4808212,144.411992 62.0772998,155.984645 C58.3009118,174.167479 59.9203383,189.548697 66.9355794,202.128299 L82.2297583,173.83138 L105.449332,197.833895 L98.9355794,161.407766 L105.449332,95.5990994 L93.9355794,72.1266918 Z" id="Line-11" fill="#000000"></path>
            <path d="M77.953357,79.0536521 L94.9355794,69.6282989 C98.2924122,52.8112608 99.1242054,40.6469876 97.4309589,33.1354794 C94.8910891,21.868217 91.6326618,13.1385312 81.9739113,12.1282989 C75.5347444,11.4548106 67.7531814,17.1044146 58.6292224,29.0771108 C38.467663,21.7839089 24.7171131,18.3934064 17.3775727,18.9056033 C6.36826214,19.6738985 -2.13531641,16.8070673 0.474706485,33.1354794 C3.08472938,49.4638915 4.00886931,54.7995011 25.1144528,67.3078479 C39.1848418,75.6467457 56.7978099,79.5620138 77.953357,79.0536521 Z" id="Line-77" fill="#000000"></path>
            <path d="M79.9355794,71.6282989 L68.7410742,75.6486556 L49.1412773,72.8960391 C44.5658083,71.2945518 41.181202,69.9927406 38.9874584,68.9906057 C36.6776934,67.9354704 33.3172415,66.1295106 28.9061028,63.5727265 L12.0349726,50.1486139 L6.09298189,41.2433213 L4.50706652,30.1449843 L10.2606749,25.28469 L24.7490899,24.8898928 L62.5670916,32.7929534 L73.2391496,20.3110298 L82.4105459,16.1520018 L91.0052886,22.9247183 L95.1504336,38.9142692 L91.077703,66.9388158 L73.6219946,50.1486139 L85.0787178,66.9388158 L73.6219946,60.7142534 L79.9355794,71.6282989 Z" id="Line-18" fill="#FF0048"></path>
            <path d="M66.9355794,196.716874 L64.1097635,183.540514 L64.1097635,166.509418 L66.9355794,156.328757 L71.1553206,148.295815 C74.421413,144.50134 76.7919954,141.346629 78.2670676,138.831682 C81.1626036,133.894895 85.6700148,126.186713 91.7893011,115.707138 C95.1528953,108.618429 97.117134,103.344929 97.6820171,99.8866389 C98.2469002,96.4283491 98.2469002,90.4862518 97.6820171,82.0603473 L102.254,96.1244264 L98.9355794,123.290981 L94.1591127,157.945843 L98.9355794,186.275236 L82.7721933,166.628299 L66.9355794,196.716874 Z" id="Line-12" fill="#FF0048"></path>
            <path d="M96.9355794,80.1282989 C100.374919,87.2836562 102.481874,97.6388302 103.256445,111.193821 C104.418302,131.526307 96.0929149,143.79255 101.935579,167.628299 C107.778244,191.464047 114.291443,196.483646 126.67124,206.716874 C134.924437,213.539026 147.666942,215.342834 164.898755,212.128299 L182.724286,203.478303 C174.414529,202.801311 168.472686,201.839662 164.898755,200.593357 C161.324824,199.347052 157.298551,196.832608 152.819935,193.050024 L182.724286,179.248532 C160.247642,180.994587 144.630746,175.789341 135.873599,163.632796 C127.116452,151.47625 124.048999,130.74415 126.67124,101.436497 L108.449332,71.7769809 L96.9355794,80.1282989 Z" id="Line-13" fill="#000000"></path>
            <path d="M105.254,85.6548115 C106.755999,91.6411135 107.82111,102.632276 108.449332,118.628299 C109.391666,142.622333 102.406429,143.646447 108.449332,167.015493 C112.477935,182.594857 119.810133,194.820784 130.445926,203.693273 L142.041924,209.15409 L152.156205,209.084191 L162.866193,206.716874 L146.357157,193.295183 L162.866193,182.015454 C153.842832,183.181253 146.164079,181.385534 139.829933,176.628299 C130.328714,169.492446 128.334168,168.94296 122.611119,151.782039 C118.795753,140.341424 118.795753,124.934785 122.611119,105.562121 L105.254,85.6548115 Z" id="Line-76" fill="#FF0048"></path>
            <path d="M102.935579,85.7302151 C113.06498,81.881125 115.745238,77.786563 117.935579,72.6282989 C120.125921,67.4700348 120.226804,64.2893211 113.30518,61.3097582 C106.383557,58.3301953 102.074742,58.2731732 91.6422337,61.3097582 C81.2097257,64.3463431 76.3663997,66.8193195 74.4191392,72.6282989 C72.4718786,78.4372783 76.8500076,82.69503 83.4561157,85.7302151 C90.0622237,88.7654002 92.8061784,89.5793053 102.935579,85.7302151 Z" id="Line-14" fill="#000000"></path>
            <path d="M79.9355794,78.6282989 C82.8666485,82.2672153 85.4825248,83.5971427 90.9355794,84.3084107 C96.3886339,85.0196787 96.1249439,84.6700477 102.935579,81.6282989 C109.746215,78.58655 112.309472,76.8640275 114.716995,73.6872147 C117.124518,70.510402 117.304823,69.0938566 114.716995,66.0823014 C112.129166,63.0707462 112.168363,61.8250862 104.523871,61.8250862 C96.879379,61.8250862 93.4907093,64.3404296 88.6385061,66.0823014 C83.786303,67.8241732 82.2154355,67.3653293 79.9355794,70.6519328 C77.6557232,73.9385363 77.0045102,74.9893824 79.9355794,78.6282989 Z" id="Line-15" fill="#9A0031"></path>
        </g>
        <path d="M142.46758,379 C129.869624,369.356932 122.056759,358.585311 119.028985,346.685135 C116.00121,334.784959 119.655328,320.55658 129.991339,304 L167.025606,317.013703 L171,337.993455 L167.025606,359.530947 L156.983091,377.027875 L142.46758,379 Z" id="Line-78" fill="#000000"></path>
        <path d="M133.641784,314 C127.433425,321.883005 125.57748,331.716338 128.073948,343.5 C130.570416,355.283662 136.592911,365.116995 146.141433,373 L158.521943,369.295784 C162.210399,358.40333 164.317285,349.804735 164.842599,343.5 C165.367914,337.195265 164.578326,329.983888 162.473835,321.865871 L133.641784,314 Z" id="Line-79" fill="#FFFFFF"></path>
    </g>
</svg>